<svg xmlns="http://www.w3.org/2000/svg" xmlns:xlink="http://www.w3.org/1999/xlink" width="1080" zoomAndPan="magnify" viewBox="0 0 810 809.999993" height="1080" preserveAspectRatio="xMidYMid meet" version="1.0"><defs><clipPath id="8239f986ce"><path d="M 94.152344 66.179688 L 715.902344 66.179688 L 715.902344 699.179688 L 94.152344 699.179688 Z M 94.152344 66.179688 " clip-rule="nonzero"/></clipPath><clipPath id="7196348849"><path d="M 702 645 L 715.902344 645 L 715.902344 659 L 702 659 Z M 702 645 " clip-rule="nonzero"/></clipPath><clipPath id="139bb1b79d"><path d="M 702 577 L 715.902344 577 L 715.902344 592 L 702 592 Z M 702 577 " clip-rule="nonzero"/></clipPath><clipPath id="2ccbe22d21"><path d="M 702 510 L 715.902344 510 L 715.902344 525 L 702 525 Z M 702 510 " clip-rule="nonzero"/></clipPath><clipPath id="f8360037ff"><path d="M 688 645 L 715.902344 645 L 715.902344 686 L 688 686 Z M 688 645 " clip-rule="nonzero"/></clipPath><clipPath id="faefe78d73"><path d="M 648 685 L 689 685 L 689 699.179688 L 648 699.179688 Z M 648 685 " clip-rule="nonzero"/></clipPath><clipPath id="104fc31ebd"><path d="M 688 577 L 715.902344 577 L 715.902344 619 L 688 619 Z M 688 577 " clip-rule="nonzero"/></clipPath><clipPath id="9cbb04a4da"><path d="M 688 510 L 715.902344 510 L 715.902344 551 L 688 551 Z M 688 510 " clip-rule="nonzero"/></clipPath><clipPath id="ecc2685b52"><path d="M 688 685 L 703 685 L 703 699.179688 L 688 699.179688 Z M 688 685 " clip-rule="nonzero"/></clipPath><clipPath id="3c9fa6153e"><path d="M 499 685 L 541 685 L 541 699.179688 L 499 699.179688 Z M 499 685 " clip-rule="nonzero"/></clipPath><clipPath id="e7403ca5a4"><path d="M 580 564 L 649 564 L 649 699.179688 L 580 699.179688 Z M 580 564 " clip-rule="nonzero"/></clipPath><clipPath id="fc22516481"><path d="M 540 685 L 581 685 L 581 699.179688 L 540 699.179688 Z M 540 685 " clip-rule="nonzero"/></clipPath><clipPath id="21bd4db2dc"><path d="M 526 685 L 568 685 L 568 699.179688 L 526 699.179688 Z M 526 685 " clip-rule="nonzero"/></clipPath><clipPath id="9681db9a24"><path d="M 175 685 L 189 685 L 189 699.179688 L 175 699.179688 Z M 175 685 " clip-rule="nonzero"/></clipPath><clipPath id="e2970a7de3"><path d="M 202 645 L 270 645 L 270 699.179688 L 202 699.179688 Z M 202 645 " clip-rule="nonzero"/></clipPath><clipPath id="17e004bacc"><path d="M 459 685 L 527 685 L 527 699.179688 L 459 699.179688 Z M 459 685 " clip-rule="nonzero"/></clipPath><clipPath id="5827c4503e"><path d="M 405 685 L 419 685 L 419 699.179688 L 405 699.179688 Z M 405 685 " clip-rule="nonzero"/></clipPath><clipPath id="d5fc5d9d46"><path d="M 364 685 L 378 685 L 378 699.179688 L 364 699.179688 Z M 364 685 " clip-rule="nonzero"/></clipPath><clipPath id="3840d58781"><path d="M 310 685 L 338 685 L 338 699.179688 L 310 699.179688 Z M 310 685 " clip-rule="nonzero"/></clipPath><clipPath id="caf1797cc5"><path d="M 269 685 L 297 685 L 297 699.179688 L 269 699.179688 Z M 269 685 " clip-rule="nonzero"/></clipPath><clipPath id="c81273016d"><path d="M 121 685 L 149 685 L 149 699.179688 L 121 699.179688 Z M 121 685 " clip-rule="nonzero"/></clipPath><clipPath id="ec14668a13"><path d="M 567 685 L 581 685 L 581 699.179688 L 567 699.179688 Z M 567 685 " clip-rule="nonzero"/></clipPath><clipPath id="972fc103c6"><path d="M 94.152344 631 L 149 631 L 149 699.179688 L 94.152344 699.179688 Z M 94.152344 631 " clip-rule="nonzero"/></clipPath><clipPath id="099a7fb96d"><path d="M 175 497 L 230 497 L 230 699.179688 L 175 699.179688 Z M 175 497 " clip-rule="nonzero"/></clipPath><clipPath id="8054f4dfd4"><path d="M 418 685 L 460 685 L 460 699.179688 L 418 699.179688 Z M 418 685 " clip-rule="nonzero"/></clipPath><clipPath id="178417ffa1"><path d="M 364 631 L 419 631 L 419 699.179688 L 364 699.179688 Z M 364 631 " clip-rule="nonzero"/></clipPath><clipPath id="eb955c53ad"><path d="M 337 685 L 365 685 L 365 699.179688 L 337 699.179688 Z M 337 685 " clip-rule="nonzero"/></clipPath><clipPath id="d34b0325e0"><path d="M 283 362 L 338 362 L 338 699.179688 L 283 699.179688 Z M 283 362 " clip-rule="nonzero"/></clipPath><clipPath id="b24d6cae25"><path d="M 242 685 L 270 685 L 270 699.179688 L 242 699.179688 Z M 242 685 " clip-rule="nonzero"/></clipPath><clipPath id="22bdbd8c87"><path d="M 148 685 L 176 685 L 176 699.179688 L 148 699.179688 Z M 148 685 " clip-rule="nonzero"/></clipPath><clipPath id="4061e93791"><path d="M 486 66.179688 L 514 66.179688 L 514 80 L 486 80 Z M 486 66.179688 " clip-rule="nonzero"/></clipPath><clipPath id="7c8ce76653"><path d="M 513 66.179688 L 527 66.179688 L 527 80 L 513 80 Z M 513 66.179688 " clip-rule="nonzero"/></clipPath><clipPath id="8bc890a405"><path d="M 459 66.179688 L 487 66.179688 L 487 80 L 459 80 Z M 459 66.179688 " clip-rule="nonzero"/></clipPath></defs><path stroke-linecap="butt" transform="matrix(0.75, 0, 0, 0.75, 275.39999, 403.5)" fill="none" stroke-linejoin="miter" d="M -0.00206953 2.000001 L 345.602115 2.000001 " stroke="#ffffff" stroke-width="4" stroke-opacity="1" stroke-miterlimit="4"/><g clip-path="url(#8239f986ce)"><path fill="#ff8800" d="M 702.375 510.589844 L 702.375 497.144531 L 580.714844 497.144531 L 580.714844 483.65625 L 594.242188 483.65625 L 594.242188 443.273438 L 580.714844 443.273438 L 580.714844 416.339844 L 594.242188 416.339844 L 594.242188 375.957031 L 580.714844 375.957031 L 580.714844 349.023438 L 594.242188 349.023438 L 594.242188 308.601562 L 580.714844 308.601562 L 580.714844 295.152344 L 526.648438 295.152344 L 526.648438 281.664062 L 553.703125 281.664062 L 553.703125 268.21875 L 567.1875 268.21875 L 567.1875 254.730469 L 580.714844 254.730469 L 580.714844 241.28125 L 594.242188 241.28125 L 594.242188 214.347656 L 607.769531 214.347656 L 607.769531 147.03125 L 594.242188 147.03125 L 594.242188 120.097656 L 580.714844 120.097656 L 580.714844 106.609375 L 567.1875 106.609375 L 567.1875 93.164062 L 553.703125 93.164062 L 553.703125 79.675781 L 526.648438 79.675781 L 526.648438 66.226562 L 459.09375 66.226562 L 459.09375 79.675781 L 432.039062 79.675781 L 432.039062 93.164062 L 418.554688 93.164062 L 418.554688 106.609375 L 405.027344 106.609375 L 405.027344 120.097656 L 391.5 120.097656 L 391.5 147.03125 L 377.972656 147.03125 L 377.972656 214.347656 L 391.5 214.347656 L 391.5 241.28125 L 405.027344 241.28125 L 405.027344 254.730469 L 418.554688 254.730469 L 418.554688 268.21875 L 432.039062 268.21875 L 432.039062 281.664062 L 459.09375 281.664062 L 459.09375 295.152344 L 377.972656 295.152344 L 377.972656 308.601562 L 364.445312 308.601562 L 364.445312 349.023438 L 377.972656 349.023438 L 377.972656 362.46875 L 296.894531 362.46875 L 296.894531 375.957031 L 283.367188 375.957031 L 283.367188 416.339844 L 296.894531 416.339844 L 296.894531 443.273438 L 283.367188 443.273438 L 283.367188 483.65625 L 296.894531 483.65625 L 296.894531 497.144531 L 188.761719 497.144531 L 188.761719 510.589844 L 175.234375 510.589844 L 175.234375 551.015625 L 188.761719 551.015625 L 188.761719 577.949219 L 175.234375 577.949219 L 175.234375 618.332031 L 188.761719 618.332031 L 188.761719 631.777344 L 107.679688 631.777344 L 107.679688 645.265625 L 94.152344 645.265625 L 94.152344 685.644531 L 107.679688 685.644531 L 107.679688 699.136719 L 580.714844 699.136719 L 580.714844 699.113281 L 702.375 699.113281 L 702.375 685.625 L 715.902344 685.625 L 715.902344 645.246094 L 702.375 645.246094 L 702.375 618.308594 L 715.902344 618.308594 L 715.902344 577.925781 L 702.375 577.925781 L 702.375 550.972656 L 715.902344 550.972656 L 715.902344 510.589844 Z M 702.375 510.589844 " fill-opacity="1" fill-rule="nonzero"/></g><g clip-path="url(#7196348849)"><path fill="#ffffff" d="M 702.375 645.246094 L 715.902344 645.246094 L 715.902344 658.734375 L 702.375 658.734375 Z M 702.375 645.246094 " fill-opacity="1" fill-rule="nonzero"/></g><path fill="#ffffff" d="M 661.835938 658.734375 L 661.835938 685.625 L 675.363281 685.625 L 675.363281 645.246094 L 661.835938 645.246094 Z M 661.835938 658.734375 " fill-opacity="1" fill-rule="nonzero"/><g clip-path="url(#139bb1b79d)"><path fill="#ffffff" d="M 702.375 577.925781 L 715.902344 577.925781 L 715.902344 591.417969 L 702.375 591.417969 Z M 702.375 577.925781 " fill-opacity="1" fill-rule="nonzero"/></g><path fill="#ffffff" d="M 661.835938 591.417969 L 661.835938 618.308594 L 675.363281 618.308594 L 675.363281 577.925781 L 661.835938 577.925781 Z M 661.835938 591.417969 " fill-opacity="1" fill-rule="nonzero"/><g clip-path="url(#2ccbe22d21)"><path fill="#ffffff" d="M 702.375 510.589844 L 715.902344 510.589844 L 715.902344 524.078125 L 702.375 524.078125 Z M 702.375 510.589844 " fill-opacity="1" fill-rule="nonzero"/></g><path fill="#ffffff" d="M 661.835938 524.078125 L 661.835938 550.972656 L 675.363281 550.972656 L 675.363281 510.589844 L 661.835938 510.589844 Z M 661.835938 524.078125 " fill-opacity="1" fill-rule="nonzero"/><g clip-path="url(#f8360037ff)"><path fill="#ffc400" d="M 702.375 645.246094 L 688.847656 645.246094 L 688.847656 685.625 L 715.902344 685.625 L 715.902344 658.734375 L 702.375 658.734375 Z M 702.375 645.246094 " fill-opacity="1" fill-rule="nonzero"/></g><g clip-path="url(#faefe78d73)"><path fill="#ffc400" d="M 661.835938 685.625 L 648.308594 685.625 L 648.308594 699.113281 L 688.847656 699.113281 L 688.847656 685.625 Z M 661.835938 685.625 " fill-opacity="1" fill-rule="nonzero"/></g><path fill="#ffc400" d="M 648.308594 658.734375 L 648.308594 645.246094 L 634.78125 645.246094 L 634.78125 685.625 L 648.308594 685.625 Z M 648.308594 658.734375 " fill-opacity="1" fill-rule="nonzero"/><path fill="#ffc400" d="M 607.769531 658.734375 L 607.769531 685.625 L 621.296875 685.625 L 621.296875 645.246094 L 607.769531 645.246094 Z M 607.769531 658.734375 " fill-opacity="1" fill-rule="nonzero"/><path fill="#ffc400" d="M 567.230469 645.246094 L 567.230469 685.625 L 594.242188 685.625 L 594.242188 645.246094 Z M 567.230469 645.246094 " fill-opacity="1" fill-rule="nonzero"/><path fill="#ffc400" d="M 526.691406 631.796875 L 526.691406 645.246094 L 553.703125 645.246094 L 553.703125 631.796875 Z M 526.691406 631.796875 " fill-opacity="1" fill-rule="nonzero"/><g clip-path="url(#104fc31ebd)"><path fill="#ffc400" d="M 702.375 577.925781 L 688.847656 577.925781 L 688.847656 618.308594 L 715.902344 618.308594 L 715.902344 591.417969 L 702.375 591.417969 Z M 702.375 577.925781 " fill-opacity="1" fill-rule="nonzero"/></g><path fill="#ffc400" d="M 661.835938 618.308594 L 648.308594 618.308594 L 648.308594 631.796875 L 688.847656 631.796875 L 688.847656 618.308594 Z M 661.835938 618.308594 " fill-opacity="1" fill-rule="nonzero"/><path fill="#ffc400" d="M 648.308594 591.417969 L 648.308594 577.925781 L 634.78125 577.925781 L 634.78125 618.308594 L 648.308594 618.308594 Z M 648.308594 591.417969 " fill-opacity="1" fill-rule="nonzero"/><path fill="#ffc400" d="M 607.769531 591.417969 L 607.769531 618.308594 L 621.296875 618.308594 L 621.296875 577.925781 L 607.769531 577.925781 Z M 607.769531 591.417969 " fill-opacity="1" fill-rule="nonzero"/><path fill="#ffc400" d="M 567.230469 577.925781 L 567.230469 618.308594 L 594.242188 618.308594 L 594.242188 577.925781 Z M 567.230469 577.925781 " fill-opacity="1" fill-rule="nonzero"/><path fill="#ffc400" d="M 526.691406 564.480469 L 526.691406 577.925781 L 553.703125 577.925781 L 553.703125 564.480469 Z M 526.691406 564.480469 " fill-opacity="1" fill-rule="nonzero"/><g clip-path="url(#9cbb04a4da)"><path fill="#ffc400" d="M 702.375 524.078125 L 702.375 510.589844 L 688.847656 510.589844 L 688.847656 550.972656 L 715.902344 550.972656 L 715.902344 524.078125 Z M 702.375 524.078125 " fill-opacity="1" fill-rule="nonzero"/></g><path fill="#ffc400" d="M 661.835938 550.972656 L 648.308594 550.972656 L 648.308594 564.460938 L 688.847656 564.460938 L 688.847656 550.972656 Z M 661.835938 550.972656 " fill-opacity="1" fill-rule="nonzero"/><path fill="#ffc400" d="M 648.308594 524.078125 L 648.308594 510.589844 L 634.78125 510.589844 L 634.78125 550.972656 L 648.308594 550.972656 Z M 648.308594 524.078125 " fill-opacity="1" fill-rule="nonzero"/><path fill="#ffc400" d="M 607.769531 524.078125 L 607.769531 550.972656 L 621.296875 550.972656 L 621.296875 510.589844 L 607.769531 510.589844 Z M 607.769531 524.078125 " fill-opacity="1" fill-rule="nonzero"/><path fill="#ffc400" d="M 567.230469 510.589844 L 567.230469 550.972656 L 594.242188 550.972656 L 594.242188 510.589844 Z M 567.230469 510.589844 " fill-opacity="1" fill-rule="nonzero"/><path fill="#ffc400" d="M 526.691406 497.144531 L 526.691406 510.589844 L 553.703125 510.589844 L 553.703125 497.144531 Z M 526.691406 497.144531 " fill-opacity="1" fill-rule="nonzero"/><path fill="#ffeb52" d="M 675.363281 631.796875 L 607.769531 631.796875 L 607.769531 645.246094 L 621.296875 645.246094 L 621.296875 685.625 L 634.78125 685.625 L 634.78125 645.246094 L 648.308594 645.246094 L 648.308594 685.625 L 661.835938 685.625 L 661.835938 645.246094 L 675.363281 645.246094 L 675.363281 685.625 L 688.847656 685.625 L 688.847656 645.246094 L 702.375 645.246094 L 702.375 631.796875 Z M 675.363281 631.796875 " fill-opacity="1" fill-rule="nonzero"/><path fill="#ffeb52" d="M 553.703125 631.796875 L 553.703125 645.246094 L 580.714844 645.246094 L 580.714844 631.796875 Z M 553.703125 631.796875 " fill-opacity="1" fill-rule="nonzero"/><path fill="#ffeb52" d="M 513.164062 631.796875 L 526.691406 631.796875 L 526.691406 645.246094 L 513.164062 645.246094 Z M 513.164062 631.796875 " fill-opacity="1" fill-rule="nonzero"/><path fill="#ffeb52" d="M 675.363281 564.480469 L 607.769531 564.480469 L 607.769531 577.925781 L 621.296875 577.925781 L 621.296875 618.308594 L 634.78125 618.308594 L 634.78125 577.925781 L 648.308594 577.925781 L 648.308594 618.308594 L 661.835938 618.308594 L 661.835938 577.925781 L 675.363281 577.925781 L 675.363281 618.308594 L 688.847656 618.308594 L 688.847656 577.925781 L 702.375 577.925781 L 702.375 564.480469 Z M 675.363281 564.480469 " fill-opacity="1" fill-rule="nonzero"/><path fill="#ffeb52" d="M 553.703125 564.480469 L 553.703125 577.925781 L 580.714844 577.925781 L 580.714844 564.480469 Z M 553.703125 564.480469 " fill-opacity="1" fill-rule="nonzero"/><path fill="#ffeb52" d="M 513.164062 564.480469 L 526.691406 564.480469 L 526.691406 577.925781 L 513.164062 577.925781 Z M 513.164062 564.480469 " fill-opacity="1" fill-rule="nonzero"/><path fill="#ffeb52" d="M 688.847656 497.144531 L 607.769531 497.144531 L 607.769531 510.589844 L 621.296875 510.589844 L 621.296875 550.972656 L 634.78125 550.972656 L 634.78125 510.589844 L 648.308594 510.589844 L 648.308594 550.972656 L 661.835938 550.972656 L 661.835938 510.589844 L 675.363281 510.589844 L 675.363281 550.972656 L 688.847656 550.972656 L 688.847656 510.589844 L 702.375 510.589844 L 702.375 497.144531 Z M 688.847656 497.144531 " fill-opacity="1" fill-rule="nonzero"/><path fill="#ffeb52" d="M 553.703125 497.144531 L 553.703125 510.589844 L 580.714844 510.589844 L 580.714844 497.144531 Z M 553.703125 497.144531 " fill-opacity="1" fill-rule="nonzero"/><path fill="#ffeb52" d="M 513.164062 497.144531 L 526.691406 497.144531 L 526.691406 510.589844 L 513.164062 510.589844 Z M 513.164062 497.144531 " fill-opacity="1" fill-rule="nonzero"/><g clip-path="url(#ecc2685b52)"><path fill="#ff8800" d="M 688.847656 685.625 L 702.375 685.625 L 702.375 699.113281 L 688.847656 699.113281 Z M 688.847656 685.625 " fill-opacity="1" fill-rule="nonzero"/></g><path fill="#ff8800" d="M 540.175781 645.246094 L 540.175781 685.625 L 567.230469 685.625 L 567.230469 645.246094 Z M 540.175781 645.246094 " fill-opacity="1" fill-rule="nonzero"/><g clip-path="url(#3c9fa6153e)"><path fill="#ff8800" d="M 513.164062 685.625 L 499.636719 685.625 L 499.636719 699.113281 L 540.175781 699.113281 L 540.175781 685.625 Z M 513.164062 685.625 " fill-opacity="1" fill-rule="nonzero"/></g><path fill="#ff8800" d="M 688.847656 618.308594 L 702.375 618.308594 L 702.375 631.796875 L 688.847656 631.796875 Z M 688.847656 618.308594 " fill-opacity="1" fill-rule="nonzero"/><g clip-path="url(#e7403ca5a4)"><path fill="#ff8800" d="M 621.296875 618.308594 L 607.769531 618.308594 L 607.769531 564.480469 L 580.714844 564.480469 L 580.714844 577.925781 L 594.242188 577.925781 L 594.242188 618.308594 L 580.714844 618.308594 L 580.714844 645.246094 L 594.242188 645.246094 L 594.242188 685.625 L 580.714844 685.625 L 580.714844 699.113281 L 648.308594 699.113281 L 648.308594 685.625 L 607.769531 685.625 L 607.769531 631.796875 L 648.308594 631.796875 L 648.308594 618.308594 Z M 621.296875 618.308594 " fill-opacity="1" fill-rule="nonzero"/></g><path fill="#ff8800" d="M 540.175781 577.925781 L 540.175781 618.308594 L 567.230469 618.308594 L 567.230469 577.925781 Z M 540.175781 577.925781 " fill-opacity="1" fill-rule="nonzero"/><path fill="#ff8800" d="M 513.164062 618.308594 L 499.636719 618.308594 L 499.636719 631.796875 L 540.175781 631.796875 L 540.175781 618.308594 Z M 513.164062 618.308594 " fill-opacity="1" fill-rule="nonzero"/><path fill="#ff8800" d="M 688.847656 550.972656 L 702.375 550.972656 L 702.375 564.460938 L 688.847656 564.460938 Z M 688.847656 550.972656 " fill-opacity="1" fill-rule="nonzero"/><path fill="#ff8800" d="M 621.296875 550.972656 L 607.769531 550.972656 L 607.769531 497.144531 L 580.714844 497.144531 L 580.714844 510.589844 L 594.242188 510.589844 L 594.242188 550.972656 L 580.714844 550.972656 L 580.714844 564.460938 L 648.308594 564.460938 L 648.308594 550.972656 Z M 621.296875 550.972656 " fill-opacity="1" fill-rule="nonzero"/><path fill="#ff8800" d="M 540.175781 510.589844 L 540.175781 550.972656 L 567.230469 550.972656 L 567.230469 510.589844 Z M 540.175781 510.589844 " fill-opacity="1" fill-rule="nonzero"/><path fill="#ff8800" d="M 513.164062 550.972656 L 499.636719 550.972656 L 499.636719 564.460938 L 540.175781 564.460938 L 540.175781 550.972656 Z M 513.164062 550.972656 " fill-opacity="1" fill-rule="nonzero"/><g clip-path="url(#fc22516481)"><path fill="#de4e00" d="M 553.703125 685.625 L 540.175781 685.625 L 540.175781 699.113281 L 580.714844 699.113281 L 580.714844 685.625 Z M 553.703125 685.625 " fill-opacity="1" fill-rule="nonzero"/></g><path fill="#de4e00" d="M 540.175781 658.734375 L 540.175781 645.246094 L 513.164062 645.246094 L 513.164062 631.796875 L 499.636719 631.796875 L 499.636719 645.246094 L 486.109375 645.246094 L 486.109375 685.625 L 540.175781 685.625 Z M 540.175781 658.734375 " fill-opacity="1" fill-rule="nonzero"/><path fill="#de4e00" d="M 553.703125 618.308594 L 540.175781 618.308594 L 540.175781 631.796875 L 580.714844 631.796875 L 580.714844 618.308594 Z M 553.703125 618.308594 " fill-opacity="1" fill-rule="nonzero"/><path fill="#de4e00" d="M 540.175781 591.417969 L 540.175781 577.925781 L 513.164062 577.925781 L 513.164062 564.480469 L 499.636719 564.480469 L 499.636719 577.925781 L 486.109375 577.925781 L 486.109375 618.308594 L 540.175781 618.308594 Z M 540.175781 591.417969 " fill-opacity="1" fill-rule="nonzero"/><path fill="#de4e00" d="M 567.230469 550.972656 L 540.175781 550.972656 L 540.175781 564.460938 L 580.714844 564.460938 L 580.714844 550.972656 Z M 567.230469 550.972656 " fill-opacity="1" fill-rule="nonzero"/><path fill="#de4e00" d="M 540.175781 524.078125 L 540.175781 510.589844 L 513.164062 510.589844 L 513.164062 497.144531 L 499.636719 497.144531 L 499.636719 510.589844 L 486.109375 510.589844 L 486.109375 550.972656 L 540.175781 550.972656 Z M 540.175781 524.078125 " fill-opacity="1" fill-rule="nonzero"/><path fill="#ffffff" d="M 580.714844 645.265625 L 594.242188 645.265625 L 594.242188 658.710938 L 580.714844 658.710938 Z M 580.714844 645.265625 " fill-opacity="1" fill-rule="nonzero"/><path fill="#ffffff" d="M 580.714844 577.949219 L 594.242188 577.949219 L 594.242188 591.394531 L 580.714844 591.394531 Z M 580.714844 577.949219 " fill-opacity="1" fill-rule="nonzero"/><path fill="#ffffff" d="M 580.714844 510.589844 L 594.242188 510.589844 L 594.242188 524.078125 L 580.714844 524.078125 Z M 580.714844 510.589844 " fill-opacity="1" fill-rule="nonzero"/><path fill="#ffffff" d="M 580.714844 443.273438 L 594.242188 443.273438 L 594.242188 456.71875 L 580.714844 456.71875 Z M 580.714844 443.273438 " fill-opacity="1" fill-rule="nonzero"/><path fill="#ffffff" d="M 580.714844 375.957031 L 594.242188 375.957031 L 594.242188 389.40625 L 580.714844 389.40625 Z M 580.714844 375.957031 " fill-opacity="1" fill-rule="nonzero"/><path fill="#ffffff" d="M 540.175781 658.710938 L 540.175781 685.644531 L 553.703125 685.644531 L 553.703125 645.265625 L 540.175781 645.265625 Z M 540.175781 658.710938 " fill-opacity="1" fill-rule="nonzero"/><path fill="#ffffff" d="M 540.175781 591.394531 L 540.175781 618.332031 L 553.703125 618.332031 L 553.703125 577.949219 L 540.175781 577.949219 Z M 540.175781 591.394531 " fill-opacity="1" fill-rule="nonzero"/><path fill="#ffffff" d="M 540.175781 524.078125 L 540.175781 551.015625 L 553.703125 551.015625 L 553.703125 510.589844 L 540.175781 510.589844 Z M 540.175781 524.078125 " fill-opacity="1" fill-rule="nonzero"/><path fill="#ffffff" d="M 540.175781 456.71875 L 540.175781 483.65625 L 553.703125 483.65625 L 553.703125 443.273438 L 540.175781 443.273438 Z M 540.175781 456.71875 " fill-opacity="1" fill-rule="nonzero"/><path fill="#ffffff" d="M 540.175781 389.40625 L 540.175781 416.339844 L 553.703125 416.339844 L 553.703125 375.957031 L 540.175781 375.957031 Z M 540.175781 389.40625 " fill-opacity="1" fill-rule="nonzero"/><path fill="#ffffff" d="M 580.714844 308.601562 L 594.242188 308.601562 L 594.242188 322.089844 L 580.714844 322.089844 Z M 580.714844 308.601562 " fill-opacity="1" fill-rule="nonzero"/><path fill="#ffffff" d="M 540.175781 322.089844 L 540.175781 349.023438 L 553.703125 349.023438 L 553.703125 308.601562 L 540.175781 308.601562 Z M 540.175781 322.089844 " fill-opacity="1" fill-rule="nonzero"/><path fill="#ffc400" d="M 269.839844 658.710938 L 269.839844 685.644531 L 283.367188 685.644531 L 283.367188 645.265625 L 269.839844 645.265625 Z M 269.839844 658.710938 " fill-opacity="1" fill-rule="nonzero"/><path fill="#ffc400" d="M 269.839844 591.394531 L 269.839844 618.332031 L 283.367188 618.332031 L 283.367188 577.949219 L 269.839844 577.949219 Z M 269.839844 591.394531 " fill-opacity="1" fill-rule="nonzero"/><path fill="#ffc400" d="M 269.839844 524.078125 L 269.839844 551.015625 L 283.367188 551.015625 L 283.367188 510.589844 L 269.839844 510.589844 Z M 269.839844 524.078125 " fill-opacity="1" fill-rule="nonzero"/><path fill="#ffc400" d="M 283.367188 497.144531 L 296.894531 497.144531 L 296.894531 510.589844 L 283.367188 510.589844 Z M 283.367188 497.144531 " fill-opacity="1" fill-rule="nonzero"/><path fill="#ffc400" d="M 283.367188 564.460938 L 296.894531 564.460938 L 296.894531 577.949219 L 283.367188 577.949219 Z M 283.367188 564.460938 " fill-opacity="1" fill-rule="nonzero"/><path fill="#ffc400" d="M 283.367188 631.777344 L 296.894531 631.777344 L 296.894531 645.265625 L 283.367188 645.265625 Z M 283.367188 631.777344 " fill-opacity="1" fill-rule="nonzero"/><path fill="#ffc400" d="M 567.1875 658.710938 L 567.1875 685.644531 L 580.714844 685.644531 L 580.714844 645.265625 L 567.1875 645.265625 Z M 567.1875 658.710938 " fill-opacity="1" fill-rule="nonzero"/><path fill="#ffc400" d="M 567.1875 591.394531 L 567.1875 618.332031 L 580.714844 618.332031 L 580.714844 577.949219 L 567.1875 577.949219 Z M 567.1875 591.394531 " fill-opacity="1" fill-rule="nonzero"/><path fill="#ffc400" d="M 567.1875 524.078125 L 567.1875 551.015625 L 580.714844 551.015625 L 580.714844 510.589844 L 567.1875 510.589844 Z M 567.1875 524.078125 " fill-opacity="1" fill-rule="nonzero"/><path fill="#ffc400" d="M 580.714844 443.273438 L 567.1875 443.273438 L 567.1875 483.65625 L 594.242188 483.65625 L 594.242188 456.71875 L 580.714844 456.71875 Z M 580.714844 443.273438 " fill-opacity="1" fill-rule="nonzero"/><path fill="#ffc400" d="M 580.714844 375.957031 L 567.1875 375.957031 L 567.1875 416.339844 L 594.242188 416.339844 L 594.242188 389.40625 L 580.714844 389.40625 Z M 580.714844 375.957031 " fill-opacity="1" fill-rule="nonzero"/><g clip-path="url(#21bd4db2dc)"><path fill="#ffc400" d="M 540.175781 685.644531 L 526.648438 685.644531 L 526.648438 699.136719 L 567.1875 699.136719 L 567.1875 685.644531 Z M 540.175781 685.644531 " fill-opacity="1" fill-rule="nonzero"/></g><path fill="#ffc400" d="M 540.175781 618.332031 L 526.648438 618.332031 L 526.648438 631.777344 L 567.1875 631.777344 L 567.1875 618.332031 Z M 540.175781 618.332031 " fill-opacity="1" fill-rule="nonzero"/><path fill="#ffc400" d="M 540.175781 551.015625 L 526.648438 551.015625 L 526.648438 564.460938 L 567.1875 564.460938 L 567.1875 551.015625 Z M 540.175781 551.015625 " fill-opacity="1" fill-rule="nonzero"/><path fill="#ffc400" d="M 540.175781 483.65625 L 526.648438 483.65625 L 526.648438 497.144531 L 567.1875 497.144531 L 567.1875 483.65625 Z M 540.175781 483.65625 " fill-opacity="1" fill-rule="nonzero"/><path fill="#ffc400" d="M 540.175781 416.339844 L 526.648438 416.339844 L 526.648438 429.828125 L 567.1875 429.828125 L 567.1875 416.339844 Z M 540.175781 416.339844 " fill-opacity="1" fill-rule="nonzero"/><path fill="#ffc400" d="M 526.648438 658.710938 L 526.648438 645.265625 L 513.121094 645.265625 L 513.121094 685.644531 L 526.648438 685.644531 Z M 526.648438 658.710938 " fill-opacity="1" fill-rule="nonzero"/><path fill="#ffc400" d="M 526.648438 591.394531 L 526.648438 577.949219 L 513.121094 577.949219 L 513.121094 618.332031 L 526.648438 618.332031 Z M 526.648438 591.394531 " fill-opacity="1" fill-rule="nonzero"/><path fill="#ffc400" d="M 526.648438 524.078125 L 526.648438 510.589844 L 513.121094 510.589844 L 513.121094 551.015625 L 526.648438 551.015625 Z M 526.648438 524.078125 " fill-opacity="1" fill-rule="nonzero"/><path fill="#ffc400" d="M 526.648438 456.71875 L 526.648438 443.273438 L 513.121094 443.273438 L 513.121094 483.65625 L 526.648438 483.65625 Z M 526.648438 456.71875 " fill-opacity="1" fill-rule="nonzero"/><path fill="#ffc400" d="M 526.648438 389.40625 L 526.648438 375.957031 L 513.121094 375.957031 L 513.121094 416.339844 L 526.648438 416.339844 Z M 526.648438 389.40625 " fill-opacity="1" fill-rule="nonzero"/><path fill="#ffc400" d="M 486.109375 631.777344 L 459.054688 631.777344 L 459.054688 645.265625 L 445.566406 645.265625 L 445.566406 685.644531 L 499.636719 685.644531 L 499.636719 645.265625 L 486.109375 645.265625 Z M 486.109375 631.777344 " fill-opacity="1" fill-rule="nonzero"/><path fill="#ffc400" d="M 486.109375 564.460938 L 459.054688 564.460938 L 459.054688 577.949219 L 445.566406 577.949219 L 445.566406 618.332031 L 499.636719 618.332031 L 499.636719 577.949219 L 486.109375 577.949219 Z M 486.109375 564.460938 " fill-opacity="1" fill-rule="nonzero"/><path fill="#ffc400" d="M 486.109375 497.144531 L 459.054688 497.144531 L 459.054688 510.589844 L 445.566406 510.589844 L 445.566406 551.015625 L 499.636719 551.015625 L 499.636719 510.589844 L 486.109375 510.589844 Z M 486.109375 497.144531 " fill-opacity="1" fill-rule="nonzero"/><path fill="#ffc400" d="M 486.109375 429.828125 L 459.054688 429.828125 L 459.054688 443.273438 L 445.566406 443.273438 L 445.566406 483.65625 L 499.636719 483.65625 L 499.636719 443.273438 L 486.109375 443.273438 Z M 486.109375 429.828125 " fill-opacity="1" fill-rule="nonzero"/><path fill="#ffc400" d="M 486.109375 362.46875 L 459.054688 362.46875 L 459.054688 375.957031 L 445.566406 375.957031 L 445.566406 416.339844 L 499.636719 416.339844 L 499.636719 375.957031 L 486.109375 375.957031 Z M 486.109375 362.46875 " fill-opacity="1" fill-rule="nonzero"/><path fill="#ffc400" d="M 405.027344 631.777344 L 405.027344 645.265625 L 432.039062 645.265625 L 432.039062 631.777344 Z M 405.027344 631.777344 " fill-opacity="1" fill-rule="nonzero"/><path fill="#ffc400" d="M 405.027344 564.460938 L 405.027344 577.949219 L 432.039062 577.949219 L 432.039062 564.460938 Z M 405.027344 564.460938 " fill-opacity="1" fill-rule="nonzero"/><path fill="#ffc400" d="M 405.027344 497.144531 L 405.027344 510.589844 L 432.039062 510.589844 L 432.039062 497.144531 Z M 405.027344 497.144531 " fill-opacity="1" fill-rule="nonzero"/><path fill="#ffc400" d="M 405.027344 429.828125 L 405.027344 443.273438 L 432.039062 443.273438 L 432.039062 429.828125 Z M 405.027344 429.828125 " fill-opacity="1" fill-rule="nonzero"/><path fill="#ffc400" d="M 405.027344 362.46875 L 405.027344 375.957031 L 432.039062 375.957031 L 432.039062 362.46875 Z M 405.027344 362.46875 " fill-opacity="1" fill-rule="nonzero"/><path fill="#ffc400" d="M 580.714844 322.089844 L 580.714844 308.601562 L 567.1875 308.601562 L 567.1875 349.023438 L 594.242188 349.023438 L 594.242188 322.089844 Z M 580.714844 322.089844 " fill-opacity="1" fill-rule="nonzero"/><path fill="#ffc400" d="M 540.175781 349.023438 L 526.648438 349.023438 L 526.648438 362.46875 L 567.1875 362.46875 L 567.1875 349.023438 Z M 540.175781 349.023438 " fill-opacity="1" fill-rule="nonzero"/><path fill="#ffc400" d="M 526.648438 322.089844 L 526.648438 308.601562 L 513.121094 308.601562 L 513.121094 349.023438 L 526.648438 349.023438 Z M 526.648438 322.089844 " fill-opacity="1" fill-rule="nonzero"/><path fill="#ffc400" d="M 486.109375 295.152344 L 459.054688 295.152344 L 459.054688 308.601562 L 445.566406 308.601562 L 445.566406 349.023438 L 499.636719 349.023438 L 499.636719 308.601562 L 486.109375 308.601562 Z M 486.109375 295.152344 " fill-opacity="1" fill-rule="nonzero"/><path fill="#ffc400" d="M 405.027344 295.152344 L 405.027344 308.601562 L 432.039062 308.601562 L 432.039062 295.152344 Z M 405.027344 295.152344 " fill-opacity="1" fill-rule="nonzero"/><path fill="#ffc400" d="M 350.960938 631.777344 L 323.90625 631.777344 L 323.90625 645.265625 L 377.972656 645.265625 L 377.972656 631.777344 Z M 350.960938 631.777344 " fill-opacity="1" fill-rule="nonzero"/><path fill="#ffc400" d="M 350.960938 564.460938 L 323.90625 564.460938 L 323.90625 577.949219 L 377.972656 577.949219 L 377.972656 564.460938 Z M 350.960938 564.460938 " fill-opacity="1" fill-rule="nonzero"/><path fill="#ffc400" d="M 350.960938 497.144531 L 323.90625 497.144531 L 323.90625 510.589844 L 377.972656 510.589844 L 377.972656 497.144531 Z M 350.960938 497.144531 " fill-opacity="1" fill-rule="nonzero"/><path fill="#ffc400" d="M 350.960938 429.828125 L 323.90625 429.828125 L 323.90625 443.273438 L 377.972656 443.273438 L 377.972656 429.828125 Z M 350.960938 429.828125 " fill-opacity="1" fill-rule="nonzero"/><path fill="#ffc400" d="M 350.960938 362.46875 L 323.90625 362.46875 L 323.90625 375.957031 L 377.972656 375.957031 L 377.972656 362.46875 Z M 350.960938 362.46875 " fill-opacity="1" fill-rule="nonzero"/><path fill="#ffc400" d="M 256.355469 631.777344 L 215.773438 631.777344 L 215.773438 645.265625 L 269.839844 645.265625 L 269.839844 631.777344 Z M 256.355469 631.777344 " fill-opacity="1" fill-rule="nonzero"/><path fill="#ffc400" d="M 256.355469 564.460938 L 215.773438 564.460938 L 215.773438 577.949219 L 269.839844 577.949219 L 269.839844 564.460938 Z M 256.355469 564.460938 " fill-opacity="1" fill-rule="nonzero"/><path fill="#ffc400" d="M 256.355469 497.144531 L 215.773438 497.144531 L 215.773438 510.589844 L 269.839844 510.589844 L 269.839844 497.144531 Z M 256.355469 497.144531 " fill-opacity="1" fill-rule="nonzero"/><path fill="#ffc400" d="M 134.691406 631.777344 L 134.691406 645.265625 L 161.746094 645.265625 L 161.746094 631.777344 Z M 134.691406 631.777344 " fill-opacity="1" fill-rule="nonzero"/><path fill="#ff8800" d="M 148.21875 645.265625 L 148.21875 685.644531 L 175.234375 685.644531 L 175.234375 645.265625 Z M 148.21875 645.265625 " fill-opacity="1" fill-rule="nonzero"/><g clip-path="url(#9681db9a24)"><path fill="#ff8800" d="M 175.234375 685.644531 L 188.761719 685.644531 L 188.761719 699.136719 L 175.234375 699.136719 Z M 175.234375 685.644531 " fill-opacity="1" fill-rule="nonzero"/></g><path fill="#ff8800" d="M 175.234375 631.777344 L 188.761719 631.777344 L 188.761719 645.265625 L 175.234375 645.265625 Z M 175.234375 631.777344 " fill-opacity="1" fill-rule="nonzero"/><g clip-path="url(#e2970a7de3)"><path fill="#ff8800" d="M 269.839844 658.710938 L 269.839844 645.265625 L 229.300781 645.265625 L 229.300781 685.644531 L 202.289062 685.644531 L 202.289062 699.136719 L 242.828125 699.136719 L 242.828125 685.644531 L 269.839844 685.644531 Z M 269.839844 658.710938 " fill-opacity="1" fill-rule="nonzero"/></g><path fill="#ff8800" d="M 269.839844 591.394531 L 269.839844 577.949219 L 229.300781 577.949219 L 229.300781 618.332031 L 202.289062 618.332031 L 202.289062 631.777344 L 242.828125 631.777344 L 242.828125 618.332031 L 269.839844 618.332031 Z M 269.839844 591.394531 " fill-opacity="1" fill-rule="nonzero"/><path fill="#ff8800" d="M 269.839844 524.078125 L 269.839844 510.589844 L 229.300781 510.589844 L 229.300781 551.015625 L 202.289062 551.015625 L 202.289062 564.460938 L 242.828125 564.460938 L 242.828125 551.015625 L 269.839844 551.015625 Z M 269.839844 524.078125 " fill-opacity="1" fill-rule="nonzero"/><path fill="#ff8800" d="M 567.1875 483.65625 L 580.714844 483.65625 L 580.714844 497.144531 L 567.1875 497.144531 Z M 567.1875 483.65625 " fill-opacity="1" fill-rule="nonzero"/><path fill="#ff8800" d="M 567.1875 416.339844 L 580.714844 416.339844 L 580.714844 429.828125 L 567.1875 429.828125 Z M 567.1875 416.339844 " fill-opacity="1" fill-rule="nonzero"/><g clip-path="url(#17e004bacc)"><path fill="#ff8800" d="M 499.636719 685.644531 L 459.054688 685.644531 L 459.054688 699.136719 L 526.648438 699.136719 L 526.648438 685.644531 Z M 499.636719 685.644531 " fill-opacity="1" fill-rule="nonzero"/></g><path fill="#ff8800" d="M 499.636719 618.332031 L 459.054688 618.332031 L 459.054688 631.777344 L 526.648438 631.777344 L 526.648438 618.332031 Z M 499.636719 618.332031 " fill-opacity="1" fill-rule="nonzero"/><path fill="#ff8800" d="M 499.636719 551.015625 L 459.054688 551.015625 L 459.054688 564.460938 L 526.648438 564.460938 L 526.648438 551.015625 Z M 499.636719 551.015625 " fill-opacity="1" fill-rule="nonzero"/><path fill="#ff8800" d="M 499.636719 483.65625 L 459.054688 483.65625 L 459.054688 497.144531 L 526.648438 497.144531 L 526.648438 483.65625 Z M 499.636719 483.65625 " fill-opacity="1" fill-rule="nonzero"/><path fill="#ff8800" d="M 499.636719 416.339844 L 459.054688 416.339844 L 459.054688 429.828125 L 526.648438 429.828125 L 526.648438 416.339844 Z M 499.636719 416.339844 " fill-opacity="1" fill-rule="nonzero"/><path fill="#ff8800" d="M 418.511719 645.265625 L 418.511719 685.644531 L 445.566406 685.644531 L 445.566406 645.265625 Z M 418.511719 645.265625 " fill-opacity="1" fill-rule="nonzero"/><path fill="#ff8800" d="M 418.511719 577.949219 L 418.511719 618.332031 L 445.566406 618.332031 L 445.566406 577.949219 Z M 418.511719 577.949219 " fill-opacity="1" fill-rule="nonzero"/><path fill="#ff8800" d="M 418.511719 510.589844 L 418.511719 551.015625 L 445.566406 551.015625 L 445.566406 510.589844 Z M 418.511719 510.589844 " fill-opacity="1" fill-rule="nonzero"/><path fill="#ff8800" d="M 418.511719 443.273438 L 418.511719 483.65625 L 445.566406 483.65625 L 445.566406 443.273438 Z M 418.511719 443.273438 " fill-opacity="1" fill-rule="nonzero"/><path fill="#ff8800" d="M 418.511719 375.957031 L 418.511719 416.339844 L 445.566406 416.339844 L 445.566406 375.957031 Z M 418.511719 375.957031 " fill-opacity="1" fill-rule="nonzero"/><g clip-path="url(#5827c4503e)"><path fill="#ff8800" d="M 405.027344 685.644531 L 418.511719 685.644531 L 418.511719 699.136719 L 405.027344 699.136719 Z M 405.027344 685.644531 " fill-opacity="1" fill-rule="nonzero"/></g><path fill="#ff8800" d="M 391.5 618.332031 L 364.445312 618.332031 L 364.445312 631.777344 L 418.511719 631.777344 L 418.511719 618.332031 Z M 391.5 618.332031 " fill-opacity="1" fill-rule="nonzero"/><path fill="#ff8800" d="M 391.5 551.015625 L 364.445312 551.015625 L 364.445312 564.460938 L 418.511719 564.460938 L 418.511719 551.015625 Z M 391.5 551.015625 " fill-opacity="1" fill-rule="nonzero"/><path fill="#ff8800" d="M 391.5 483.65625 L 364.445312 483.65625 L 364.445312 497.144531 L 418.511719 497.144531 L 418.511719 483.65625 Z M 391.5 483.65625 " fill-opacity="1" fill-rule="nonzero"/><path fill="#ff8800" d="M 391.5 416.339844 L 364.445312 416.339844 L 364.445312 429.828125 L 418.511719 429.828125 L 418.511719 416.339844 Z M 391.5 416.339844 " fill-opacity="1" fill-rule="nonzero"/><g clip-path="url(#d5fc5d9d46)"><path fill="#ff8800" d="M 364.445312 685.644531 L 377.972656 685.644531 L 377.972656 699.136719 L 364.445312 699.136719 Z M 364.445312 685.644531 " fill-opacity="1" fill-rule="nonzero"/></g><path fill="#ff8800" d="M 567.1875 349.023438 L 580.714844 349.023438 L 580.714844 362.46875 L 567.1875 362.46875 Z M 567.1875 349.023438 " fill-opacity="1" fill-rule="nonzero"/><path fill="#ff8800" d="M 499.636719 349.023438 L 459.054688 349.023438 L 459.054688 362.46875 L 526.648438 362.46875 L 526.648438 349.023438 Z M 499.636719 349.023438 " fill-opacity="1" fill-rule="nonzero"/><path fill="#ff8800" d="M 418.511719 308.601562 L 418.511719 349.023438 L 445.566406 349.023438 L 445.566406 308.601562 Z M 418.511719 308.601562 " fill-opacity="1" fill-rule="nonzero"/><path fill="#ff8800" d="M 391.5 349.023438 L 377.972656 349.023438 L 377.972656 362.46875 L 418.511719 362.46875 L 418.511719 349.023438 Z M 391.5 349.023438 " fill-opacity="1" fill-rule="nonzero"/><path fill="#ff8800" d="M 364.445312 658.710938 L 364.445312 645.265625 L 337.433594 645.265625 L 337.433594 685.644531 L 364.445312 685.644531 Z M 364.445312 658.710938 " fill-opacity="1" fill-rule="nonzero"/><path fill="#ff8800" d="M 364.445312 591.394531 L 364.445312 577.949219 L 337.433594 577.949219 L 337.433594 618.332031 L 364.445312 618.332031 Z M 364.445312 591.394531 " fill-opacity="1" fill-rule="nonzero"/><path fill="#ff8800" d="M 364.445312 524.078125 L 364.445312 510.589844 L 337.433594 510.589844 L 337.433594 551.015625 L 364.445312 551.015625 Z M 364.445312 524.078125 " fill-opacity="1" fill-rule="nonzero"/><path fill="#ff8800" d="M 364.445312 456.71875 L 364.445312 443.273438 L 337.433594 443.273438 L 337.433594 483.65625 L 364.445312 483.65625 Z M 364.445312 456.71875 " fill-opacity="1" fill-rule="nonzero"/><path fill="#ff8800" d="M 364.445312 389.40625 L 364.445312 375.957031 L 337.433594 375.957031 L 337.433594 416.339844 L 364.445312 416.339844 Z M 364.445312 389.40625 " fill-opacity="1" fill-rule="nonzero"/><g clip-path="url(#3840d58781)"><path fill="#ff8800" d="M 310.421875 685.644531 L 310.421875 699.136719 L 337.433594 699.136719 L 337.433594 685.644531 Z M 310.421875 685.644531 " fill-opacity="1" fill-rule="nonzero"/></g><path fill="#ff8800" d="M 310.421875 618.332031 L 310.421875 631.777344 L 337.433594 631.777344 L 337.433594 618.332031 Z M 310.421875 618.332031 " fill-opacity="1" fill-rule="nonzero"/><path fill="#ff8800" d="M 310.421875 551.015625 L 310.421875 564.460938 L 337.433594 564.460938 L 337.433594 551.015625 Z M 310.421875 551.015625 " fill-opacity="1" fill-rule="nonzero"/><path fill="#ff8800" d="M 310.421875 483.65625 L 310.421875 497.144531 L 337.433594 497.144531 L 337.433594 483.65625 Z M 310.421875 483.65625 " fill-opacity="1" fill-rule="nonzero"/><path fill="#ff8800" d="M 310.421875 416.339844 L 310.421875 429.828125 L 337.433594 429.828125 L 337.433594 416.339844 Z M 310.421875 416.339844 " fill-opacity="1" fill-rule="nonzero"/><g clip-path="url(#caf1797cc5)"><path fill="#ff8800" d="M 269.839844 685.644531 L 269.839844 699.136719 L 296.894531 699.136719 L 296.894531 685.644531 Z M 269.839844 685.644531 " fill-opacity="1" fill-rule="nonzero"/></g><path fill="#ff8800" d="M 269.839844 618.332031 L 269.839844 631.777344 L 296.894531 631.777344 L 296.894531 618.332031 Z M 269.839844 618.332031 " fill-opacity="1" fill-rule="nonzero"/><path fill="#ff8800" d="M 269.839844 551.015625 L 269.839844 564.460938 L 296.894531 564.460938 L 296.894531 551.015625 Z M 269.839844 551.015625 " fill-opacity="1" fill-rule="nonzero"/><g clip-path="url(#c81273016d)"><path fill="#ff8800" d="M 121.164062 685.644531 L 121.164062 699.136719 L 148.21875 699.136719 L 148.21875 685.644531 Z M 121.164062 685.644531 " fill-opacity="1" fill-rule="nonzero"/></g><path fill="#ffeb52" d="M 594.242188 672.199219 L 594.242188 658.710938 L 580.714844 658.710938 L 580.714844 685.644531 L 594.242188 685.644531 Z M 594.242188 672.199219 " fill-opacity="1" fill-rule="nonzero"/><path fill="#ffeb52" d="M 594.242188 604.882812 L 594.242188 591.394531 L 580.714844 591.394531 L 580.714844 618.332031 L 594.242188 618.332031 Z M 594.242188 604.882812 " fill-opacity="1" fill-rule="nonzero"/><path fill="#ffeb52" d="M 580.714844 524.078125 L 580.714844 551.015625 L 594.242188 551.015625 L 594.242188 524.078125 Z M 580.714844 524.078125 " fill-opacity="1" fill-rule="nonzero"/><g clip-path="url(#ec14668a13)"><path fill="#ffeb52" d="M 567.1875 685.644531 L 580.714844 685.644531 L 580.714844 699.136719 L 567.1875 699.136719 Z M 567.1875 685.644531 " fill-opacity="1" fill-rule="nonzero"/></g><path fill="#ffeb52" d="M 567.1875 564.460938 L 486.109375 564.460938 L 486.109375 577.949219 L 499.636719 577.949219 L 499.636719 618.332031 L 513.121094 618.332031 L 513.121094 577.949219 L 526.648438 577.949219 L 526.648438 618.332031 L 540.175781 618.332031 L 540.175781 577.949219 L 553.703125 577.949219 L 553.703125 618.332031 L 567.1875 618.332031 L 567.1875 577.949219 L 580.714844 577.949219 L 580.714844 551.015625 L 567.1875 551.015625 Z M 567.1875 564.460938 " fill-opacity="1" fill-rule="nonzero"/><path fill="#ffeb52" d="M 553.703125 631.777344 L 486.109375 631.777344 L 486.109375 645.265625 L 499.636719 645.265625 L 499.636719 685.644531 L 513.121094 685.644531 L 513.121094 645.265625 L 526.648438 645.265625 L 526.648438 685.644531 L 540.175781 685.644531 L 540.175781 645.265625 L 553.703125 645.265625 L 553.703125 685.644531 L 567.1875 685.644531 L 567.1875 645.265625 L 580.714844 645.265625 L 580.714844 618.332031 L 567.1875 618.332031 L 567.1875 631.777344 Z M 553.703125 631.777344 " fill-opacity="1" fill-rule="nonzero"/><path fill="#ffeb52" d="M 567.1875 524.078125 L 567.1875 510.589844 L 580.714844 510.589844 L 580.714844 497.144531 L 486.109375 497.144531 L 486.109375 510.589844 L 499.636719 510.589844 L 499.636719 551.015625 L 513.121094 551.015625 L 513.121094 510.589844 L 526.648438 510.589844 L 526.648438 551.015625 L 540.175781 551.015625 L 540.175781 510.589844 L 553.703125 510.589844 L 553.703125 551.015625 L 567.1875 551.015625 Z M 567.1875 524.078125 " fill-opacity="1" fill-rule="nonzero"/><path fill="#ffeb52" d="M 499.636719 456.71875 L 499.636719 483.65625 L 513.121094 483.65625 L 513.121094 443.273438 L 526.648438 443.273438 L 526.648438 483.65625 L 540.175781 483.65625 L 540.175781 443.273438 L 553.703125 443.273438 L 553.703125 483.65625 L 567.1875 483.65625 L 567.1875 443.273438 L 580.714844 443.273438 L 580.714844 429.828125 L 486.109375 429.828125 L 486.109375 443.273438 L 499.636719 443.273438 Z M 499.636719 456.71875 " fill-opacity="1" fill-rule="nonzero"/><path fill="#ffeb52" d="M 499.636719 389.40625 L 499.636719 416.339844 L 513.121094 416.339844 L 513.121094 375.957031 L 526.648438 375.957031 L 526.648438 416.339844 L 540.175781 416.339844 L 540.175781 375.957031 L 553.703125 375.957031 L 553.703125 416.339844 L 567.1875 416.339844 L 567.1875 375.957031 L 580.714844 375.957031 L 580.714844 362.46875 L 486.109375 362.46875 L 486.109375 375.957031 L 499.636719 375.957031 Z M 499.636719 389.40625 " fill-opacity="1" fill-rule="nonzero"/><path fill="#ffeb52" d="M 432.039062 631.777344 L 432.039062 645.265625 L 459.054688 645.265625 L 459.054688 631.777344 Z M 432.039062 631.777344 " fill-opacity="1" fill-rule="nonzero"/><path fill="#ffeb52" d="M 432.039062 564.460938 L 432.039062 577.949219 L 459.054688 577.949219 L 459.054688 564.460938 Z M 432.039062 564.460938 " fill-opacity="1" fill-rule="nonzero"/><path fill="#ffeb52" d="M 432.039062 497.144531 L 432.039062 510.589844 L 459.054688 510.589844 L 459.054688 497.144531 Z M 432.039062 497.144531 " fill-opacity="1" fill-rule="nonzero"/><path fill="#ffeb52" d="M 432.039062 429.828125 L 432.039062 443.273438 L 459.054688 443.273438 L 459.054688 429.828125 Z M 432.039062 429.828125 " fill-opacity="1" fill-rule="nonzero"/><path fill="#ffeb52" d="M 432.039062 362.46875 L 432.039062 375.957031 L 459.054688 375.957031 L 459.054688 362.46875 Z M 432.039062 362.46875 " fill-opacity="1" fill-rule="nonzero"/><path fill="#ffeb52" d="M 391.5 631.777344 L 405.027344 631.777344 L 405.027344 645.265625 L 391.5 645.265625 Z M 391.5 631.777344 " fill-opacity="1" fill-rule="nonzero"/><path fill="#ffeb52" d="M 391.5 564.460938 L 405.027344 564.460938 L 405.027344 577.949219 L 391.5 577.949219 Z M 391.5 564.460938 " fill-opacity="1" fill-rule="nonzero"/><path fill="#ffeb52" d="M 391.5 497.144531 L 405.027344 497.144531 L 405.027344 510.589844 L 391.5 510.589844 Z M 391.5 497.144531 " fill-opacity="1" fill-rule="nonzero"/><path fill="#ffeb52" d="M 391.5 429.828125 L 405.027344 429.828125 L 405.027344 443.273438 L 391.5 443.273438 Z M 391.5 429.828125 " fill-opacity="1" fill-rule="nonzero"/><path fill="#ffeb52" d="M 391.5 362.46875 L 405.027344 362.46875 L 405.027344 375.957031 L 391.5 375.957031 Z M 391.5 362.46875 " fill-opacity="1" fill-rule="nonzero"/><path fill="#ffeb52" d="M 499.636719 322.089844 L 499.636719 349.023438 L 513.121094 349.023438 L 513.121094 308.601562 L 526.648438 308.601562 L 526.648438 349.023438 L 540.175781 349.023438 L 540.175781 308.601562 L 553.703125 308.601562 L 553.703125 349.023438 L 567.1875 349.023438 L 567.1875 308.601562 L 580.714844 308.601562 L 580.714844 295.152344 L 486.109375 295.152344 L 486.109375 308.601562 L 499.636719 308.601562 Z M 499.636719 322.089844 " fill-opacity="1" fill-rule="nonzero"/><path fill="#ffeb52" d="M 432.039062 295.152344 L 432.039062 308.601562 L 459.054688 308.601562 L 459.054688 295.152344 Z M 432.039062 295.152344 " fill-opacity="1" fill-rule="nonzero"/><path fill="#ffeb52" d="M 391.5 295.152344 L 405.027344 295.152344 L 405.027344 308.601562 L 391.5 308.601562 Z M 391.5 295.152344 " fill-opacity="1" fill-rule="nonzero"/><path fill="#ffeb52" d="M 310.421875 631.777344 L 323.90625 631.777344 L 323.90625 645.265625 L 310.421875 645.265625 Z M 310.421875 631.777344 " fill-opacity="1" fill-rule="nonzero"/><path fill="#ffeb52" d="M 310.421875 564.460938 L 323.90625 564.460938 L 323.90625 577.949219 L 310.421875 577.949219 Z M 310.421875 564.460938 " fill-opacity="1" fill-rule="nonzero"/><path fill="#ffeb52" d="M 310.421875 497.144531 L 323.90625 497.144531 L 323.90625 510.589844 L 310.421875 510.589844 Z M 310.421875 497.144531 " fill-opacity="1" fill-rule="nonzero"/><path fill="#ffeb52" d="M 310.421875 429.828125 L 323.90625 429.828125 L 323.90625 443.273438 L 310.421875 443.273438 Z M 310.421875 429.828125 " fill-opacity="1" fill-rule="nonzero"/><path fill="#ffeb52" d="M 310.421875 362.46875 L 323.90625 362.46875 L 323.90625 375.957031 L 310.421875 375.957031 Z M 310.421875 362.46875 " fill-opacity="1" fill-rule="nonzero"/><path fill="#ffeb52" d="M 269.839844 631.777344 L 283.367188 631.777344 L 283.367188 645.265625 L 269.839844 645.265625 Z M 269.839844 631.777344 " fill-opacity="1" fill-rule="nonzero"/><path fill="#ffeb52" d="M 269.839844 564.460938 L 283.367188 564.460938 L 283.367188 577.949219 L 269.839844 577.949219 Z M 269.839844 564.460938 " fill-opacity="1" fill-rule="nonzero"/><path fill="#ffeb52" d="M 269.839844 497.144531 L 283.367188 497.144531 L 283.367188 510.589844 L 269.839844 510.589844 Z M 269.839844 497.144531 " fill-opacity="1" fill-rule="nonzero"/><path fill="#ffeb52" d="M 202.289062 631.777344 L 215.773438 631.777344 L 215.773438 645.265625 L 202.289062 645.265625 Z M 202.289062 631.777344 " fill-opacity="1" fill-rule="nonzero"/><path fill="#ffeb52" d="M 202.289062 564.460938 L 215.773438 564.460938 L 215.773438 577.949219 L 202.289062 577.949219 Z M 202.289062 564.460938 " fill-opacity="1" fill-rule="nonzero"/><path fill="#ffeb52" d="M 202.289062 497.144531 L 215.773438 497.144531 L 215.773438 510.589844 L 202.289062 510.589844 Z M 202.289062 497.144531 " fill-opacity="1" fill-rule="nonzero"/><path fill="#ffeb52" d="M 161.746094 631.777344 L 175.234375 631.777344 L 175.234375 645.265625 L 161.746094 645.265625 Z M 161.746094 631.777344 " fill-opacity="1" fill-rule="nonzero"/><path fill="#ffeb52" d="M 121.164062 631.777344 L 134.691406 631.777344 L 134.691406 645.265625 L 121.164062 645.265625 Z M 121.164062 631.777344 " fill-opacity="1" fill-rule="nonzero"/><g clip-path="url(#972fc103c6)"><path fill="#de4e00" d="M 148.21875 658.710938 L 148.21875 645.265625 L 121.164062 645.265625 L 121.164062 631.777344 L 107.679688 631.777344 L 107.679688 645.265625 L 94.152344 645.265625 L 94.152344 685.644531 L 107.679688 685.644531 L 107.679688 699.136719 L 121.164062 699.136719 L 121.164062 685.644531 L 148.21875 685.644531 Z M 148.21875 658.710938 " fill-opacity="1" fill-rule="nonzero"/></g><g clip-path="url(#099a7fb96d)"><path fill="#de4e00" d="M 202.289062 510.589844 L 202.289062 497.144531 L 188.761719 497.144531 L 188.761719 510.589844 L 175.234375 510.589844 L 175.234375 551.015625 L 188.761719 551.015625 L 188.761719 577.949219 L 175.234375 577.949219 L 175.234375 618.332031 L 188.761719 618.332031 L 188.761719 645.265625 L 175.234375 645.265625 L 175.234375 685.644531 L 188.761719 685.644531 L 188.761719 699.136719 L 202.289062 699.136719 L 202.289062 685.644531 L 229.300781 685.644531 L 229.300781 645.265625 L 202.289062 645.265625 L 202.289062 618.332031 L 229.300781 618.332031 L 229.300781 577.949219 L 202.289062 577.949219 L 202.289062 551.015625 L 229.300781 551.015625 L 229.300781 510.589844 Z M 202.289062 510.589844 " fill-opacity="1" fill-rule="nonzero"/></g><path fill="#de4e00" d="M 432.039062 416.339844 L 418.511719 416.339844 L 418.511719 429.828125 L 459.054688 429.828125 L 459.054688 416.339844 Z M 432.039062 416.339844 " fill-opacity="1" fill-rule="nonzero"/><g clip-path="url(#8054f4dfd4)"><path fill="#de4e00" d="M 432.039062 699.136719 L 459.054688 699.136719 L 459.054688 685.644531 L 418.511719 685.644531 L 418.511719 699.136719 Z M 432.039062 699.136719 " fill-opacity="1" fill-rule="nonzero"/></g><path fill="#de4e00" d="M 432.039062 631.777344 L 459.054688 631.777344 L 459.054688 618.332031 L 418.511719 618.332031 L 418.511719 631.777344 Z M 432.039062 631.777344 " fill-opacity="1" fill-rule="nonzero"/><path fill="#de4e00" d="M 432.039062 564.460938 L 459.054688 564.460938 L 459.054688 551.015625 L 418.511719 551.015625 L 418.511719 564.460938 Z M 432.039062 564.460938 " fill-opacity="1" fill-rule="nonzero"/><path fill="#de4e00" d="M 432.039062 497.144531 L 459.054688 497.144531 L 459.054688 483.65625 L 418.511719 483.65625 L 418.511719 497.144531 Z M 432.039062 497.144531 " fill-opacity="1" fill-rule="nonzero"/><path fill="#de4e00" d="M 418.511719 389.40625 L 418.511719 375.957031 L 391.5 375.957031 L 391.5 362.46875 L 377.972656 362.46875 L 377.972656 375.957031 L 364.445312 375.957031 L 364.445312 416.339844 L 418.511719 416.339844 Z M 418.511719 389.40625 " fill-opacity="1" fill-rule="nonzero"/><g clip-path="url(#178417ffa1)"><path fill="#de4e00" d="M 377.972656 699.136719 L 405.027344 699.136719 L 405.027344 685.644531 L 418.511719 685.644531 L 418.511719 645.265625 L 391.5 645.265625 L 391.5 631.777344 L 377.972656 631.777344 L 377.972656 645.265625 L 364.445312 645.265625 L 364.445312 685.644531 L 377.972656 685.644531 Z M 377.972656 699.136719 " fill-opacity="1" fill-rule="nonzero"/></g><path fill="#de4e00" d="M 391.5 618.332031 L 418.511719 618.332031 L 418.511719 577.949219 L 391.5 577.949219 L 391.5 564.460938 L 377.972656 564.460938 L 377.972656 577.949219 L 364.445312 577.949219 L 364.445312 618.332031 Z M 391.5 618.332031 " fill-opacity="1" fill-rule="nonzero"/><path fill="#de4e00" d="M 391.5 551.015625 L 418.511719 551.015625 L 418.511719 510.589844 L 391.5 510.589844 L 391.5 497.144531 L 377.972656 497.144531 L 377.972656 510.589844 L 364.445312 510.589844 L 364.445312 551.015625 Z M 391.5 551.015625 " fill-opacity="1" fill-rule="nonzero"/><path fill="#de4e00" d="M 391.5 483.65625 L 418.511719 483.65625 L 418.511719 443.273438 L 391.5 443.273438 L 391.5 429.828125 L 377.972656 429.828125 L 377.972656 443.273438 L 364.445312 443.273438 L 364.445312 483.65625 Z M 391.5 483.65625 " fill-opacity="1" fill-rule="nonzero"/><path fill="#de4e00" d="M 445.566406 349.023438 L 418.511719 349.023438 L 418.511719 362.46875 L 459.054688 362.46875 L 459.054688 349.023438 Z M 445.566406 349.023438 " fill-opacity="1" fill-rule="nonzero"/><path fill="#de4e00" d="M 418.511719 322.089844 L 418.511719 308.601562 L 391.5 308.601562 L 391.5 295.152344 L 377.972656 295.152344 L 377.972656 308.601562 L 364.445312 308.601562 L 364.445312 349.023438 L 418.511719 349.023438 Z M 418.511719 322.089844 " fill-opacity="1" fill-rule="nonzero"/><g clip-path="url(#eb955c53ad)"><path fill="#de4e00" d="M 350.960938 699.136719 L 364.445312 699.136719 L 364.445312 685.644531 L 337.433594 685.644531 L 337.433594 699.136719 Z M 350.960938 699.136719 " fill-opacity="1" fill-rule="nonzero"/></g><path fill="#de4e00" d="M 350.960938 631.777344 L 364.445312 631.777344 L 364.445312 618.332031 L 337.433594 618.332031 L 337.433594 631.777344 Z M 350.960938 631.777344 " fill-opacity="1" fill-rule="nonzero"/><path fill="#de4e00" d="M 350.960938 564.460938 L 364.445312 564.460938 L 364.445312 551.015625 L 337.433594 551.015625 L 337.433594 564.460938 Z M 350.960938 564.460938 " fill-opacity="1" fill-rule="nonzero"/><path fill="#de4e00" d="M 350.960938 497.144531 L 364.445312 497.144531 L 364.445312 483.65625 L 337.433594 483.65625 L 337.433594 497.144531 Z M 350.960938 497.144531 " fill-opacity="1" fill-rule="nonzero"/><path fill="#de4e00" d="M 337.433594 416.339844 L 337.433594 429.828125 L 364.445312 429.828125 L 364.445312 416.339844 Z M 337.433594 416.339844 " fill-opacity="1" fill-rule="nonzero"/><g clip-path="url(#d34b0325e0)"><path fill="#de4e00" d="M 337.433594 389.40625 L 337.433594 375.957031 L 310.421875 375.957031 L 310.421875 362.46875 L 296.894531 362.46875 L 296.894531 375.957031 L 283.367188 375.957031 L 283.367188 416.339844 L 296.894531 416.339844 L 296.894531 443.273438 L 283.367188 443.273438 L 283.367188 483.65625 L 296.894531 483.65625 L 296.894531 510.589844 L 283.367188 510.589844 L 283.367188 551.015625 L 296.894531 551.015625 L 296.894531 577.949219 L 283.367188 577.949219 L 283.367188 618.332031 L 296.894531 618.332031 L 296.894531 645.265625 L 283.367188 645.265625 L 283.367188 685.644531 L 296.894531 685.644531 L 296.894531 699.136719 L 310.421875 699.136719 L 310.421875 685.644531 L 337.433594 685.644531 L 337.433594 645.265625 L 310.421875 645.265625 L 310.421875 618.332031 L 337.433594 618.332031 L 337.433594 577.949219 L 310.421875 577.949219 L 310.421875 551.015625 L 337.433594 551.015625 L 337.433594 510.589844 L 310.421875 510.589844 L 310.421875 483.65625 L 337.433594 483.65625 L 337.433594 443.273438 L 310.421875 443.273438 L 310.421875 416.339844 L 337.433594 416.339844 Z M 337.433594 389.40625 " fill-opacity="1" fill-rule="nonzero"/></g><g clip-path="url(#b24d6cae25)"><path fill="#de4e00" d="M 242.828125 685.644531 L 242.828125 699.136719 L 269.839844 699.136719 L 269.839844 685.644531 Z M 242.828125 685.644531 " fill-opacity="1" fill-rule="nonzero"/></g><path fill="#de4e00" d="M 242.828125 618.332031 L 242.828125 631.777344 L 269.839844 631.777344 L 269.839844 618.332031 Z M 242.828125 618.332031 " fill-opacity="1" fill-rule="nonzero"/><path fill="#de4e00" d="M 242.828125 551.015625 L 242.828125 564.460938 L 269.839844 564.460938 L 269.839844 551.015625 Z M 242.828125 551.015625 " fill-opacity="1" fill-rule="nonzero"/><g clip-path="url(#22bdbd8c87)"><path fill="#de4e00" d="M 148.21875 685.644531 L 148.21875 699.136719 L 175.234375 699.136719 L 175.234375 685.644531 Z M 148.21875 685.644531 " fill-opacity="1" fill-rule="nonzero"/></g><path fill="#ffffff" d="M 567.1875 133.542969 L 580.714844 133.542969 L 580.714844 147.03125 L 567.1875 147.03125 Z M 567.1875 133.542969 " fill-opacity="1" fill-rule="nonzero"/><path fill="#ffffff" d="M 540.175781 187.414062 L 553.703125 187.414062 L 553.703125 200.859375 L 540.175781 200.859375 Z M 540.175781 187.414062 " fill-opacity="1" fill-rule="nonzero"/><path fill="#ffffff" d="M 526.648438 214.347656 L 540.175781 214.347656 L 540.175781 227.792969 L 526.648438 227.792969 Z M 526.648438 214.347656 " fill-opacity="1" fill-rule="nonzero"/><path fill="#ffffff" d="M 526.648438 147.03125 L 540.175781 147.03125 L 540.175781 160.480469 L 526.648438 160.480469 Z M 526.648438 147.03125 " fill-opacity="1" fill-rule="nonzero"/><path fill="#ffffff" d="M 513.164062 214.347656 L 526.648438 214.347656 L 526.648438 227.792969 L 513.164062 227.792969 Z M 513.164062 214.347656 " fill-opacity="1" fill-rule="nonzero"/><path fill="#ffffff" d="M 499.636719 227.792969 L 513.164062 227.792969 L 513.164062 241.285156 L 499.636719 241.285156 Z M 499.636719 227.792969 " fill-opacity="1" fill-rule="nonzero"/><path fill="#ffffff" d="M 499.636719 173.96875 L 513.164062 173.96875 L 513.164062 187.414062 L 499.636719 187.414062 Z M 499.636719 173.96875 " fill-opacity="1" fill-rule="nonzero"/><path fill="#ffffff" d="M 486.109375 227.792969 L 499.636719 227.792969 L 499.636719 241.285156 L 486.109375 241.285156 Z M 486.109375 227.792969 " fill-opacity="1" fill-rule="nonzero"/><path fill="#ffffff" d="M 472.582031 79.671875 L 486.109375 79.671875 L 486.109375 93.164062 L 472.582031 93.164062 Z M 472.582031 79.671875 " fill-opacity="1" fill-rule="nonzero"/><path fill="#ffffff" d="M 459.09375 241.285156 L 472.582031 241.285156 L 472.582031 254.730469 L 459.09375 254.730469 Z M 459.09375 241.285156 " fill-opacity="1" fill-rule="nonzero"/><path fill="#ff8800" d="M 594.242188 147.03125 L 594.242188 214.347656 L 607.769531 214.347656 L 607.769531 147.03125 Z M 594.242188 147.03125 " fill-opacity="1" fill-rule="nonzero"/><path fill="#ff8800" d="M 580.714844 227.792969 L 580.714844 241.28125 L 594.242188 241.28125 L 594.242188 214.347656 L 580.714844 214.347656 Z M 580.714844 227.792969 " fill-opacity="1" fill-rule="nonzero"/><path fill="#ff8800" d="M 594.242188 120.097656 L 580.714844 120.097656 L 580.714844 147.03125 L 594.242188 147.03125 Z M 594.242188 120.097656 " fill-opacity="1" fill-rule="nonzero"/><path fill="#ff8800" d="M 567.1875 241.28125 L 580.714844 241.28125 L 580.714844 254.730469 L 567.1875 254.730469 Z M 567.1875 241.28125 " fill-opacity="1" fill-rule="nonzero"/><path fill="#ff8800" d="M 567.1875 106.609375 L 580.714844 106.609375 L 580.714844 120.097656 L 567.1875 120.097656 Z M 567.1875 106.609375 " fill-opacity="1" fill-rule="nonzero"/><path fill="#ff8800" d="M 553.703125 254.730469 L 567.1875 254.730469 L 567.1875 268.21875 L 553.703125 268.21875 Z M 553.703125 254.730469 " fill-opacity="1" fill-rule="nonzero"/><path fill="#ff8800" d="M 553.703125 93.164062 L 567.1875 93.164062 L 567.1875 106.609375 L 553.703125 106.609375 Z M 553.703125 93.164062 " fill-opacity="1" fill-rule="nonzero"/><path fill="#ff8800" d="M 540.175781 79.675781 L 526.648438 79.675781 L 526.648438 93.164062 L 553.703125 93.164062 L 553.703125 79.675781 Z M 540.175781 79.675781 " fill-opacity="1" fill-rule="nonzero"/><path fill="#ff8800" d="M 526.648438 268.21875 L 526.648438 281.664062 L 553.703125 281.664062 L 553.703125 268.21875 Z M 526.648438 268.21875 " fill-opacity="1" fill-rule="nonzero"/><path fill="#ff8800" d="M 513.164062 281.664062 L 526.648438 281.664062 L 526.648438 295.152344 L 513.164062 295.152344 Z M 513.164062 281.664062 " fill-opacity="1" fill-rule="nonzero"/><path fill="#ff8800" d="M 513.164062 133.542969 L 526.648438 133.542969 L 526.648438 147.03125 L 513.164062 147.03125 Z M 513.164062 133.542969 " fill-opacity="1" fill-rule="nonzero"/><path fill="#ff8800" d="M 499.636719 147.03125 L 513.164062 147.03125 L 513.164062 160.476562 L 499.636719 160.476562 Z M 499.636719 147.03125 " fill-opacity="1" fill-rule="nonzero"/><path fill="#ff8800" d="M 486.109375 160.476562 L 499.636719 160.476562 L 499.636719 173.96875 L 486.109375 173.96875 Z M 486.109375 160.476562 " fill-opacity="1" fill-rule="nonzero"/><path fill="#ff8800" d="M 472.582031 173.96875 L 486.109375 173.96875 L 486.109375 187.414062 L 472.582031 187.414062 Z M 472.582031 173.96875 " fill-opacity="1" fill-rule="nonzero"/><path fill="#ff8800" d="M 459.09375 187.414062 L 472.578125 187.414062 L 472.578125 200.859375 L 459.09375 200.859375 Z M 459.09375 187.414062 " fill-opacity="1" fill-rule="nonzero"/><path fill="#ffffff" d="M 459.09375 79.671875 L 472.582031 79.671875 L 472.582031 93.164062 L 459.09375 93.164062 Z M 459.09375 79.671875 " fill-opacity="1" fill-rule="nonzero"/><path fill="#ffffff" d="M 445.566406 254.730469 L 459.09375 254.730469 L 459.09375 268.21875 L 445.566406 268.21875 Z M 445.566406 254.730469 " fill-opacity="1" fill-rule="nonzero"/><path fill="#de4e00" d="M 553.703125 160.476562 L 567.1875 160.476562 L 567.1875 173.96875 L 553.703125 173.96875 Z M 553.703125 160.476562 " fill-opacity="1" fill-rule="nonzero"/><path fill="#de4e00" d="M 553.703125 133.542969 L 540.175781 133.542969 L 540.175781 160.476562 L 553.703125 160.476562 Z M 553.703125 133.542969 " fill-opacity="1" fill-rule="nonzero"/><path fill="#de4e00" d="M 526.648438 120.097656 L 513.164062 120.097656 L 513.164062 133.542969 L 540.175781 133.542969 L 540.175781 120.097656 Z M 526.648438 120.097656 " fill-opacity="1" fill-rule="nonzero"/><path fill="#de4e00" d="M 499.636719 106.609375 L 472.582031 106.609375 L 472.582031 120.097656 L 513.164062 120.097656 L 513.164062 106.609375 Z M 499.636719 106.609375 " fill-opacity="1" fill-rule="nonzero"/><path fill="#de4e00" d="M 486.109375 281.664062 L 459.09375 281.664062 L 459.09375 295.152344 L 513.164062 295.152344 L 513.164062 281.664062 Z M 486.109375 281.664062 " fill-opacity="1" fill-rule="nonzero"/><path fill="#de4e00" d="M 472.582031 241.28125 L 486.109375 241.28125 L 486.109375 254.730469 L 472.582031 254.730469 Z M 472.582031 241.28125 " fill-opacity="1" fill-rule="nonzero"/><path fill="#de4e00" d="M 459.09375 241.28125 L 472.582031 241.28125 L 472.582031 227.792969 L 445.566406 227.792969 L 445.566406 241.28125 Z M 459.09375 241.28125 " fill-opacity="1" fill-rule="nonzero"/><path fill="#de4e00" d="M 445.566406 120.097656 L 445.566406 133.542969 L 472.582031 133.542969 L 472.582031 120.097656 Z M 445.566406 120.097656 " fill-opacity="1" fill-rule="nonzero"/><path fill="#de4e00" d="M 432.039062 227.792969 L 445.566406 227.792969 L 445.566406 200.859375 L 432.039062 200.859375 Z M 432.039062 227.792969 " fill-opacity="1" fill-rule="nonzero"/><path fill="#de4e00" d="M 432.039062 147.03125 L 432.039062 160.476562 L 445.566406 160.476562 L 445.566406 133.542969 L 432.039062 133.542969 Z M 432.039062 147.03125 " fill-opacity="1" fill-rule="nonzero"/><path fill="#de4e00" d="M 418.554688 173.96875 L 418.554688 200.859375 L 432.039062 200.859375 L 432.039062 160.476562 L 418.554688 160.476562 Z M 418.554688 173.96875 " fill-opacity="1" fill-rule="nonzero"/><path fill="#ffffff" d="M 405.027344 120.097656 L 418.554688 120.097656 L 418.554688 133.542969 L 405.027344 133.542969 Z M 405.027344 120.097656 " fill-opacity="1" fill-rule="nonzero"/><path fill="#ffeb52" d="M 553.703125 173.96875 L 553.703125 200.859375 L 567.1875 200.859375 L 567.1875 173.96875 Z M 553.703125 173.96875 " fill-opacity="1" fill-rule="nonzero"/><path fill="#ffeb52" d="M 540.175781 214.347656 L 540.175781 227.792969 L 553.703125 227.792969 L 553.703125 200.859375 L 540.175781 200.859375 Z M 540.175781 214.347656 " fill-opacity="1" fill-rule="nonzero"/><path fill="#ffeb52" d="M 513.164062 227.792969 L 513.164062 241.28125 L 540.175781 241.28125 L 540.175781 227.792969 Z M 513.164062 227.792969 " fill-opacity="1" fill-rule="nonzero"/><g clip-path="url(#4061e93791)"><path fill="#ffc400" d="M 513.164062 79.675781 L 513.164062 66.226562 L 486.109375 66.226562 L 486.109375 79.675781 Z M 513.164062 79.675781 " fill-opacity="1" fill-rule="nonzero"/></g><path fill="#ffeb52" d="M 486.109375 241.28125 L 486.109375 254.730469 L 513.164062 254.730469 L 513.164062 241.28125 Z M 486.109375 241.28125 " fill-opacity="1" fill-rule="nonzero"/><path fill="#ffc400" d="M 486.109375 160.476562 L 499.636719 160.476562 L 499.636719 147.03125 L 513.164062 147.03125 L 513.164062 133.542969 L 472.582031 133.542969 L 472.582031 147.03125 L 459.09375 147.03125 L 459.09375 160.476562 L 445.566406 160.476562 L 445.566406 214.347656 L 459.09375 214.347656 L 459.09375 187.414062 L 472.582031 187.414062 L 472.582031 173.96875 L 486.109375 173.96875 Z M 486.109375 160.476562 " fill-opacity="1" fill-rule="nonzero"/><path fill="#ffc400" d="M 445.566406 79.675781 L 459.09375 79.675781 L 459.09375 93.164062 L 445.566406 93.164062 Z M 445.566406 79.675781 " fill-opacity="1" fill-rule="nonzero"/><path fill="#ffc400" d="M 432.039062 268.21875 L 432.039062 281.664062 L 459.09375 281.664062 L 459.09375 268.21875 Z M 432.039062 268.21875 " fill-opacity="1" fill-rule="nonzero"/><path fill="#ffc400" d="M 405.027344 241.28125 L 418.554688 241.28125 L 418.554688 254.730469 L 405.027344 254.730469 Z M 405.027344 241.28125 " fill-opacity="1" fill-rule="nonzero"/><path fill="#ffc400" d="M 391.5 214.347656 L 405.027344 214.347656 L 405.027344 227.792969 L 391.5 227.792969 Z M 391.5 214.347656 " fill-opacity="1" fill-rule="nonzero"/><path fill="#ffc400" d="M 567.1875 160.476562 L 567.1875 200.859375 L 553.703125 200.859375 L 553.703125 227.792969 L 540.175781 227.792969 L 540.175781 241.28125 L 513.164062 241.28125 L 513.164062 254.730469 L 472.582031 254.730469 L 472.582031 281.664062 L 499.636719 281.664062 L 499.636719 268.21875 L 553.703125 268.21875 L 553.703125 241.28125 L 567.1875 241.28125 L 567.1875 227.792969 L 580.714844 227.792969 L 580.714844 160.476562 Z M 567.1875 160.476562 " fill-opacity="1" fill-rule="nonzero"/><path fill="#ffc400" d="M 472.582031 106.609375 L 513.164062 106.609375 L 513.164062 120.097656 L 540.175781 120.097656 L 540.175781 133.542969 L 567.1875 133.542969 L 567.1875 120.097656 L 553.703125 120.097656 L 553.703125 106.609375 L 526.648438 106.609375 L 526.648438 93.164062 L 445.566406 93.164062 L 445.566406 106.609375 L 418.554688 106.609375 L 418.554688 147.03125 L 405.027344 147.03125 L 405.027344 160.476562 L 391.5 160.476562 L 391.5 187.414062 L 405.027344 187.414062 L 405.027344 227.792969 L 418.554688 227.792969 L 418.554688 254.730469 L 445.566406 254.730469 L 445.566406 227.792969 L 432.039062 227.792969 L 432.039062 200.859375 L 418.554688 200.859375 L 418.554688 160.476562 L 432.039062 160.476562 L 432.039062 133.542969 L 445.566406 133.542969 L 445.566406 120.097656 L 472.582031 120.097656 Z M 472.582031 106.609375 " fill-opacity="1" fill-rule="nonzero"/><path fill="#ffeb52" d="M 580.714844 147.03125 L 567.1875 147.03125 L 567.1875 133.542969 L 553.703125 133.542969 L 553.703125 160.476562 L 580.714844 160.476562 L 580.714844 214.347656 L 594.242188 214.347656 L 594.242188 147.03125 Z M 580.714844 147.03125 " fill-opacity="1" fill-rule="nonzero"/><path fill="#ffeb52" d="M 567.1875 227.792969 L 580.714844 227.792969 L 580.714844 241.28125 L 567.1875 241.28125 Z M 567.1875 227.792969 " fill-opacity="1" fill-rule="nonzero"/><path fill="#ffeb52" d="M 567.1875 120.097656 L 580.714844 120.097656 L 580.714844 133.542969 L 567.1875 133.542969 Z M 567.1875 120.097656 " fill-opacity="1" fill-rule="nonzero"/><path fill="#ffeb52" d="M 553.703125 241.28125 L 567.1875 241.28125 L 567.1875 254.730469 L 553.703125 254.730469 Z M 553.703125 241.28125 " fill-opacity="1" fill-rule="nonzero"/><path fill="#ffeb52" d="M 553.703125 106.609375 L 567.1875 106.609375 L 567.1875 120.097656 L 553.703125 120.097656 Z M 553.703125 106.609375 " fill-opacity="1" fill-rule="nonzero"/><path fill="#ffeb52" d="M 540.175781 93.164062 L 526.648438 93.164062 L 526.648438 106.609375 L 553.703125 106.609375 L 553.703125 93.164062 Z M 540.175781 93.164062 " fill-opacity="1" fill-rule="nonzero"/><path fill="#ffeb52" d="M 526.648438 200.859375 L 513.164062 200.859375 L 513.164062 187.414062 L 499.636719 187.414062 L 499.636719 173.96875 L 486.109375 173.96875 L 486.109375 187.414062 L 472.582031 187.414062 L 472.582031 200.859375 L 459.09375 200.859375 L 459.09375 214.347656 L 445.566406 214.347656 L 445.566406 227.792969 L 472.582031 227.792969 L 472.582031 241.28125 L 486.109375 241.28125 L 486.109375 227.792969 L 513.164062 227.792969 L 513.164062 214.347656 L 540.175781 214.347656 L 540.175781 187.414062 L 526.648438 187.414062 Z M 526.648438 200.859375 " fill-opacity="1" fill-rule="nonzero"/><path fill="#ffeb52" d="M 526.648438 160.476562 L 526.648438 147.03125 L 513.164062 147.03125 L 513.164062 160.476562 L 499.636719 160.476562 L 499.636719 173.96875 L 513.164062 173.96875 L 513.164062 187.414062 L 526.648438 187.414062 L 526.648438 173.96875 L 540.175781 173.96875 L 540.175781 187.414062 L 553.703125 187.414062 L 553.703125 160.476562 Z M 526.648438 160.476562 " fill-opacity="1" fill-rule="nonzero"/><path fill="#ffeb52" d="M 526.648438 133.542969 L 540.175781 133.542969 L 540.175781 147.03125 L 526.648438 147.03125 Z M 526.648438 133.542969 " fill-opacity="1" fill-rule="nonzero"/><path fill="#ffeb52" d="M 513.164062 79.675781 L 486.109375 79.675781 L 486.109375 93.164062 L 526.648438 93.164062 L 526.648438 79.675781 Z M 513.164062 79.675781 " fill-opacity="1" fill-rule="nonzero"/><path fill="#ffeb52" d="M 499.636719 268.21875 L 499.636719 281.664062 L 526.648438 281.664062 L 526.648438 268.21875 Z M 499.636719 268.21875 " fill-opacity="1" fill-rule="nonzero"/><path fill="#ffeb52" d="M 459.09375 268.21875 L 459.09375 281.664062 L 472.582031 281.664062 L 472.582031 254.730469 L 459.09375 254.730469 Z M 459.09375 268.21875 " fill-opacity="1" fill-rule="nonzero"/><path fill="#ffeb52" d="M 445.566406 241.28125 L 459.09375 241.28125 L 459.09375 254.730469 L 445.566406 254.730469 Z M 445.566406 241.28125 " fill-opacity="1" fill-rule="nonzero"/><path fill="#ffeb52" d="M 432.039062 254.730469 L 445.566406 254.730469 L 445.566406 268.21875 L 432.039062 268.21875 Z M 432.039062 254.730469 " fill-opacity="1" fill-rule="nonzero"/><path fill="#ffeb52" d="M 432.039062 93.164062 L 445.566406 93.164062 L 445.566406 106.609375 L 432.039062 106.609375 Z M 432.039062 93.164062 " fill-opacity="1" fill-rule="nonzero"/><path fill="#ffeb52" d="M 405.027344 227.792969 L 418.554688 227.792969 L 418.554688 241.28125 L 405.027344 241.28125 Z M 405.027344 227.792969 " fill-opacity="1" fill-rule="nonzero"/><path fill="#ffeb52" d="M 405.027344 133.542969 L 418.554688 133.542969 L 418.554688 147.03125 L 405.027344 147.03125 Z M 405.027344 133.542969 " fill-opacity="1" fill-rule="nonzero"/><path fill="#ffeb52" d="M 405.027344 200.859375 L 405.027344 187.414062 L 391.5 187.414062 L 391.5 214.347656 L 405.027344 214.347656 Z M 405.027344 200.859375 " fill-opacity="1" fill-rule="nonzero"/><path fill="#ffeb52" d="M 391.5 147.03125 L 405.027344 147.03125 L 405.027344 160.476562 L 391.5 160.476562 Z M 391.5 147.03125 " fill-opacity="1" fill-rule="nonzero"/><path fill="#ff8800" d="M 526.648438 173.96875 L 540.175781 173.96875 L 540.175781 187.414062 L 526.648438 187.414062 Z M 526.648438 173.96875 " fill-opacity="1" fill-rule="nonzero"/><path fill="#ff8800" d="M 513.164062 187.414062 L 526.648438 187.414062 L 526.648438 200.859375 L 513.164062 200.859375 Z M 513.164062 187.414062 " fill-opacity="1" fill-rule="nonzero"/><g clip-path="url(#7c8ce76653)"><path fill="#ff8800" d="M 513.164062 66.226562 L 526.648438 66.226562 L 526.648438 79.675781 L 513.164062 79.675781 Z M 513.164062 66.226562 " fill-opacity="1" fill-rule="nonzero"/></g><path fill="#ff8800" d="M 513.164062 120.097656 L 472.582031 120.097656 L 472.582031 133.542969 L 513.164062 133.542969 Z M 513.164062 120.097656 " fill-opacity="1" fill-rule="nonzero"/><g clip-path="url(#8bc890a405)"><path fill="#ff8800" d="M 486.109375 79.675781 L 486.109375 66.226562 L 459.09375 66.226562 L 459.09375 79.675781 Z M 486.109375 79.675781 " fill-opacity="1" fill-rule="nonzero"/></g><path fill="#ff8800" d="M 445.566406 133.542969 L 445.566406 160.476562 L 459.09375 160.476562 L 459.09375 147.03125 L 472.582031 147.03125 L 472.582031 133.542969 Z M 445.566406 133.542969 " fill-opacity="1" fill-rule="nonzero"/><path fill="#ff8800" d="M 432.039062 173.96875 L 432.039062 200.859375 L 445.566406 200.859375 L 445.566406 160.476562 L 432.039062 160.476562 Z M 432.039062 173.96875 " fill-opacity="1" fill-rule="nonzero"/><path fill="#ff8800" d="M 432.039062 79.675781 L 445.566406 79.675781 L 445.566406 93.164062 L 432.039062 93.164062 Z M 432.039062 79.675781 " fill-opacity="1" fill-rule="nonzero"/><path fill="#ff8800" d="M 418.554688 254.730469 L 432.039062 254.730469 L 432.039062 268.21875 L 418.554688 268.21875 Z M 418.554688 254.730469 " fill-opacity="1" fill-rule="nonzero"/><path fill="#ff8800" d="M 418.554688 93.164062 L 432.039062 93.164062 L 432.039062 106.609375 L 418.554688 106.609375 Z M 418.554688 93.164062 " fill-opacity="1" fill-rule="nonzero"/><path fill="#ff8800" d="M 405.027344 106.609375 L 418.554688 106.609375 L 418.554688 120.097656 L 405.027344 120.097656 Z M 405.027344 106.609375 " fill-opacity="1" fill-rule="nonzero"/><path fill="#ff8800" d="M 391.5 227.792969 L 405.027344 227.792969 L 405.027344 241.28125 L 391.5 241.28125 Z M 391.5 227.792969 " fill-opacity="1" fill-rule="nonzero"/><path fill="#ff8800" d="M 391.5 133.542969 L 391.5 147.03125 L 405.027344 147.03125 L 405.027344 120.097656 L 391.5 120.097656 Z M 391.5 133.542969 " fill-opacity="1" fill-rule="nonzero"/><path fill="#ff8800" d="M 377.972656 160.476562 L 377.972656 214.347656 L 391.5 214.347656 L 391.5 147.03125 L 377.972656 147.03125 Z M 377.972656 160.476562 " fill-opacity="1" fill-rule="nonzero"/></svg>