<svg xmlns="http://www.w3.org/2000/svg" xmlns:xlink="http://www.w3.org/1999/xlink" width="1080" zoomAndPan="magnify" viewBox="0 0 810 809.999993" height="1080" preserveAspectRatio="xMidYMid meet" version="1.0"><defs><clipPath id="88169f0317"><path d="M 137 10.078125 L 673.222656 10.078125 L 673.222656 784.078125 L 137 784.078125 Z M 137 10.078125 " clip-rule="nonzero"/></clipPath></defs><path stroke-linecap="butt" transform="matrix(0.75, 0, 0, 0.75, 275.39999, 403.5)" fill="none" stroke-linejoin="miter" d="M -0.00206953 2.000001 L 345.602115 2.000001 " stroke="#ffffff" stroke-width="4" stroke-opacity="1" stroke-miterlimit="4"/><g clip-path="url(#88169f0317)"><path fill="#000000" d="M 613.59375 129.15625 L 554.03125 129.15625 L 554.03125 69.617188 L 494.464844 69.617188 L 494.464844 10.078125 L 256.199219 10.078125 L 256.199219 69.617188 L 196.632812 69.617188 L 196.632812 129.15625 L 137.066406 129.15625 L 137.066406 248.234375 L 196.632812 248.234375 L 196.632812 307.773438 L 256.199219 307.773438 L 256.199219 486.386719 L 315.765625 486.386719 L 315.765625 545.925781 L 256.199219 545.925781 L 256.199219 665.003906 L 315.765625 665.003906 L 315.765625 724.539062 L 375.332031 724.539062 L 375.332031 784.078125 L 494.464844 784.078125 L 494.464844 724.539062 L 554.03125 724.539062 L 554.03125 605.460938 L 494.464844 605.460938 L 494.464844 545.925781 L 554.03125 545.925781 L 554.03125 486.386719 L 613.59375 486.386719 L 613.59375 426.847656 L 673.164062 426.847656 L 673.164062 188.695312 L 613.59375 188.695312 L 613.59375 129.15625 " fill-opacity="1" fill-rule="nonzero"/></g><path fill="#f6d923" d="M 315.765625 545.925781 L 315.765625 665.003906 L 434.898438 665.003906 L 434.898438 545.925781 L 315.765625 545.925781 M 494.464844 129.15625 L 554.03125 129.15625 L 554.03125 367.308594 L 494.464844 367.308594 L 494.464844 426.847656 L 434.898438 426.847656 L 434.898438 486.386719 L 315.765625 486.386719 L 315.765625 367.308594 L 375.332031 367.308594 L 375.332031 307.773438 L 434.898438 307.773438 L 434.898438 188.695312 L 315.765625 188.695312 L 315.765625 248.234375 L 196.632812 248.234375 L 196.632812 129.15625 L 256.199219 129.15625 L 256.199219 69.617188 L 494.464844 69.617188 L 494.464844 129.15625 " fill-opacity="1" fill-rule="nonzero"/><path fill="#fcf4bd" d="M 196.632812 188.695312 L 256.199219 188.695312 L 256.199219 129.15625 L 196.632812 129.15625 Z M 196.632812 188.695312 " fill-opacity="1" fill-rule="nonzero"/><path fill="#fcf4bd" d="M 494.464844 129.15625 L 256.199219 129.15625 L 256.199219 69.617188 L 494.464844 69.617188 L 494.464844 129.15625 " fill-opacity="1" fill-rule="nonzero"/><path fill="#fa8221" d="M 315.765625 486.386719 L 375.332031 486.386719 L 375.332031 426.847656 L 315.765625 426.847656 Z M 315.765625 486.386719 " fill-opacity="1" fill-rule="nonzero"/><path fill="#fa8221" d="M 434.898438 665.003906 L 375.332031 665.003906 L 375.332031 605.460938 L 315.765625 605.460938 L 315.765625 665.003906 L 315.765625 545.925781 L 375.332031 545.925781 L 375.332031 605.460938 L 434.898438 605.460938 L 434.898438 665.003906 " fill-opacity="1" fill-rule="nonzero"/><path fill="#fc4e20" d="M 315.765625 665.003906 L 375.332031 665.003906 L 375.332031 605.460938 L 315.765625 605.460938 Z M 315.765625 665.003906 " fill-opacity="1" fill-rule="nonzero"/></svg>