<svg xmlns="http://www.w3.org/2000/svg" xmlns:xlink="http://www.w3.org/1999/xlink" width="1080" zoomAndPan="magnify" viewBox="0 0 810 809.999993" height="1080" preserveAspectRatio="xMidYMid meet" version="1.0"><path stroke-linecap="butt" transform="matrix(0.75, 0, 0, 0.75, 275.39999, 403.5)" fill="none" stroke-linejoin="miter" d="M -0.00206953 2.000001 L 345.602115 2.000001 " stroke="#ffffff" stroke-width="4" stroke-opacity="1" stroke-miterlimit="4"/><path fill="#edd996" d="M 337.007812 106.765625 C 350.703125 101.183594 366.488281 100.972656 379.714844 94.160156 C 382.917969 92.507812 385.882812 90.410156 389.148438 88.894531 C 394.582031 86.363281 400.5 85.878906 406.207031 84.449219 C 412.359375 82.902344 418.277344 81.46875 424.675781 81.375 C 443.5 81.113281 459.519531 93.960938 475.476562 103.953125 C 494.046875 115.582031 511.796875 122.183594 532.9375 127.152344 C 539.054688 128.589844 545.5 130.203125 549.984375 134.609375 C 558.699219 143.175781 567.441406 145.082031 578.71875 150.492188 C 592.011719 156.875 608.875 166.71875 614.789062 181.121094 C 621.800781 198.191406 607 204.441406 592.15625 209.695312 C 542.179688 227.382812 489.820312 237.203125 437.6875 246.847656 C 395.144531 254.714844 351.902344 262.535156 308.859375 258.1875 C 281.671875 255.441406 255.234375 247.894531 228.964844 240.382812 C 219.757812 237.75 210.210938 234.933594 203.054688 228.570312 C 174.957031 203.59375 206.839844 155.824219 233.835938 146.339844 C 246.285156 141.96875 259.472656 140.089844 272.085938 136.21875 C 294.964844 129.199219 314.964844 115.746094 337.007812 106.765625 Z M 337.007812 106.765625 " fill-opacity="1" fill-rule="nonzero"/><path fill="#e2d8cf" d="M 678.410156 646.679688 C 671.492188 652.84375 662.355469 655.800781 653.445312 658.320312 C 557.621094 685.308594 455.625 677.699219 357.058594 663.738281 C 337.632812 660.992188 318.167969 657.996094 298.539062 657.746094 C 267.667969 657.371094 237.113281 663.800781 206.28125 665.351562 C 175.445312 666.90625 142.671875 662.882812 118.027344 644.285156 C 114.105469 641.3125 110.207031 637.628906 109.34375 632.777344 C 108.589844 628.566406 110.296875 624.332031 112.113281 620.457031 C 114.332031 615.835938 116.917969 611.433594 119.871094 607.246094 C 133.820312 587.15625 154.339844 569.859375 159.964844 546.484375 C 163.363281 532.410156 160.667969 517.480469 159.089844 502.992188 C 158.523438 497.789062 158.070312 492.59375 157.734375 487.398438 C 154.964844 446.1875 158.660156 405.003906 164.175781 364.003906 C 168.035156 335.191406 172.800781 306.449219 176.835938 277.875 C 177.925781 270.066406 179.105469 262.070312 182.941406 255.1875 C 190.949219 240.851562 211.96875 237.113281 226.933594 234.332031 C 342.71875 212.875 460.171875 197.121094 577.085938 207.347656 C 603.207031 209.628906 620.253906 237.191406 628.726562 259.800781 C 636.621094 280.855469 639.355469 303.429688 642.023438 325.765625 C 643.578125 338.726562 645.222656 351.761719 646.800781 364.84375 C 651.414062 402.847656 655.523438 441.214844 655.523438 479.152344 C 655.949219 482.789062 656.238281 486.421875 656.4375 490.058594 C 657.554688 512.027344 654.882812 534.226562 653.542969 556.210938 C 653.253906 560.898438 652.980469 565.699219 654.070312 570.222656 C 660.488281 596.855469 713.101562 615.757812 678.410156 646.679688 Z M 678.410156 646.679688 " fill-opacity="1" fill-rule="nonzero"/><path fill="#ccb4a3" d="M 167.328125 303.625 C 163.5 300.546875 160.835938 295.773438 158.96875 291.089844 C 148.515625 264.882812 156.289062 232.898438 159.921875 205.808594 C 161.921875 190.933594 164.003906 184.425781 178.121094 179.222656 C 192.992188 173.929688 208.28125 170.507812 223.992188 168.960938 C 255.019531 165.578125 286.367188 168.015625 317.328125 170.886719 C 414.15625 179.875 516.148438 199.007812 612.730469 178.6875 C 622.988281 176.535156 638.09375 174.0625 646.570312 180.71875 C 656.132812 188.222656 656.804688 203.34375 658.730469 214.328125 C 664.558594 247.542969 675.183594 286.652344 647.804688 313.257812 C 645.882812 315.351562 643.597656 316.902344 640.9375 317.90625 C 635.304688 319.648438 622.429688 312.449219 616.527344 310.738281 C 605.945312 307.675781 595.359375 304.609375 584.71875 301.757812 C 563.363281 296.027344 541.757812 291.132812 519.792969 288.46875 C 476.335938 283.222656 432.722656 281.011719 388.957031 281.835938 C 355.617188 282.460938 323.070312 287.121094 290.035156 288.726562 C 256.175781 290.367188 222.023438 293.566406 189.640625 304.175781 C 184.113281 305.988281 178.203125 308.027344 172.613281 306.421875 C 170.664062 305.847656 168.898438 304.914062 167.328125 303.625 Z M 167.328125 303.625 " fill-opacity="1" fill-rule="nonzero"/><path fill="#ccb4a3" d="M 249.441406 604.011719 C 250.074219 604.332031 250.707031 604.660156 251.335938 604.988281 C 251.851562 605.261719 252.441406 605.65625 252.421875 606.242188 C 252.402344 606.765625 251.898438 607.121094 251.4375 607.371094 C 243.824219 611.515625 231.726562 610.503906 223.128906 611.234375 C 213.351562 612.054688 204.796875 608.035156 198.5 600.667969 C 191.792969 592.820312 184.621094 582.824219 183.207031 572.410156 C 188.074219 572.550781 191.519531 576.949219 195.082031 580.265625 C 204.011719 588.589844 216.59375 591.328125 228.183594 595.164062 C 235.492188 597.582031 242.578125 600.527344 249.441406 604.011719 Z M 249.441406 604.011719 " fill-opacity="1" fill-rule="nonzero"/><path fill="#ccb4a3" d="M 636.976562 599.761719 C 635.300781 592.867188 625.421875 593.328125 618.609375 595.296875 C 575.296875 607.804688 531.191406 616.136719 486.300781 620.292969 C 463.296875 622.425781 440.230469 623.441406 417.09375 623.339844 C 404.128906 623.285156 378.335938 614.910156 367.613281 623.722656 C 419.503906 625.675781 468.273438 661.398438 520.652344 652.734375 C 533.6875 650.578125 546.027344 645.5 558.238281 640.460938 L 625.886719 612.539062 C 631.589844 610.183594 638.4375 605.761719 636.976562 599.761719 Z M 636.976562 599.761719 " fill-opacity="1" fill-rule="nonzero"/><path fill="#a07a6a" d="M 306.75 281.75 C 287.035156 281.667969 267.234375 281.914062 247.757812 284.953125 C 241.527344 285.925781 235.335938 287.183594 229.058594 287.800781 C 221.539062 288.542969 188.65625 284.394531 184.464844 290.96875 C 178.425781 300.4375 212.648438 291.308594 215.964844 290.832031 C 231.257812 288.636719 246.714844 288.152344 262.109375 287.1875 C 276.675781 286.277344 292.414062 281.691406 306.75 281.75 Z M 306.75 281.75 " fill-opacity="1" fill-rule="nonzero"/><path fill="#a07a6a" d="M 621.390625 297.410156 C 628.734375 298.359375 637.152344 298.992188 642.582031 293.953125 C 647.359375 289.519531 648.007812 282.3125 648.34375 275.800781 C 648.960938 267.648438 648.988281 259.492188 648.425781 251.335938 C 647.730469 243.890625 645.816406 236.90625 644 229.71875 C 643.78125 228.851562 643.707031 227.667969 644.53125 227.324219 C 645.554688 226.898438 646.328125 228.308594 646.550781 229.394531 C 647.824219 235.644531 650.1875 241.050781 650.792969 247.414062 C 651.488281 254.722656 652.277344 262.078125 652.277344 269.433594 C 652.421875 272.328125 652.167969 275.1875 651.515625 278.007812 C 650.785156 280.683594 649.417969 283.160156 648.8125 285.863281 C 647.976562 289.59375 648.640625 293.484375 648.335938 297.292969 C 648.027344 301.097656 646.296875 305.277344 642.683594 306.511719 C 640.503906 307.042969 638.332031 307 636.175781 306.386719 C 617.183594 302.695312 598.054688 298.964844 580.136719 291.664062 C 593.964844 290.972656 607.738281 295.644531 621.390625 297.410156 Z M 621.390625 297.410156 " fill-opacity="1" fill-rule="nonzero"/><path fill="#a07a6a" d="M 642.914062 222.433594 C 641.199219 221.832031 640.53125 211.914062 641.175781 210.460938 C 641.234375 210.300781 641.324219 210.160156 641.441406 210.039062 C 641.5625 209.917969 641.699219 209.828125 641.855469 209.761719 C 642.007812 209.695312 642.171875 209.664062 642.339844 209.667969 C 642.511719 209.667969 642.671875 209.703125 642.828125 209.769531 C 643.210938 210.101562 643.417969 210.519531 643.445312 211.023438 C 644 214.042969 644.339844 217.085938 644.460938 220.148438 C 644.523438 220.703125 644.453125 221.238281 644.25 221.753906 C 644.136719 222.011719 643.957031 222.207031 643.703125 222.332031 C 643.453125 222.460938 643.1875 222.496094 642.914062 222.433594 Z M 642.914062 222.433594 " fill-opacity="1" fill-rule="nonzero"/><path fill="#a07a6a" d="M 642.902344 204.832031 C 642.949219 206.058594 641.523438 207.527344 640.460938 206.1875 C 640.101562 205.632812 639.914062 205.019531 639.910156 204.355469 C 639.683594 202.15625 639.261719 200.066406 638.960938 197.898438 C 638.867188 197.234375 638.871094 196.398438 639.460938 196.09375 C 639.875 195.914062 640.253906 195.96875 640.597656 196.257812 C 640.910156 196.527344 641.148438 196.847656 641.3125 197.226562 C 642.394531 199.644531 642.925781 202.179688 642.902344 204.832031 Z M 642.902344 204.832031 " fill-opacity="1" fill-rule="nonzero"/><path fill="#a07a6a" d="M 634.605469 184.335938 C 634.332031 183.949219 634.117188 183.53125 633.957031 183.082031 C 633.792969 182.59375 633.863281 182.148438 634.171875 181.734375 C 634.414062 181.507812 634.699219 181.382812 635.027344 181.355469 C 635.359375 181.324219 635.660156 181.402344 635.9375 181.585938 C 636.472656 181.957031 636.886719 182.4375 637.175781 183.027344 C 638.085938 184.609375 638.847656 186.257812 639.464844 187.976562 C 639.726562 188.6875 641.292969 193.816406 638.722656 192.808594 C 638.195312 192.53125 637.871094 192.101562 637.757812 191.515625 C 637 188.996094 635.949219 186.601562 634.605469 184.335938 Z M 634.605469 184.335938 " fill-opacity="1" fill-rule="nonzero"/><path fill="#ccb4a3" d="M 210.808594 490.589844 C 233.5625 488.878906 256.367188 492.03125 279.167969 492.847656 C 307.820312 493.875 336.457031 491.21875 365.074219 489.464844 C 383.828125 488.308594 403.113281 486.300781 421.617188 488.800781 C 449.578125 492.582031 476.308594 486.867188 504.011719 487.972656 C 535.03125 489.210938 565.984375 491.503906 596.871094 494.84375 C 615.34375 496.851562 633.816406 498.480469 650.574219 488.789062 C 602.621094 475.335938 549.488281 472.644531 499.960938 469.75 C 448.167969 466.726562 396.269531 466.34375 344.40625 465.90625 C 338.183594 465.851562 331.964844 465.796875 325.742188 465.742188 C 299.609375 465.492188 273.390625 465.261719 247.351562 467.878906 C 234.210938 469.125 221.230469 471.296875 208.402344 474.398438 C 192.8125 478.265625 177.800781 485.335938 161.625 486.378906 C 177.511719 494.941406 193.714844 491.878906 210.808594 490.589844 Z M 210.808594 490.589844 " fill-opacity="1" fill-rule="nonzero"/><path fill="#ccb4a3" d="M 628.332031 355.898438 C 634.011719 356.890625 640.921875 359.15625 641.710938 364.871094 C 642.289062 369.042969 639.027344 372.78125 635.527344 375.128906 C 626.089844 381.457031 614.078125 382.128906 602.71875 382.457031 C 506.71875 385.222656 410.523438 377.628906 314.667969 383.527344 C 293.375 384.839844 271.859375 386.804688 250.832031 383.226562 C 236.152344 380.726562 221.871094 375.550781 206.988281 375.011719 C 191.863281 374.46875 179.863281 374.039062 167.007812 364.621094 C 181.722656 352.351562 202.367188 350.941406 221.507812 350.089844 C 252.453125 348.710938 283.175781 346.777344 314.023438 344.625 C 381.503906 339.921875 449.3125 338.402344 516.851562 342.78125 C 554.25 345.132812 591.410156 349.503906 628.332031 355.898438 Z M 628.332031 355.898438 " fill-opacity="1" fill-rule="nonzero"/><path fill="#edd996" d="M 656.4375 490.058594 C 560.59375 486.660156 465.925781 481.042969 369.851562 484.878906 C 352.230469 485.582031 157.726562 487.246094 157.738281 487.398438 C 154.96875 446.1875 158.664062 405.003906 164.179688 364.003906 C 184.015625 359.898438 203.941406 356.304688 223.964844 353.226562 C 243.984375 350.144531 264.070312 347.582031 284.222656 345.535156 C 304.375 343.488281 324.570312 341.960938 344.800781 340.953125 C 365.03125 339.945312 385.277344 339.460938 405.53125 339.496094 C 425.789062 339.53125 446.03125 340.085938 466.257812 341.164062 C 486.488281 342.242188 506.671875 343.839844 526.820312 345.957031 C 546.964844 348.074219 567.042969 350.707031 587.054688 353.855469 C 607.0625 357.007812 626.980469 360.667969 646.800781 364.84375 C 651.414062 402.847656 655.523438 441.214844 655.523438 479.152344 C 655.949219 482.789062 656.238281 486.421875 656.4375 490.058594 Z M 656.4375 490.058594 " fill-opacity="1" fill-rule="nonzero"/><path fill="#e2b354" d="M 230.078125 158.980469 C 232.714844 156.183594 235.726562 153.867188 239.109375 152.035156 C 242.492188 150.207031 246.074219 148.949219 249.859375 148.265625 C 249.859375 148.265625 243.675781 157.332031 230.078125 158.980469 Z M 230.078125 158.980469 " fill-opacity="1" fill-rule="nonzero"/><path fill="#e2b354" d="M 273.644531 162.601562 C 275.933594 159.507812 278.648438 156.851562 281.789062 154.632812 C 284.929688 152.410156 288.335938 150.734375 292.015625 149.609375 C 292.015625 149.609375 286.953125 159.34375 273.644531 162.601562 Z M 273.644531 162.601562 " fill-opacity="1" fill-rule="nonzero"/><path fill="#e2b354" d="M 329.058594 132.910156 C 330.855469 129.507812 333.140625 126.472656 335.910156 123.808594 C 338.683594 121.140625 341.800781 118.972656 345.265625 117.304688 C 345.265625 117.304688 341.726562 127.691406 329.058594 132.910156 Z M 329.058594 132.910156 " fill-opacity="1" fill-rule="nonzero"/><path fill="#e2b354" d="M 306.90625 153.332031 C 308.691406 150.921875 310.804688 148.851562 313.253906 147.117188 C 315.703125 145.382812 318.363281 144.078125 321.230469 143.199219 C 320.4375 144.480469 319.523438 145.667969 318.492188 146.769531 C 317.460938 147.867188 316.328125 148.851562 315.097656 149.71875 C 313.867188 150.589844 312.5625 151.332031 311.183594 151.9375 C 309.804688 152.546875 308.378906 153.011719 306.90625 153.332031 Z M 306.90625 153.332031 " fill-opacity="1" fill-rule="nonzero"/><path fill="#e2b354" d="M 260.988281 153.625 C 262.253906 151.773438 263.6875 150.0625 265.289062 148.488281 C 266.890625 146.914062 268.625 145.511719 270.496094 144.273438 C 272.367188 143.039062 274.34375 141.992188 276.417969 141.140625 C 278.492188 140.285156 280.628906 139.636719 282.828125 139.199219 C 282.828125 139.199219 270.054688 151.566406 260.988281 153.625 Z M 260.988281 153.625 " fill-opacity="1" fill-rule="nonzero"/><path fill="#e2b354" d="M 296.019531 141.789062 C 297.289062 139.9375 298.722656 138.226562 300.320312 136.652344 C 301.921875 135.078125 303.65625 133.675781 305.53125 132.4375 C 307.402344 131.203125 309.375 130.15625 311.449219 129.300781 C 313.523438 128.449219 315.660156 127.800781 317.863281 127.363281 C 317.863281 127.363281 305.085938 139.726562 296.019531 141.789062 Z M 296.019531 141.789062 " fill-opacity="1" fill-rule="nonzero"/><path fill="#e2b354" d="M 353.894531 128.855469 C 352.691406 129.570312 352.128906 131.296875 351.269531 132.378906 C 350.125 133.796875 348.851562 135.09375 347.457031 136.261719 C 344.625 138.625 341.515625 140.535156 338.132812 141.992188 C 339.089844 141.570312 340.273438 139.253906 340.992188 138.429688 C 342.121094 137.027344 343.402344 135.78125 344.832031 134.691406 C 347.726562 132.675781 350.828125 130.683594 353.894531 128.855469 Z M 353.894531 128.855469 " fill-opacity="1" fill-rule="nonzero"/><path fill="#e2b354" d="M 366.152344 108.375 C 365.304688 108.933594 364.898438 110.285156 364.292969 111.132812 C 363.492188 112.234375 362.59375 113.25 361.597656 114.179688 C 359.621094 116.007812 357.421875 117.5 354.996094 118.664062 C 355.675781 118.332031 356.511719 116.519531 357.019531 115.871094 C 357.808594 114.789062 358.714844 113.8125 359.738281 112.945312 C 361.789062 111.363281 363.984375 109.804688 366.152344 108.375 Z M 366.152344 108.375 " fill-opacity="1" fill-rule="nonzero"/><path fill="#e2b354" d="M 331.257812 153.332031 C 330.410156 153.890625 330.011719 155.242188 329.402344 156.089844 C 328.597656 157.191406 327.699219 158.207031 326.703125 159.132812 C 324.730469 160.960938 322.53125 162.457031 320.105469 163.621094 C 320.78125 163.289062 321.621094 161.476562 322.128906 160.828125 C 322.914062 159.746094 323.820312 158.769531 324.847656 157.902344 C 326.902344 156.320312 329.09375 154.761719 331.257812 153.332031 Z M 331.257812 153.332031 " fill-opacity="1" fill-rule="nonzero"/><path fill="#e2b354" d="M 375.792969 127.363281 C 374.945312 127.921875 374.546875 129.269531 373.9375 130.121094 C 373.136719 131.222656 372.234375 132.234375 371.238281 133.164062 C 369.265625 134.992188 367.066406 136.488281 364.640625 137.648438 C 365.316406 137.316406 366.15625 135.503906 366.664062 134.859375 C 367.449219 133.773438 368.355469 132.796875 369.378906 131.933594 C 371.429688 130.351562 373.621094 128.789062 375.792969 127.363281 Z M 375.792969 127.363281 " fill-opacity="1" fill-rule="nonzero"/><path fill="#e2b354" d="M 355.273438 145.789062 C 354.558594 145.964844 354.113281 147.328125 353.699219 147.867188 C 353.054688 148.652344 352.328125 149.355469 351.515625 149.972656 C 349.921875 151.257812 348.152344 152.226562 346.210938 152.875 C 346.628906 151.964844 347.148438 151.121094 347.769531 150.335938 C 348.390625 149.550781 349.09375 148.847656 349.882812 148.234375 C 350.671875 147.617188 351.519531 147.101562 352.433594 146.6875 C 353.34375 146.277344 354.289062 145.976562 355.273438 145.789062 Z M 355.273438 145.789062 " fill-opacity="1" fill-rule="nonzero"/><path fill="#89634f" d="M 340.449219 364.21875 C 338.71875 363.507812 336.925781 363.015625 335.074219 362.738281 C 333.222656 362.460938 331.363281 362.402344 329.496094 362.574219 C 327.632812 362.742188 325.816406 363.128906 324.042969 363.734375 C 322.269531 364.339844 320.597656 365.144531 319.019531 366.152344 C 312.945312 370.09375 308.652344 376.957031 306.933594 385.480469 C 305.496094 392.636719 305.96875 399.75 306.433594 406.632812 L 308.335938 435.105469 C 308.371094 435.628906 308.5 436.125 308.722656 436.597656 C 308.949219 437.066406 309.25 437.484375 309.632812 437.839844 C 310.011719 438.195312 310.445312 438.46875 310.929688 438.664062 C 311.417969 438.855469 311.921875 438.949219 312.441406 438.949219 C 312.535156 438.949219 312.625 438.949219 312.71875 438.941406 C 312.988281 438.925781 313.253906 438.878906 313.515625 438.808594 C 313.777344 438.738281 314.03125 438.644531 314.273438 438.523438 C 314.515625 438.402344 314.742188 438.261719 314.957031 438.097656 C 315.171875 437.929688 315.367188 437.746094 315.546875 437.542969 C 315.722656 437.339844 315.882812 437.121094 316.015625 436.886719 C 316.152344 436.652344 316.261719 436.40625 316.347656 436.148438 C 316.433594 435.894531 316.496094 435.632812 316.53125 435.363281 C 316.566406 435.09375 316.574219 434.824219 316.554688 434.554688 L 315.125 413.144531 C 324.550781 419.84375 333.078125 427.539062 340.703125 436.238281 C 340.878906 436.445312 341.074219 436.636719 341.289062 436.804688 C 341.503906 436.972656 341.730469 437.121094 341.976562 437.246094 C 342.21875 437.367188 342.472656 437.46875 342.734375 437.539062 C 343 437.613281 343.265625 437.660156 343.539062 437.679688 C 343.8125 437.699219 344.085938 437.695312 344.355469 437.660156 C 344.625 437.625 344.890625 437.566406 345.152344 437.480469 C 345.410156 437.390625 345.65625 437.28125 345.894531 437.144531 C 346.132812 437.007812 346.351562 436.851562 346.558594 436.671875 C 346.765625 436.492188 346.949219 436.292969 347.117188 436.074219 C 347.28125 435.859375 347.425781 435.625 347.542969 435.378906 C 347.664062 435.136719 347.757812 434.878906 347.828125 434.617188 C 347.898438 434.351562 347.941406 434.082031 347.957031 433.808594 C 347.972656 433.535156 347.960938 433.265625 347.921875 432.996094 C 347.882812 432.722656 347.816406 432.460938 347.726562 432.203125 C 347.636719 431.945312 347.519531 431.699219 347.378906 431.464844 C 347.242188 431.230469 347.078125 431.011719 346.894531 430.808594 C 339.652344 422.542969 331.625 415.125 322.816406 408.554688 C 330.945312 407.585938 339.390625 405.488281 346.40625 400.144531 C 347.976562 399.027344 349.367188 397.714844 350.570312 396.210938 C 351.773438 394.707031 352.75 393.066406 353.496094 391.292969 C 354.105469 389.613281 354.46875 387.878906 354.582031 386.097656 C 354.695312 384.3125 354.550781 382.550781 354.15625 380.804688 C 353.761719 378.976562 353.15625 377.21875 352.339844 375.53125 C 351.523438 373.847656 350.519531 372.285156 349.328125 370.839844 C 348.132812 369.398438 346.789062 368.113281 345.285156 366.996094 C 343.785156 365.875 342.171875 364.949219 340.449219 364.21875 Z M 345.808594 388.328125 C 344.835938 390.492188 343.371094 392.242188 341.421875 393.585938 C 334.359375 398.964844 325 400.324219 314.347656 400.996094 C 314.003906 396.339844 314.226562 391.710938 315.019531 387.109375 C 316.273438 380.867188 319.371094 375.75 323.507812 373.070312 C 325.996094 371.496094 328.710938 370.714844 331.65625 370.730469 C 333.605469 370.722656 335.480469 371.085938 337.28125 371.824219 C 338.386719 372.304688 339.417969 372.902344 340.378906 373.625 C 341.339844 374.347656 342.203125 375.171875 342.96875 376.097656 C 343.734375 377.023438 344.382812 378.027344 344.910156 379.109375 C 345.4375 380.1875 345.832031 381.316406 346.09375 382.488281 C 346.554688 384.460938 346.460938 386.40625 345.808594 388.324219 Z M 345.808594 388.328125 " fill-opacity="1" fill-rule="nonzero"/><path fill="#89634f" d="M 371.800781 361.105469 C 371.53125 361.128906 371.269531 361.179688 371.007812 361.257812 C 370.75 361.332031 370.5 361.433594 370.261719 361.558594 C 370.019531 361.683594 369.792969 361.828125 369.585938 362 C 369.375 362.167969 369.179688 362.355469 369.007812 362.5625 C 368.832031 362.769531 368.683594 362.992188 368.550781 363.230469 C 368.421875 363.46875 368.316406 363.714844 368.234375 363.972656 C 368.152344 364.230469 368.097656 364.492188 368.070312 364.761719 C 368.039062 365.03125 368.039062 365.300781 368.0625 365.570312 C 370.117188 388.984375 371.25 412.765625 371.429688 436.261719 C 371.429688 436.527344 371.457031 436.796875 371.511719 437.058594 C 371.566406 437.324219 371.648438 437.578125 371.75 437.828125 C 371.855469 438.074219 371.984375 438.308594 372.132812 438.53125 C 372.285156 438.757812 372.453125 438.960938 372.644531 439.152344 C 372.835938 439.339844 373.042969 439.511719 373.269531 439.660156 C 373.492188 439.808594 373.730469 439.933594 373.976562 440.039062 C 374.226562 440.140625 374.484375 440.21875 374.746094 440.269531 C 375.011719 440.320312 375.277344 440.347656 375.546875 440.347656 L 375.578125 440.347656 C 375.851562 440.347656 376.117188 440.316406 376.382812 440.261719 C 376.648438 440.207031 376.90625 440.128906 377.152344 440.023438 C 377.402344 439.917969 377.640625 439.789062 377.863281 439.636719 C 378.085938 439.484375 378.292969 439.3125 378.484375 439.121094 C 378.671875 438.925781 378.839844 438.71875 378.988281 438.492188 C 379.136719 438.265625 379.261719 438.027344 379.367188 437.777344 C 379.46875 437.527344 379.542969 437.269531 379.59375 437.003906 C 379.644531 436.738281 379.667969 436.46875 379.667969 436.199219 C 379.488281 412.488281 378.34375 388.484375 376.265625 364.855469 C 376.242188 364.585938 376.195312 364.320312 376.121094 364.058594 C 376.046875 363.800781 375.945312 363.550781 375.820312 363.308594 C 375.695312 363.066406 375.550781 362.84375 375.378906 362.628906 C 375.210938 362.417969 375.023438 362.226562 374.816406 362.050781 C 374.605469 361.878906 374.382812 361.726562 374.148438 361.59375 C 373.910156 361.464844 373.660156 361.359375 373.402344 361.277344 C 373.144531 361.199219 372.878906 361.140625 372.609375 361.113281 C 372.339844 361.085938 372.070312 361.082031 371.800781 361.105469 Z M 371.800781 361.105469 " fill-opacity="1" fill-rule="nonzero"/><path fill="#89634f" d="M 438.019531 417.011719 C 437.757812 416.949219 437.488281 416.914062 437.21875 416.902344 C 436.949219 416.890625 436.679688 416.90625 436.414062 416.949219 C 436.144531 416.992188 435.886719 417.058594 435.632812 417.152344 C 435.378906 417.246094 435.136719 417.363281 434.90625 417.503906 C 434.675781 417.648438 434.460938 417.808594 434.261719 417.992188 C 434.0625 418.175781 433.882812 418.378906 433.726562 418.597656 C 433.566406 418.816406 433.429688 419.046875 433.316406 419.292969 C 433.203125 419.539062 433.113281 419.792969 433.050781 420.054688 C 432.554688 422.246094 431.660156 424.257812 430.367188 426.09375 C 429.074219 427.933594 427.480469 429.453125 425.589844 430.664062 C 424.695312 431.207031 423.753906 431.632812 422.757812 431.945312 C 421.757812 432.261719 420.742188 432.449219 419.699219 432.515625 C 418.65625 432.578125 417.621094 432.515625 416.59375 432.328125 C 415.566406 432.140625 414.578125 431.832031 413.625 431.402344 C 405.425781 427.347656 402.078125 419.265625 400.714844 413.199219 C 397.972656 401.015625 400.898438 385.949219 407.671875 377.375 C 408.152344 376.773438 408.675781 376.210938 409.242188 375.6875 C 409.808594 375.160156 410.414062 374.683594 411.050781 374.25 C 411.691406 373.820312 412.359375 373.4375 413.054688 373.105469 C 413.753906 372.773438 414.46875 372.5 415.207031 372.277344 C 415.949219 372.054688 416.699219 371.886719 417.460938 371.78125 C 418.226562 371.671875 418.996094 371.621094 419.765625 371.628906 C 420.539062 371.636719 421.304688 371.703125 422.066406 371.828125 C 422.828125 371.953125 423.574219 372.132812 424.308594 372.371094 C 427.066406 373.359375 431.65625 376.144531 431.503906 383.691406 C 431.496094 383.960938 431.519531 384.230469 431.566406 384.496094 C 431.613281 384.765625 431.6875 385.023438 431.785156 385.273438 C 431.882812 385.527344 432.003906 385.765625 432.148438 385.996094 C 432.296875 386.222656 432.460938 386.433594 432.648438 386.628906 C 432.835938 386.824219 433.039062 387 433.261719 387.152344 C 433.484375 387.308594 433.71875 387.441406 433.964844 387.550781 C 434.214844 387.65625 434.46875 387.742188 434.734375 387.800781 C 435 387.859375 435.265625 387.890625 435.535156 387.894531 L 435.621094 387.894531 C 436.160156 387.894531 436.679688 387.792969 437.175781 387.589844 C 437.675781 387.386719 438.117188 387.09375 438.503906 386.71875 C 438.886719 386.339844 439.1875 385.90625 439.398438 385.410156 C 439.613281 384.917969 439.726562 384.398438 439.738281 383.863281 C 439.925781 374.722656 435.199219 367.527344 427.089844 364.617188 C 425.953125 364.230469 424.792969 363.933594 423.609375 363.726562 C 422.429688 363.519531 421.238281 363.402344 420.035156 363.378906 C 418.835938 363.355469 417.640625 363.421875 416.449219 363.582031 C 415.257812 363.742188 414.089844 363.992188 412.9375 364.332031 C 411.785156 364.671875 410.667969 365.101562 409.582031 365.613281 C 408.492188 366.125 407.453125 366.71875 406.457031 367.390625 C 405.464844 368.0625 404.527344 368.808594 403.648438 369.625 C 402.765625 370.441406 401.953125 371.320312 401.210938 372.265625 C 392.890625 382.792969 389.382812 400.367188 392.675781 415.003906 C 395.164062 426.050781 401.308594 434.496094 409.972656 438.78125 C 412.746094 440.136719 415.671875 440.804688 418.757812 440.789062 C 422.71875 440.78125 426.402344 439.761719 429.808594 437.730469 C 431.21875 436.855469 432.53125 435.847656 433.746094 434.710938 C 434.957031 433.578125 436.046875 432.332031 437.011719 430.980469 C 437.980469 429.628906 438.804688 428.191406 439.484375 426.675781 C 440.164062 425.160156 440.691406 423.59375 441.0625 421.972656 C 441.125 421.710938 441.160156 421.445312 441.171875 421.175781 C 441.179688 420.902344 441.164062 420.636719 441.121094 420.367188 C 441.078125 420.101562 441.011719 419.84375 440.917969 419.589844 C 440.824219 419.335938 440.707031 419.09375 440.566406 418.863281 C 440.425781 418.632812 440.261719 418.417969 440.078125 418.21875 C 439.894531 418.023438 439.695312 417.84375 439.476562 417.683594 C 439.257812 417.527344 439.027344 417.390625 438.78125 417.277344 C 438.535156 417.164062 438.28125 417.074219 438.019531 417.011719 Z M 438.019531 417.011719 " fill-opacity="1" fill-rule="nonzero"/><path fill="#89634f" d="M 497.894531 430.046875 C 497.773438 429.800781 497.632812 429.574219 497.46875 429.359375 C 497.304688 429.144531 497.121094 428.945312 496.917969 428.765625 C 496.714844 428.585938 496.496094 428.429688 496.261719 428.292969 C 496.027344 428.15625 495.785156 428.046875 495.527344 427.957031 C 495.273438 427.871094 495.007812 427.808594 494.742188 427.773438 C 494.472656 427.734375 494.203125 427.726562 493.933594 427.742188 C 493.664062 427.761719 493.398438 427.804688 493.136719 427.871094 C 492.875 427.941406 492.621094 428.035156 492.378906 428.15625 C 487.015625 430.777344 475.675781 432.476562 468.25 432.542969 C 464.648438 432.59375 464.011719 431.722656 463.988281 431.6875 C 463.761719 431.15625 463.605469 430.605469 463.53125 430.035156 C 461.859375 421.316406 460.859375 412.527344 460.523438 403.65625 C 464.582031 403.328125 468.691406 403.261719 472.9375 403.195312 C 475.070312 403.164062 477.21875 403.132812 479.386719 403.066406 C 479.65625 403.054688 479.925781 403.023438 480.1875 402.960938 C 480.453125 402.898438 480.707031 402.8125 480.953125 402.703125 C 481.199219 402.59375 481.433594 402.457031 481.652344 402.300781 C 481.875 402.144531 482.078125 401.96875 482.261719 401.769531 C 482.445312 401.574219 482.613281 401.359375 482.753906 401.128906 C 482.898438 400.902344 483.019531 400.660156 483.113281 400.40625 C 483.210938 400.15625 483.28125 399.894531 483.324219 399.628906 C 483.367188 399.359375 483.386719 399.09375 483.378906 398.824219 C 483.371094 398.550781 483.335938 398.285156 483.277344 398.023438 C 483.214844 397.757812 483.128906 397.503906 483.019531 397.257812 C 482.90625 397.011719 482.773438 396.777344 482.617188 396.554688 C 482.457031 396.335938 482.28125 396.132812 482.085938 395.949219 C 481.886719 395.761719 481.675781 395.597656 481.445312 395.457031 C 481.214844 395.3125 480.976562 395.191406 480.722656 395.097656 C 480.46875 395 480.210938 394.929688 479.941406 394.886719 C 479.675781 394.839844 479.40625 394.824219 479.136719 394.832031 C 477.015625 394.894531 474.910156 394.929688 472.820312 394.957031 C 468.753906 395.015625 464.605469 395.082031 460.410156 395.40625 C 460.464844 388.917969 460.875 382.457031 461.644531 376.015625 C 461.738281 375.261719 461.945312 373.507812 462.460938 373.070312 C 463.339844 372.628906 464.269531 372.371094 465.25 372.292969 C 473.328125 371.125 481.359375 371.394531 489.34375 373.097656 C 489.609375 373.15625 489.875 373.183594 490.144531 373.191406 C 490.414062 373.195312 490.683594 373.171875 490.949219 373.125 C 491.214844 373.074219 491.476562 373 491.726562 372.902344 C 491.976562 372.804688 492.21875 372.679688 492.445312 372.53125 C 492.671875 372.386719 492.882812 372.21875 493.078125 372.03125 C 493.269531 371.84375 493.445312 371.636719 493.597656 371.414062 C 493.753906 371.191406 493.882812 370.957031 493.992188 370.710938 C 494.097656 370.460938 494.179688 370.207031 494.238281 369.941406 C 494.296875 369.675781 494.324219 369.410156 494.332031 369.140625 C 494.335938 368.867188 494.3125 368.601562 494.265625 368.335938 C 494.214844 368.066406 494.140625 367.808594 494.042969 367.558594 C 493.941406 367.304688 493.820312 367.066406 493.671875 366.839844 C 493.527344 366.613281 493.359375 366.402344 493.171875 366.207031 C 492.984375 366.011719 492.777344 365.839844 492.554688 365.683594 C 492.332031 365.53125 492.097656 365.402344 491.851562 365.292969 C 491.601562 365.183594 491.347656 365.101562 491.082031 365.046875 C 482.128906 363.132812 473.121094 362.832031 464.058594 364.140625 C 461.472656 364.347656 459.152344 365.238281 457.097656 366.816406 C 454.152344 369.34375 453.707031 373.042969 453.464844 375.03125 C 452.609375 382.136719 452.171875 389.273438 452.152344 396.429688 C 451.703125 396.511719 451.257812 396.582031 450.808594 396.667969 C 450.542969 396.71875 450.28125 396.789062 450.027344 396.890625 C 449.773438 396.988281 449.53125 397.113281 449.304688 397.257812 C 449.074219 397.40625 448.863281 397.574219 448.667969 397.761719 C 448.472656 397.953125 448.296875 398.160156 448.140625 398.382812 C 447.988281 398.605469 447.855469 398.84375 447.75 399.09375 C 447.640625 399.34375 447.558594 399.601562 447.5 399.867188 C 447.445312 400.132812 447.414062 400.402344 447.414062 400.675781 C 447.410156 400.945312 447.433594 401.214844 447.484375 401.484375 C 447.535156 401.75 447.609375 402.011719 447.710938 402.261719 C 447.8125 402.515625 447.941406 402.753906 448.089844 402.984375 C 448.238281 403.210938 448.410156 403.421875 448.601562 403.613281 C 448.792969 403.808594 449 403.980469 449.226562 404.132812 C 449.449219 404.285156 449.6875 404.414062 449.941406 404.519531 C 450.191406 404.625 450.449219 404.703125 450.71875 404.757812 C 450.984375 404.808594 451.253906 404.835938 451.523438 404.835938 C 451.796875 404.835938 452.066406 404.808594 452.332031 404.757812 C 452.710938 413.773438 453.746094 422.714844 455.4375 431.578125 C 455.6875 433.371094 456.3125 435.019531 457.316406 436.523438 C 460.230469 440.53125 465.527344 440.773438 467.835938 440.773438 L 468.320312 440.773438 C 475.011719 440.710938 488.441406 439.238281 495.992188 435.546875 C 496.234375 435.425781 496.464844 435.285156 496.679688 435.125 C 496.894531 434.960938 497.089844 434.777344 497.269531 434.574219 C 497.449219 434.371094 497.609375 434.15625 497.742188 433.921875 C 497.878906 433.6875 497.992188 433.445312 498.082031 433.1875 C 498.167969 432.933594 498.230469 432.671875 498.269531 432.40625 C 498.304688 432.136719 498.316406 431.867188 498.300781 431.597656 C 498.285156 431.328125 498.242188 431.0625 498.171875 430.800781 C 498.105469 430.539062 498.011719 430.289062 497.894531 430.046875 Z M 497.894531 430.046875 " fill-opacity="1" fill-rule="nonzero"/></svg>