<svg xmlns="http://www.w3.org/2000/svg" xmlns:xlink="http://www.w3.org/1999/xlink" width="1080" zoomAndPan="magnify" viewBox="0 0 810 809.999993" height="1080" preserveAspectRatio="xMidYMid meet" version="1.0"><defs><filter x="0%" y="0%" width="100%" height="100%" id="5ed0068b13"><feColorMatrix values="0 0 0 0 1 0 0 0 0 1 0 0 0 0 1 0 0 0 1 0" color-interpolation-filters="sRGB"/></filter><clipPath id="ecacbfa4e0"><path d="M 303 107.050781 L 690 107.050781 L 690 335 L 303 335 Z M 303 107.050781 " clip-rule="nonzero"/></clipPath><mask id="8ae34b8250"><g filter="url(#5ed0068b13)"><rect x="-81" width="972" fill="#000000" y="-80.999999" height="971.999992" fill-opacity="0.2"/></g></mask><clipPath id="bfe993b006"><path d="M 396 0.121094 L 405 0.121094 L 405 5 L 396 5 Z M 396 0.121094 " clip-rule="nonzero"/></clipPath><clipPath id="a319245245"><rect x="0" width="418" y="0" height="152"/></clipPath><clipPath id="e16b450833"><path d="M 441 251 L 710.25 251 L 710.25 411 L 441 411 Z M 441 251 " clip-rule="nonzero"/></clipPath></defs><path stroke-linecap="butt" transform="matrix(0.75, 0, 0, 0.75, 275.39999, 403.5)" fill="none" stroke-linejoin="miter" d="M -0.00206953 2.000001 L 345.602115 2.000001 " stroke="#ffffff" stroke-width="4" stroke-opacity="1" stroke-miterlimit="4"/><path fill="#fff8dc" d="M 307.464844 264.539062 C 305.605469 230.960938 427.984375 109.46875 493.066406 111.800781 C 558.148438 114.128906 681.742188 248.300781 685.238281 264.539062 C 688.738281 280.777344 625.773438 329.429688 559.316406 330.738281 C 492.859375 332.050781 309.792969 306.570312 307.464844 264.539062 Z M 307.464844 264.539062 " fill-opacity="1" fill-rule="nonzero"/><path fill="#5e2e0d" d="M 584.03125 314.339844 C 520.097656 315.605469 343.996094 291.089844 341.757812 250.660156 C 340.277344 223.960938 420.433594 139.5 483.644531 112.253906 C 416.882812 120.566406 305.691406 232.523438 307.464844 264.539062 C 309.792969 306.570312 492.855469 332.050781 559.316406 330.738281 C 604.09375 329.855469 647.28125 307.484375 669.625 288.011719 C 646.929688 301.769531 615.898438 313.714844 584.03125 314.339844 Z M 584.03125 314.339844 " fill-opacity="0.2" fill-rule="nonzero"/><g clip-path="url(#ecacbfa4e0)"><path fill="#5e2e0d" d="M 554.296875 334.882812 C 521.050781 334.882812 462.328125 329.25 408.496094 317.898438 C 378.464844 311.570312 354.335938 304.382812 336.78125 296.539062 C 314.945312 286.78125 304.019531 276.390625 303.375 264.765625 C 302.195312 243.523438 339.382812 203.882812 350.808594 192.238281 C 373.046875 169.574219 398.335938 148.808594 422.019531 133.773438 C 449.9375 116.050781 474.542969 107.046875 493.214844 107.707031 C 531.539062 109.078125 585.96875 153.542969 615.003906 179.925781 C 651.574219 213.152344 686.957031 253.074219 689.242188 263.675781 C 690.210938 268.167969 688.132812 273.695312 683.054688 280.101562 C 673.691406 291.925781 655.78125 305.0625 635.140625 315.234375 C 617.683594 323.835938 590.371094 334.222656 559.394531 334.832031 C 557.773438 334.867188 556.070312 334.882812 554.296875 334.882812 Z M 311.554688 264.3125 C 312 272.351562 321.878906 280.910156 340.125 289.0625 C 357.148438 296.667969 380.722656 303.675781 410.1875 309.886719 C 466.289062 321.710938 527.632812 327.273438 559.234375 326.644531 C 609.953125 325.644531 660 296.015625 676.628906 275.023438 C 681.625 268.714844 681.339844 265.902344 681.234375 265.402344 C 679.925781 259.328125 650.96875 223.671875 609.492188 185.988281 C 560.789062 141.730469 519.390625 116.839844 492.921875 115.890625 C 492.339844 115.871094 491.753906 115.859375 491.160156 115.859375 C 453.921875 115.859375 397.046875 156.808594 356.660156 197.96875 C 329.042969 226.117188 310.917969 252.777344 311.554688 264.3125 Z M 311.554688 264.3125 " fill-opacity="1" fill-rule="nonzero"/></g><path fill="#fcb07a" d="M 290.011719 584.882812 C 273.488281 618.152344 295.203125 629.03125 312.304688 627.175781 C 329.410156 625.316406 446.65625 683.785156 546.136719 661.277344 C 578.171875 654.03125 610.515625 647.914062 643.15625 644.164062 C 657.574219 642.511719 695.777344 646.355469 703.253906 631.191406 C 704.722656 628.21875 704.824219 624.769531 704.683594 621.460938 C 703.875 602.558594 694.082031 586.476562 696.691406 567.125 C 710.003906 468.425781 682.136719 395.957031 692.609375 348.824219 C 692.558594 349.054688 686.8125 348.972656 686.464844 348.980469 L 605.128906 351.027344 L 475.246094 354.300781 L 355.757812 357.316406 L 334.414062 357.851562 C 328.648438 358 318.984375 356.308594 313.757812 357.964844 C 307.097656 360.074219 308.546875 371.027344 307.792969 376.726562 C 306.507812 385.6875 304.753906 394.550781 302.527344 403.324219 C 298.28125 420.886719 293.199219 438.382812 291.761719 456.476562 C 289.984375 478.824219 293.804688 501.0625 295.828125 523.253906 C 297.660156 543.359375 299.25 566.277344 290.011719 584.882812 Z M 290.011719 584.882812 " fill-opacity="1" fill-rule="nonzero"/><path fill="#fff8dc" d="M 679.222656 549.273438 C 678.808594 543.859375 678.710938 538.507812 678.597656 533.164062 C 678.519531 527.824219 678.488281 522.496094 678.511719 517.179688 C 678.519531 511.859375 678.578125 506.542969 678.734375 501.214844 C 678.886719 495.890625 679.097656 490.554688 679.660156 485.179688 C 679.683594 484.9375 679.753906 484.707031 679.859375 484.488281 C 679.96875 484.273438 680.113281 484.078125 680.289062 483.914062 C 680.46875 483.746094 680.667969 483.613281 680.894531 483.519531 C 681.117188 483.425781 681.351562 483.371094 681.59375 483.359375 C 681.839844 483.351562 682.074219 483.382812 682.308594 483.457031 C 682.539062 483.53125 682.753906 483.640625 682.945312 483.792969 C 683.136719 483.941406 683.296875 484.121094 683.421875 484.328125 C 683.550781 484.535156 683.636719 484.761719 683.6875 485 C 684.679688 490.332031 685.304688 495.707031 685.558594 501.125 C 685.855469 506.523438 685.875 511.929688 685.652344 517.335938 C 685.429688 522.738281 684.980469 528.132812 684.269531 533.5 C 683.578125 538.890625 682.527344 544.210938 681.125 549.464844 C 681.0625 549.691406 680.933594 549.871094 680.738281 550.003906 C 680.542969 550.136719 680.332031 550.191406 680.097656 550.167969 C 679.863281 550.144531 679.664062 550.050781 679.496094 549.882812 C 679.332031 549.714844 679.242188 549.511719 679.222656 549.277344 Z M 679.222656 549.273438 " fill-opacity="0.3" fill-rule="nonzero"/><path fill="#fff8dc" d="M 677.320312 575.105469 C 676.34375 573.8125 675.648438 572.382812 675.230469 570.816406 C 674.828125 569.332031 674.632812 567.824219 674.640625 566.289062 C 674.648438 564.792969 674.867188 563.328125 675.289062 561.890625 C 675.683594 560.4375 676.324219 559.105469 677.210938 557.886719 L 677.234375 557.859375 C 677.484375 557.527344 677.796875 557.28125 678.179688 557.121094 C 678.5625 556.957031 678.960938 556.902344 679.371094 556.957031 C 679.785156 557.007812 680.15625 557.164062 680.484375 557.414062 C 680.8125 557.667969 681.058594 557.988281 681.214844 558.371094 C 681.769531 559.789062 682.050781 561.257812 682.0625 562.78125 C 682.085938 564.136719 681.988281 565.480469 681.773438 566.8125 C 681.570312 568.148438 681.28125 569.46875 680.914062 570.765625 C 680.507812 572.222656 679.945312 573.617188 679.222656 574.949219 L 679.214844 574.964844 C 679.140625 575.097656 679.046875 575.207031 678.925781 575.300781 C 678.808594 575.394531 678.675781 575.464844 678.53125 575.503906 C 678.386719 575.546875 678.238281 575.558594 678.085938 575.539062 C 677.9375 575.523438 677.796875 575.476562 677.664062 575.402344 C 677.53125 575.328125 677.414062 575.226562 677.320312 575.105469 Z M 677.320312 575.105469 " fill-opacity="0.3" fill-rule="nonzero"/><path fill="#5e2e0d" d="M 673.773438 636.449219 C 640.480469 640.269531 607.492188 646.507812 574.816406 653.902344 C 473.351562 676.859375 353.761719 617.222656 336.320312 619.117188 C 318.875 621.015625 296.726562 609.917969 313.578125 575.980469 C 323.003906 557.003906 321.378906 533.628906 319.511719 513.125 C 317.445312 490.492188 313.550781 467.808594 315.363281 445.015625 C 316.828125 426.5625 322.011719 408.71875 326.34375 390.800781 C 328.613281 381.851562 330.40625 372.8125 331.71875 363.675781 C 331.933594 362.042969 331.972656 359.992188 332.066406 357.835938 C 326.285156 357.632812 318.328125 356.527344 313.761719 357.972656 C 307.097656 360.082031 308.550781 371.03125 307.796875 376.734375 C 306.507812 385.691406 304.753906 394.554688 302.53125 403.328125 C 298.28125 420.894531 293.199219 438.386719 291.761719 456.480469 C 289.988281 478.828125 293.804688 501.066406 295.828125 523.261719 C 297.664062 543.363281 299.253906 566.277344 290.015625 584.882812 C 273.488281 618.15625 295.203125 629.035156 312.308594 627.175781 C 329.414062 625.320312 446.660156 683.785156 546.140625 661.277344 C 578.171875 654.03125 610.515625 647.914062 643.160156 644.167969 C 656.007812 642.691406 687.738281 645.582031 699.789062 635.5 C 689.601562 636 679.710938 635.765625 673.773438 636.449219 Z M 673.773438 636.449219 " fill-opacity="0.2" fill-rule="nonzero"/><path fill="#5e2e0d" d="M 497.164062 670.5 C 438.046875 670.5 379.382812 651.363281 344.277344 639.910156 C 329.359375 635.042969 316.476562 630.839844 312.75 631.246094 C 303.378906 632.261719 290.972656 629.9375 284.28125 620.351562 C 279.894531 614.066406 276.691406 602.496094 286.34375 583.0625 L 290.015625 584.882812 L 286.34375 583.0625 C 294.789062 566.054688 293.71875 545.246094 291.75 523.628906 C 291.261719 518.296875 290.660156 512.847656 290.078125 507.582031 C 288.222656 490.816406 286.304688 473.480469 287.675781 456.15625 C 288.878906 441.054688 292.578125 426.296875 296.152344 412.027344 C 296.960938 408.804688 297.769531 405.585938 298.546875 402.367188 C 300.730469 393.734375 302.460938 385.007812 303.738281 376.195312 C 303.878906 375.121094 303.933594 373.683594 303.992188 372.164062 C 304.234375 365.957031 304.59375 356.578125 312.527344 354.070312 C 316.710938 352.746094 322.339844 353.125 327.78125 353.492188 C 330.230469 353.65625 332.542969 353.808594 334.316406 353.765625 L 686.363281 344.886719 C 686.4375 344.886719 686.71875 344.886719 687.128906 344.886719 C 690.445312 344.910156 691.53125 344.871094 691.859375 344.832031 C 691.464844 344.902344 691.089844 345.027344 690.730469 345.207031 C 690.375 345.386719 690.050781 345.613281 689.761719 345.890625 C 689.472656 346.167969 689.230469 346.480469 689.035156 346.828125 C 688.839844 347.179688 688.699219 347.546875 688.613281 347.9375 L 696.613281 349.710938 L 696.613281 349.714844 C 692.097656 370.046875 695.058594 396.222656 698.484375 426.535156 C 702.816406 464.8125 708.203125 512.449219 700.757812 567.675781 C 699.359375 578.042969 701.816406 587.492188 704.421875 597.496094 C 706.386719 605.046875 708.421875 612.855469 708.78125 621.285156 C 708.9375 624.917969 708.839844 629.148438 706.933594 633.003906 C 700.09375 646.871094 674.890625 647.34375 656.492188 647.691406 C 651.285156 647.789062 646.792969 647.871094 643.628906 648.234375 C 614.570312 651.570312 582.976562 657.144531 547.046875 665.273438 C 530.730469 668.960938 513.925781 670.5 497.164062 670.5 Z M 313.175781 623.039062 C 318.699219 623.039062 328.460938 626.136719 346.820312 632.125 C 391.128906 646.582031 473.609375 673.488281 545.230469 657.285156 C 581.453125 649.085938 613.332031 643.464844 642.6875 640.097656 C 646.238281 639.691406 650.914062 639.605469 656.328125 639.5 C 671.707031 639.210938 694.941406 638.777344 699.578125 629.382812 C 700.660156 627.183594 700.703125 624.359375 700.585938 621.632812 C 700.261719 614.074219 698.421875 607.019531 696.484375 599.554688 C 693.792969 589.222656 691.011719 578.542969 692.625 566.582031 C 699.941406 512.359375 694.613281 465.28125 690.335938 427.453125 C 687.097656 398.824219 684.265625 373.796875 687.621094 353.082031 L 686.523438 353.082031 L 334.519531 361.949219 C 332.367188 362.007812 329.867188 361.835938 327.222656 361.660156 C 322.980469 361.371094 317.703125 361.015625 314.996094 361.875 C 312.554688 362.648438 312.339844 368.328125 312.175781 372.476562 C 312.109375 374.195312 312.046875 375.816406 311.855469 377.269531 C 310.546875 386.367188 308.761719 395.375 306.511719 404.289062 C 305.726562 407.53125 304.914062 410.773438 304.101562 414.019531 C 300.605469 427.960938 296.988281 442.382812 295.84375 456.804688 C 294.53125 473.351562 296.40625 490.296875 298.21875 506.679688 C 298.808594 511.988281 299.414062 517.476562 299.910156 522.886719 C 301.988281 545.71875 303.078125 567.78125 293.683594 586.703125 C 287.457031 599.242188 286.527344 609.257812 291 615.664062 C 295.648438 622.324219 305.144531 623.835938 311.863281 623.105469 C 312.300781 623.058594 312.738281 623.035156 313.175781 623.039062 Z M 313.175781 623.039062 " fill-opacity="1" fill-rule="nonzero"/><path fill="#ffc98f" d="M 683.019531 256.789062 C 694.289062 250.9375 699.0625 271.191406 699.429688 278.167969 C 699.722656 283.8125 700.019531 289.492188 699.261719 295.09375 C 698.664062 299.5 697.425781 303.796875 696.8125 308.199219 C 695.980469 314.222656 696.304688 320.1875 697.785156 326.085938 C 699.210938 331.785156 702.605469 335.996094 703.808594 341.703125 C 706.0625 352.402344 706.015625 362.730469 701.929688 372.710938 C 701.507812 373.746094 700.925781 374.683594 700.1875 375.519531 C 699.445312 376.355469 698.585938 377.046875 697.609375 377.589844 C 601.710938 430.4375 314.867188 394.175781 301.929688 386.019531 C 288.859375 377.777344 278.355469 358.042969 287.742188 333.519531 C 296.035156 311.851562 272.519531 293.222656 291.011719 274.519531 C 295.5625 269.914062 301.324219 266.683594 307.464844 264.539062 C 309.015625 263.996094 310.605469 263.792969 312.242188 263.925781 C 313.878906 264.058594 315.414062 264.515625 316.855469 265.300781 C 335.828125 275.648438 366.46875 277.53125 386.457031 281.113281 C 417.074219 286.691406 447.921875 290.335938 478.996094 292.050781 C 546.683594 295.597656 617.980469 289.351562 679.414062 258.628906 C 680.617188 258.027344 681.820312 257.414062 683.019531 256.789062 Z M 683.019531 256.789062 " fill-opacity="1" fill-rule="nonzero"/><path fill="#fff8dc" d="M 565.605469 308.941406 C 567.75 308.457031 569.898438 308.015625 572.042969 307.59375 C 574.183594 307.121094 576.328125 306.703125 578.46875 306.269531 L 591.257812 303.542969 C 599.757812 301.679688 608.203125 299.683594 616.589844 297.488281 C 624.972656 295.292969 633.277344 292.871094 641.578125 290.402344 L 654.03125 286.613281 C 656.09375 285.945312 658.179688 285.308594 660.273438 284.6875 C 662.355469 284.039062 664.441406 283.386719 666.566406 282.8125 L 666.617188 282.796875 C 666.867188 282.730469 667.117188 282.710938 667.375 282.734375 C 667.628906 282.757812 667.871094 282.824219 668.105469 282.9375 C 668.335938 283.046875 668.539062 283.195312 668.714844 283.382812 C 668.894531 283.566406 669.035156 283.777344 669.132812 284.015625 C 669.234375 284.25 669.292969 284.496094 669.304688 284.753906 C 669.316406 285.007812 669.285156 285.261719 669.207031 285.503906 C 669.125 285.75 669.007812 285.972656 668.847656 286.171875 C 668.691406 286.375 668.5 286.542969 668.28125 286.675781 C 666.375 287.832031 664.429688 288.910156 662.476562 289.992188 C 660.5 291.007812 658.511719 292.007812 656.507812 292.980469 C 654.488281 293.90625 652.457031 294.8125 650.414062 295.699219 C 648.355469 296.550781 646.285156 297.367188 644.214844 298.175781 C 635.867188 301.296875 627.355469 303.855469 618.675781 305.863281 C 610.027344 307.90625 601.296875 309.484375 592.480469 310.605469 L 585.875 311.355469 C 583.664062 311.550781 581.460938 311.75 579.25 311.910156 C 577.039062 312.042969 574.832031 312.195312 572.621094 312.28125 C 570.40625 312.359375 568.195312 312.410156 565.980469 312.425781 C 565.761719 312.425781 565.550781 312.390625 565.347656 312.3125 C 565.144531 312.238281 564.964844 312.125 564.800781 311.984375 C 564.636719 311.839844 564.507812 311.671875 564.40625 311.476562 C 564.304688 311.285156 564.242188 311.082031 564.21875 310.867188 C 564.195312 310.652344 564.210938 310.4375 564.261719 310.226562 C 564.316406 310.015625 564.40625 309.824219 564.53125 309.648438 C 564.660156 309.46875 564.8125 309.320312 564.992188 309.199219 C 565.171875 309.082031 565.371094 308.996094 565.582031 308.949219 Z M 565.605469 308.941406 " fill-opacity="0.6" fill-rule="nonzero"/><path fill="#fff8dc" d="M 524.152344 312.027344 C 526.484375 311.40625 528.839844 310.929688 531.230469 310.601562 C 533.585938 310.257812 535.941406 310.003906 538.300781 309.824219 C 540.660156 309.613281 543.023438 309.535156 545.390625 309.582031 C 547.816406 309.613281 550.207031 309.902344 552.570312 310.449219 C 552.765625 310.496094 552.941406 310.582031 553.105469 310.699219 C 553.265625 310.820312 553.398438 310.964844 553.5 311.136719 C 553.605469 311.308594 553.671875 311.492188 553.703125 311.691406 C 553.730469 311.890625 553.722656 312.085938 553.671875 312.28125 C 553.546875 312.769531 553.253906 313.113281 552.789062 313.3125 C 550.511719 314.210938 548.160156 314.824219 545.734375 315.152344 C 543.359375 315.492188 540.972656 315.667969 538.574219 315.679688 C 536.179688 315.722656 533.785156 315.65625 531.386719 315.46875 C 528.964844 315.292969 526.570312 314.941406 524.199219 314.40625 C 523.925781 314.34375 523.699219 314.203125 523.523438 313.984375 C 523.347656 313.765625 523.257812 313.515625 523.25 313.234375 C 523.246094 312.953125 523.328125 312.703125 523.496094 312.476562 C 523.664062 312.253906 523.882812 312.101562 524.152344 312.027344 Z M 524.152344 312.027344 " fill-opacity="0.6" fill-rule="nonzero"/><path fill="#fff8dc" d="M 358.296875 296.335938 C 362.003906 296.265625 365.671875 296.476562 369.347656 296.742188 C 373.015625 297.035156 376.683594 297.457031 380.351562 298.039062 C 382.175781 298.3125 384.054688 298.691406 385.828125 299.035156 C 387.621094 299.398438 389.414062 299.785156 391.195312 300.214844 C 394.796875 301.046875 398.332031 302.097656 401.808594 303.363281 L 401.84375 303.378906 C 402.039062 303.449219 402.214844 303.554688 402.375 303.6875 C 402.535156 303.824219 402.667969 303.980469 402.773438 304.160156 C 402.875 304.339844 402.949219 304.535156 402.984375 304.738281 C 403.023438 304.945312 403.023438 305.148438 402.988281 305.355469 C 402.953125 305.558594 402.886719 305.753906 402.78125 305.9375 C 402.679688 306.117188 402.550781 306.277344 402.390625 306.414062 C 402.234375 306.550781 402.058594 306.65625 401.863281 306.730469 C 401.667969 306.804688 401.46875 306.84375 401.257812 306.847656 C 397.542969 306.90625 393.839844 306.734375 390.148438 306.335938 C 388.308594 306.160156 386.476562 305.9375 384.648438 305.6875 C 383.726562 305.554688 382.824219 305.433594 381.945312 305.28125 L 379.261719 304.855469 C 375.679688 304.28125 372.078125 303.671875 368.472656 302.941406 C 364.835938 302.226562 361.25 301.316406 357.714844 300.210938 C 357.492188 300.140625 357.289062 300.03125 357.101562 299.886719 C 356.917969 299.738281 356.765625 299.566406 356.640625 299.367188 C 356.515625 299.167969 356.433594 298.953125 356.386719 298.722656 C 356.339844 298.492188 356.332031 298.261719 356.367188 298.027344 C 356.402344 297.796875 356.476562 297.578125 356.589844 297.371094 C 356.703125 297.164062 356.847656 296.984375 357.023438 296.832031 C 357.199219 296.675781 357.398438 296.554688 357.617188 296.472656 C 357.835938 296.386719 358.0625 296.34375 358.296875 296.339844 Z M 358.296875 296.335938 " fill-opacity="0.6" fill-rule="nonzero"/><g mask="url(#8ae34b8250)"><g transform="matrix(1, 0, 0, 1, 282, 255)"><g clip-path="url(#a319245245)"><g clip-path="url(#bfe993b006)"><path fill="#5e2e0d" d="M 404.546875 0.765625 C 403.296875 0.851562 402.121094 1.191406 401.019531 1.789062 C 399.820312 2.414062 398.617188 3.027344 397.414062 3.628906 C 397.152344 3.757812 396.886719 3.882812 396.621094 4.011719 C 399.277344 2.96875 401.921875 1.894531 404.546875 0.765625 Z M 404.546875 0.765625 " fill-opacity="1" fill-rule="nonzero"/></g><path fill="#5e2e0d" d="M 36.730469 117.964844 C 23.769531 109.550781 13.53125 89.679688 23.242188 65.285156 C 31.246094 45.175781 11.546875 27.347656 24.070312 10.0625 C 18.367188 12.125 13.34375 15.277344 9.011719 19.519531 C -9.480469 38.226562 14.035156 56.855469 5.742188 78.523438 C -3.644531 103.042969 6.859375 122.777344 19.929688 131.019531 C 32.871094 139.179688 319.710938 175.4375 415.609375 122.589844 C 416.03125 122.355469 416.433594 122.089844 416.816406 121.792969 C 308.238281 162.480469 48.929688 125.886719 36.730469 117.964844 Z M 36.730469 117.964844 " fill-opacity="1" fill-rule="nonzero"/></g></g></g><path fill="#5e2e0d" d="M 431.488281 404.234375 C 427.570312 405.027344 423.613281 405.4375 419.617188 405.464844 C 415.683594 405.515625 411.765625 405.347656 407.851562 404.96875 C 403.945312 404.613281 400.050781 404.117188 396.175781 403.4375 C 392.261719 402.789062 388.410156 401.875 384.621094 400.703125 C 384.40625 400.636719 384.210938 400.535156 384.03125 400.398438 C 383.851562 400.261719 383.703125 400.101562 383.578125 399.914062 C 383.453125 399.726562 383.367188 399.523438 383.3125 399.304688 C 383.257812 399.085938 383.242188 398.867188 383.265625 398.640625 C 383.289062 398.417969 383.347656 398.207031 383.441406 398.003906 C 383.539062 397.800781 383.664062 397.617188 383.820312 397.457031 C 383.980469 397.296875 384.160156 397.167969 384.363281 397.070312 C 384.566406 396.972656 384.777344 396.914062 385 396.886719 C 388.929688 396.484375 392.867188 396.3125 396.816406 396.378906 C 400.734375 396.40625 404.632812 396.589844 408.523438 396.878906 C 412.414062 397.15625 416.292969 397.585938 420.15625 398.230469 C 424.089844 398.851562 427.9375 399.816406 431.699219 401.121094 C 431.902344 401.195312 432.082031 401.304688 432.238281 401.453125 C 432.398438 401.597656 432.523438 401.769531 432.613281 401.964844 C 432.703125 402.160156 432.753906 402.367188 432.761719 402.582031 C 432.769531 402.796875 432.738281 403.003906 432.664062 403.207031 C 432.457031 403.761719 432.066406 404.101562 431.488281 404.234375 Z M 431.488281 404.234375 " fill-opacity="1" fill-rule="nonzero"/><g clip-path="url(#e16b450833)"><path fill="#5e2e0d" d="M 644.804688 270.929688 C 648.613281 268.476562 652.589844 266.34375 656.738281 264.527344 C 658.765625 263.597656 660.832031 262.765625 662.871094 261.867188 C 664.910156 260.972656 666.949219 260.070312 668.964844 259.128906 C 673.003906 257.253906 676.992188 255.28125 680.929688 253.210938 L 681.117188 253.113281 L 681.382812 252.988281 L 681.914062 252.742188 C 682.273438 252.566406 682.644531 252.414062 683.027344 252.292969 C 683.421875 252.164062 683.792969 252.019531 684.21875 251.925781 C 684.644531 251.835938 685.074219 251.75 685.503906 251.675781 C 687.367188 251.429688 689.175781 251.65625 690.921875 252.355469 C 692.492188 253.003906 693.878906 253.929688 695.082031 255.128906 C 696.117188 256.15625 697.023438 257.28125 697.804688 258.507812 C 699.179688 260.71875 700.285156 263.054688 701.121094 265.515625 C 701.933594 267.847656 702.574219 270.222656 703.046875 272.648438 C 703.285156 273.855469 703.484375 275.070312 703.628906 276.34375 C 703.660156 276.667969 703.699219 276.980469 703.722656 277.316406 L 703.785156 278.261719 L 703.882812 279.964844 C 704.011719 282.246094 704.121094 284.570312 704.140625 286.941406 C 704.171875 289.363281 704.074219 291.773438 703.84375 294.183594 C 703.585938 296.578125 703.203125 298.953125 702.699219 301.3125 C 702.246094 303.570312 701.78125 305.714844 701.460938 307.769531 C 701.144531 309.785156 700.972656 311.820312 700.949219 313.863281 C 700.933594 315.902344 701.058594 317.9375 701.324219 319.960938 C 701.46875 320.972656 701.636719 321.976562 701.835938 322.976562 C 702.042969 323.964844 702.292969 325.015625 702.539062 325.835938 C 703.183594 327.761719 703.96875 329.625 704.890625 331.433594 C 706.015625 333.648438 706.976562 335.933594 707.773438 338.285156 C 707.964844 338.933594 708.15625 339.582031 708.308594 340.261719 L 708.425781 340.761719 L 708.515625 341.199219 L 708.695312 342.078125 C 708.929688 343.253906 709.132812 344.4375 709.3125 345.628906 C 709.683594 348.035156 709.917969 350.453125 710.015625 352.882812 C 710.25 357.871094 709.785156 362.792969 708.625 367.652344 C 708.492188 368.261719 708.316406 368.863281 708.144531 369.464844 C 707.976562 370.070312 707.804688 370.671875 707.601562 371.261719 C 707.398438 371.855469 707.21875 372.457031 706.988281 373.039062 L 706.652344 373.914062 L 706.488281 374.355469 L 706.398438 374.582031 L 706.277344 374.867188 C 705.601562 376.425781 704.683594 377.824219 703.527344 379.066406 C 702.945312 379.691406 702.316406 380.257812 701.636719 380.769531 C 701.296875 381.023438 700.945312 381.265625 700.582031 381.488281 L 700.03125 381.816406 L 699.621094 382.035156 C 695.492188 384.277344 691.261719 386.300781 686.925781 388.109375 C 678.34375 391.648438 669.558594 394.558594 660.5625 396.84375 C 642.726562 401.484375 624.621094 404.367188 606.5 406.402344 C 597.4375 407.425781 588.359375 408.242188 579.277344 408.800781 C 570.195312 409.375 561.109375 409.828125 552.023438 410.085938 C 533.855469 410.640625 515.695312 410.644531 497.550781 410.261719 C 479.410156 409.933594 461.273438 408.777344 443.335938 405.453125 C 443.089844 405.410156 442.863281 405.320312 442.648438 405.195312 C 442.4375 405.066406 442.253906 404.90625 442.101562 404.710938 C 441.945312 404.515625 441.832031 404.300781 441.757812 404.0625 C 441.679688 403.828125 441.648438 403.585938 441.660156 403.339844 C 441.671875 403.089844 441.730469 402.855469 441.828125 402.625 C 441.925781 402.398438 442.0625 402.195312 442.234375 402.015625 C 442.40625 401.839844 442.605469 401.695312 442.828125 401.589844 C 443.050781 401.484375 443.289062 401.417969 443.535156 401.398438 L 443.574219 401.398438 C 448.117188 401.015625 452.636719 400.882812 457.160156 400.742188 C 459.417969 400.703125 461.679688 400.621094 463.933594 400.59375 L 470.703125 400.53125 C 479.722656 400.5 488.722656 400.640625 497.722656 400.820312 C 515.726562 401.085938 533.730469 400.960938 551.695312 400.296875 C 569.65625 399.632812 587.582031 398.402344 605.382812 396.4375 C 623.175781 394.457031 640.871094 391.644531 658.039062 387.195312 C 666.585938 385.007812 674.953125 382.277344 683.140625 379 C 687.167969 377.363281 691.101562 375.523438 694.941406 373.484375 L 695.28125 373.308594 L 695.460938 373.207031 C 695.578125 373.132812 695.695312 373.058594 695.804688 372.976562 C 696.035156 372.808594 696.242188 372.621094 696.4375 372.417969 C 696.839844 371.996094 697.160156 371.519531 697.394531 370.988281 L 697.441406 370.886719 L 697.507812 370.71875 L 697.917969 369.664062 C 698.109375 369.199219 698.257812 368.714844 698.421875 368.242188 C 698.585938 367.769531 698.742188 367.289062 698.871094 366.804688 C 699.003906 366.316406 699.164062 365.839844 699.269531 365.347656 C 700.253906 361.367188 700.664062 357.328125 700.503906 353.234375 C 700.4375 351.144531 700.25 349.070312 699.945312 347.003906 C 699.800781 345.960938 699.628906 344.917969 699.425781 343.875 L 699.277344 343.09375 L 699.199219 342.703125 L 699.125 342.375 C 699.035156 341.949219 698.90625 341.511719 698.785156 341.078125 C 698.132812 339.144531 697.351562 337.265625 696.4375 335.441406 C 695.328125 333.207031 694.394531 330.898438 693.636719 328.519531 C 693.25 327.175781 692.996094 326.023438 692.746094 324.796875 C 692.511719 323.582031 692.316406 322.355469 692.164062 321.128906 C 691.867188 318.664062 691.75 316.1875 691.804688 313.707031 C 691.863281 311.226562 692.101562 308.765625 692.515625 306.320312 C 692.921875 303.914062 693.449219 301.648438 693.914062 299.488281 C 694.386719 297.429688 694.75 295.351562 695.003906 293.257812 C 695.230469 291.164062 695.339844 289.070312 695.339844 286.964844 C 695.347656 284.820312 695.277344 282.632812 695.179688 280.402344 L 695.101562 278.722656 L 695.0625 277.976562 L 695 277.261719 C 694.90625 276.289062 694.753906 275.273438 694.570312 274.261719 C 694.199219 272.238281 693.691406 270.253906 693.042969 268.300781 C 692.449219 266.460938 691.65625 264.707031 690.667969 263.046875 C 689.734375 261.539062 688.597656 260.429688 687.78125 260.113281 C 687.390625 259.945312 686.980469 259.882812 686.554688 259.933594 C 686.429688 259.964844 686.300781 259.988281 686.175781 260.007812 C 686.03125 260.042969 685.890625 260.085938 685.75 260.132812 C 685.589844 260.175781 685.4375 260.238281 685.289062 260.3125 L 685.050781 260.417969 L 684.925781 260.46875 L 684.738281 260.5625 C 680.648438 262.648438 676.511719 264.628906 672.328125 266.507812 C 670.238281 267.449219 668.132812 268.355469 666.019531 269.246094 C 663.910156 270.136719 661.792969 271.011719 659.625 271.765625 C 655.265625 273.351562 650.773438 274.375 646.15625 274.839844 C 645.671875 274.882812 645.226562 274.769531 644.816406 274.507812 C 644.40625 274.242188 644.121094 273.878906 643.960938 273.421875 C 643.800781 272.960938 643.796875 272.503906 643.949219 272.039062 C 644.105469 271.578125 644.382812 271.214844 644.789062 270.941406 Z M 644.804688 270.929688 " fill-opacity="1" fill-rule="nonzero"/></g><path fill="#5e2e0d" d="M 603.855469 282.300781 C 606.054688 280.957031 608.371094 279.847656 610.800781 278.980469 C 613.144531 278.117188 615.527344 277.390625 617.953125 276.796875 C 620.382812 276.191406 622.835938 275.734375 625.316406 275.421875 C 627.886719 275.070312 630.464844 274.992188 633.050781 275.1875 L 633.054688 275.1875 C 633.417969 275.222656 633.738281 275.351562 634.019531 275.582031 C 634.300781 275.808594 634.492188 276.097656 634.597656 276.445312 C 634.699219 276.792969 634.699219 277.136719 634.589844 277.484375 C 634.484375 277.828125 634.289062 278.117188 634.003906 278.34375 C 631.917969 279.957031 629.660156 281.28125 627.226562 282.3125 C 624.882812 283.34375 622.46875 284.175781 619.984375 284.8125 C 617.511719 285.457031 615 285.914062 612.457031 286.171875 C 609.847656 286.46875 607.242188 286.4375 604.640625 286.085938 C 604.21875 286.019531 603.851562 285.839844 603.539062 285.542969 C 603.226562 285.25 603.027344 284.894531 602.9375 284.472656 C 602.847656 284.054688 602.886719 283.648438 603.050781 283.25 C 603.214844 282.855469 603.476562 282.542969 603.839844 282.308594 Z M 603.855469 282.300781 " fill-opacity="1" fill-rule="nonzero"/><path fill="#5e2e0d" d="M 371.808594 399.316406 C 366.570312 399.5625 361.335938 399.53125 356.101562 399.21875 C 350.886719 398.925781 345.691406 398.445312 340.515625 397.78125 C 335.339844 397.113281 330.167969 396.367188 325 395.535156 C 319.824219 394.707031 314.664062 393.832031 309.441406 392.714844 C 308.144531 392.453125 306.8125 392.121094 305.488281 391.800781 L 303.441406 391.234375 C 303.113281 391.152344 302.714844 391.003906 302.347656 390.878906 C 301.964844 390.746094 301.628906 390.640625 301.207031 390.472656 C 300.699219 390.242188 300.195312 389.996094 299.703125 389.730469 C 299.332031 389.503906 299.078125 389.3125 298.761719 389.101562 L 296.953125 387.847656 C 296.378906 387.398438 295.824219 386.929688 295.261719 386.464844 C 294.6875 386.015625 294.144531 385.535156 293.628906 385.023438 C 289.386719 380.996094 286.070312 376.320312 283.667969 370.992188 C 281.328125 365.683594 280.019531 360.128906 279.742188 354.332031 C 279.460938 348.621094 280.101562 343.011719 281.660156 337.507812 C 281.824219 336.828125 282.027344 336.15625 282.265625 335.496094 L 282.925781 333.503906 L 284.070312 330.054688 C 284.667969 327.945312 284.96875 325.796875 284.964844 323.601562 C 285 319.152344 283.882812 314.480469 282.53125 309.566406 C 281.207031 304.640625 279.523438 299.414062 279.113281 293.433594 C 278.882812 290.316406 279.15625 287.246094 279.925781 284.222656 C 280.738281 281.152344 282.0625 278.324219 283.894531 275.730469 C 284.304688 275.070312 284.808594 274.515625 285.265625 273.90625 C 285.722656 273.3125 286.214844 272.746094 286.734375 272.207031 C 287.722656 271.105469 288.773438 270.074219 289.894531 269.109375 C 292.097656 267.203125 294.46875 265.527344 297.003906 264.089844 C 299.488281 262.679688 302.070312 261.476562 304.746094 260.480469 L 305.742188 260.121094 C 305.886719 260.066406 306.132812 259.984375 306.34375 259.917969 C 306.554688 259.851562 306.777344 259.78125 307 259.722656 C 307.882812 259.480469 308.78125 259.3125 309.691406 259.226562 C 311.527344 259.042969 313.34375 259.164062 315.136719 259.589844 C 316.03125 259.808594 316.898438 260.097656 317.746094 260.453125 C 318.167969 260.632812 318.582031 260.832031 318.984375 261.046875 L 319.839844 261.472656 C 320.921875 261.988281 321.953125 262.570312 323.070312 263.039062 C 324.1875 263.511719 325.300781 263.992188 326.429688 264.441406 L 329.902344 265.6875 C 334.671875 267.230469 339.511719 268.507812 344.421875 269.523438 C 354.328125 271.648438 364.535156 273.011719 374.835938 274.5 C 377.421875 274.875 380.007812 275.257812 382.613281 275.671875 C 383.910156 275.875 385.226562 276.113281 386.53125 276.332031 L 390.367188 277.011719 C 395.449219 277.917969 400.542969 278.769531 405.640625 279.574219 C 426.039062 282.804688 446.53125 285.207031 467.125 286.785156 C 487.703125 288.359375 508.3125 288.90625 528.945312 288.414062 C 539.242188 288.136719 549.519531 287.542969 559.773438 286.628906 C 564.902344 286.171875 570.015625 285.679688 575.167969 285.367188 C 577.742188 285.214844 580.316406 285.035156 582.910156 284.964844 C 585.507812 284.894531 588.097656 284.761719 590.738281 284.867188 L 590.792969 284.867188 C 591.011719 284.878906 591.21875 284.921875 591.421875 285.003906 C 591.625 285.085938 591.804688 285.199219 591.96875 285.34375 C 592.132812 285.488281 592.265625 285.65625 592.367188 285.847656 C 592.472656 286.039062 592.542969 286.242188 592.574219 286.457031 C 592.609375 286.671875 592.605469 286.886719 592.5625 287.101562 C 592.523438 287.3125 592.445312 287.515625 592.335938 287.703125 C 592.226562 287.890625 592.085938 288.050781 591.917969 288.191406 C 591.75 288.332031 591.566406 288.4375 591.359375 288.511719 C 586.386719 290.277344 581.308594 291.652344 576.121094 292.636719 C 570.96875 293.640625 565.78125 294.378906 560.554688 294.859375 C 550.125 295.890625 539.671875 296.585938 529.203125 296.941406 C 508.277344 297.617188 487.371094 297.242188 466.480469 295.820312 C 445.613281 294.445312 424.832031 292.035156 404.1875 288.847656 C 399.027344 288.046875 393.871094 287.199219 388.726562 286.308594 L 384.890625 285.644531 C 383.632812 285.441406 382.390625 285.214844 381.125 285.027344 C 378.597656 284.632812 376.050781 284.265625 373.492188 283.902344 C 368.367188 283.1875 363.199219 282.484375 358.011719 281.6875 C 352.828125 280.894531 347.621094 280.03125 342.414062 278.90625 C 337.148438 277.800781 331.960938 276.410156 326.847656 274.734375 L 322.988281 273.339844 C 321.710938 272.828125 320.4375 272.269531 319.167969 271.734375 C 317.894531 271.195312 316.652344 270.503906 315.398438 269.890625 L 314.511719 269.445312 C 314.34375 269.355469 314.171875 269.269531 313.996094 269.195312 C 313.644531 269.046875 313.28125 268.925781 312.910156 268.832031 C 312.160156 268.652344 311.398438 268.597656 310.625 268.671875 C 310.242188 268.707031 309.863281 268.777344 309.492188 268.878906 C 309.398438 268.902344 309.304688 268.929688 309.214844 268.960938 C 309.117188 268.992188 309.054688 269.007812 308.894531 269.066406 L 308.058594 269.367188 C 305.855469 270.175781 303.730469 271.160156 301.6875 272.308594 C 299.6875 273.433594 297.820312 274.742188 296.078125 276.238281 C 295.226562 276.964844 294.425781 277.75 293.679688 278.582031 C 293.292969 278.976562 292.933594 279.390625 292.597656 279.824219 C 292.28125 280.257812 291.890625 280.65625 291.625 281.105469 C 290.410156 282.8125 289.53125 284.675781 288.988281 286.695312 C 288.445312 288.71875 288.269531 290.769531 288.464844 292.855469 C 288.726562 297.269531 290.148438 302.046875 291.527344 307.121094 C 292.90625 312.191406 294.265625 317.726562 294.191406 323.699219 C 294.164062 326.730469 293.726562 329.699219 292.871094 332.609375 C 292.65625 333.335938 292.394531 334.042969 292.152344 334.757812 L 291.542969 336.539062 L 290.960938 338.238281 C 290.75 338.796875 290.574219 339.367188 290.429688 339.949219 C 287.773438 349.085938 288.054688 358.898438 291.765625 367.414062 C 293.652344 371.683594 296.269531 375.441406 299.621094 378.683594 C 300.019531 379.09375 300.445312 379.476562 300.894531 379.828125 L 302.203125 380.921875 L 303.59375 381.894531 C 303.8125 382.042969 304.078125 382.246094 304.261719 382.359375 C 304.351562 382.375 304.433594 382.414062 304.511719 382.464844 C 304.691406 382.539062 304.976562 382.628906 305.203125 382.714844 C 305.449219 382.796875 305.65625 382.890625 305.957031 382.96875 L 307.664062 383.453125 C 308.863281 383.75 310.046875 384.058594 311.289062 384.320312 C 316.214844 385.414062 321.289062 386.320312 326.363281 387.171875 C 331.433594 388.023438 336.550781 388.777344 341.660156 389.542969 C 346.765625 390.320312 351.875 391.148438 356.96875 392.128906 C 359.515625 392.625 362.0625 393.128906 364.601562 393.714844 C 367.140625 394.296875 369.683594 394.871094 372.210938 395.617188 L 372.234375 395.621094 C 372.449219 395.6875 372.648438 395.785156 372.828125 395.914062 C 373.007812 396.046875 373.15625 396.207031 373.28125 396.394531 C 373.402344 396.578125 373.492188 396.78125 373.542969 396.996094 C 373.59375 397.214844 373.605469 397.433594 373.582031 397.65625 C 373.554688 397.875 373.492188 398.085938 373.390625 398.285156 C 373.292969 398.484375 373.160156 398.660156 372.996094 398.8125 C 372.835938 398.964844 372.652344 399.085938 372.445312 399.171875 C 372.242188 399.261719 372.027344 399.308594 371.804688 399.320312 Z M 371.808594 399.316406 " fill-opacity="1" fill-rule="nonzero"/><path fill="#5e2e0d" d="M 403.605469 549.332031 C 402.222656 548.554688 401.53125 547.648438 401.53125 546.613281 C 401.492188 545.679688 401.75 544.839844 402.308594 544.089844 C 402.578125 543.761719 402.90625 543.511719 403.292969 543.34375 C 403.683594 543.171875 404.085938 543.097656 404.511719 543.121094 C 405.828125 543.234375 407.078125 543.582031 408.265625 544.15625 C 409.347656 544.636719 410.46875 544.984375 411.632812 545.191406 C 412.496094 545.171875 413.316406 544.976562 414.097656 544.601562 C 414.875 544.230469 415.542969 543.714844 416.101562 543.054688 C 417.570312 541.410156 418.628906 539.535156 419.273438 537.425781 C 420.722656 533.675781 421.5 529.792969 421.605469 525.777344 C 421.566406 521.792969 420.984375 517.886719 419.855469 514.0625 C 418.671875 509.917969 417.097656 505.929688 415.128906 502.09375 L 413.058594 497.953125 C 410.898438 493.636719 409.238281 490.230469 408.070312 487.726562 C 406.855469 485.085938 405.839844 482.367188 405.03125 479.574219 C 403.765625 475.664062 403.121094 471.648438 403.085938 467.539062 C 403.066406 464.503906 403.609375 461.570312 404.707031 458.738281 C 405.75 456.007812 407.367188 453.679688 409.5625 451.75 C 410.636719 450.714844 411.871094 449.929688 413.265625 449.390625 C 414.65625 448.851562 416.101562 448.601562 417.59375 448.644531 C 419.234375 448.660156 420.746094 449.113281 422.125 450 C 423.523438 450.816406 424.5625 451.957031 425.234375 453.429688 L 423.03125 456.148438 C 420.785156 456.148438 419.101562 455.714844 417.980469 454.851562 C 417.179688 454.953125 416.429688 455.199219 415.722656 455.589844 C 415.019531 455.980469 414.410156 456.488281 413.902344 457.117188 C 412.71875 458.476562 411.835938 460.007812 411.246094 461.710938 C 410.734375 463.3125 410.476562 464.949219 410.46875 466.628906 C 410.484375 470.03125 410.9375 473.375 411.828125 476.660156 C 412.707031 479.988281 413.890625 483.203125 415.390625 486.300781 L 424.457031 504.421875 C 426.011719 507.785156 427.175781 511.28125 427.953125 514.90625 C 428.8125 518.738281 429.242188 522.621094 429.25 526.550781 C 429.257812 529.359375 428.914062 532.125 428.210938 534.84375 C 427.507812 537.5625 426.472656 540.148438 425.105469 542.601562 C 423.714844 545.121094 421.816406 547.171875 419.410156 548.75 C 417.046875 550.285156 414.457031 551.039062 411.640625 551.011719 C 408.828125 551.085938 406.148438 550.527344 403.605469 549.332031 Z M 403.605469 549.332031 " fill-opacity="1" fill-rule="nonzero"/><path fill="#5e2e0d" d="M 449.183594 543.507812 C 445.816406 538.761719 443.445312 532.9375 442.0625 526.03125 C 440.453125 518.257812 439.457031 510.40625 439.085938 502.476562 C 438.652344 494.886719 438.433594 486.644531 438.4375 477.757812 L 438.4375 467.011719 C 438.523438 463.992188 438.566406 460.800781 438.566406 457.433594 C 437.847656 456.722656 437.5 455.859375 437.53125 454.847656 C 437.535156 453.757812 437.921875 452.832031 438.695312 452.0625 C 439.375 451.265625 440.238281 450.859375 441.285156 450.835938 C 444.394531 450.835938 445.949219 453.898438 445.949219 460.023438 C 445.949219 463.992188 446.164062 471.5 446.59375 482.542969 C 447.027344 493.585938 447.242188 501.09375 447.242188 505.0625 C 447.671875 506.183594 448.082031 508.429688 448.472656 511.792969 C 448.820312 514.542969 449.015625 517.304688 449.054688 520.078125 C 449.113281 522.460938 449.417969 524.8125 449.960938 527.136719 C 450.59375 530.03125 451.457031 532.859375 452.550781 535.613281 C 453.519531 538.386719 454.988281 540.867188 456.953125 543.054688 C 458.765625 544.996094 460.667969 545.964844 462.652344 545.964844 C 463.828125 545.996094 464.84375 545.609375 465.695312 544.800781 C 466.609375 543.859375 467.148438 542.738281 467.3125 541.4375 C 467.824219 539.089844 468.085938 536.71875 468.089844 534.316406 L 468.089844 509.082031 C 468.027344 505.007812 467.726562 500.953125 467.183594 496.914062 C 466.667969 491.480469 466.40625 487.382812 466.40625 484.621094 L 466.40625 483.714844 C 466.40625 482.335938 466.363281 481.085938 466.277344 479.960938 L 466.148438 476.207031 C 466.148438 473.792969 466.019531 470.125 465.761719 465.207031 C 465.414062 460.804688 465.242188 457.097656 465.242188 454.078125 C 465.261719 453.566406 465.40625 453.09375 465.671875 452.65625 C 465.933594 452.21875 466.289062 451.871094 466.730469 451.617188 C 467.722656 450.917969 468.820312 450.574219 470.035156 450.582031 L 473.269531 453.558594 L 473.269531 455.757812 C 473.238281 457.027344 473.066406 458.277344 472.753906 459.511719 C 472.40625 461.925781 472.234375 463.308594 472.234375 463.652344 C 472.234375 471.503906 472.667969 482.332031 473.53125 496.136719 C 474.308594 510.632812 474.699219 521.890625 474.699219 529.914062 C 474.753906 533.765625 474.320312 537.5625 473.402344 541.304688 C 473 543.039062 472.289062 544.636719 471.261719 546.097656 C 470.253906 547.394531 469.023438 548.433594 467.574219 549.203125 C 465.789062 550.152344 463.890625 550.582031 461.875 550.5 C 456.519531 550.496094 452.289062 548.167969 449.183594 543.507812 Z M 449.183594 543.507812 " fill-opacity="1" fill-rule="nonzero"/><path fill="#5e2e0d" d="M 495.539062 547.261719 C 493.035156 545.191406 490.75 541.652344 488.679688 536.648438 C 487.382812 533.371094 486.347656 528.753906 485.570312 522.800781 C 484.984375 518.246094 484.679688 513.671875 484.664062 509.082031 C 484.574219 507.960938 484.53125 506.019531 484.535156 503.257812 L 484.535156 493.679688 C 484.535156 489.96875 484.664062 485.527344 484.921875 480.347656 C 485.289062 475.8125 485.976562 471.324219 486.996094 466.886719 C 487.9375 462.789062 489.578125 458.992188 491.914062 455.496094 C 492.945312 453.894531 494.203125 452.5 495.6875 451.304688 C 497.171875 450.109375 498.804688 449.175781 500.589844 448.507812 C 502.578125 447.929688 504.609375 447.628906 506.679688 447.605469 C 510.300781 447.605469 512.113281 448.8125 512.113281 451.230469 C 512.132812 451.660156 512.058594 452.074219 511.886719 452.472656 C 511.71875 452.871094 511.46875 453.210938 511.144531 453.496094 C 510.410156 454.097656 509.570312 454.378906 508.617188 454.335938 C 508 454.28125 507.394531 454.152344 506.804688 453.949219 L 504.992188 453.6875 C 503.351562 453.671875 501.882812 454.167969 500.589844 455.175781 C 499.148438 456.351562 498.070312 457.796875 497.351562 459.511719 C 495.308594 463.832031 493.96875 468.363281 493.335938 473.101562 C 492.464844 478.332031 491.945312 483.59375 491.78125 488.890625 C 491.609375 492.773438 491.523438 496.875 491.523438 501.1875 L 491.523438 504.683594 C 491.4375 505.890625 491.394531 507.402344 491.394531 509.210938 C 491.390625 513.535156 491.605469 517.851562 492.042969 522.152344 C 492.261719 526.628906 493.210938 530.941406 494.890625 535.097656 C 496.269531 539.152344 498.515625 542 501.625 543.640625 C 503.320312 544.566406 505.132812 545 507.0625 544.933594 C 510.859375 544.933594 514.054688 543.125 516.644531 539.5 C 516.558594 536.484375 516.339844 533.527344 515.996094 530.636719 C 515.652344 527.746094 515.132812 525.78125 514.441406 524.746094 C 514.246094 524.757812 514.054688 524.78125 513.859375 524.8125 C 513.554688 524.855469 513.101562 524.921875 512.5 525.007812 L 509.394531 525.265625 C 506.457031 525.265625 504.992188 524.015625 504.992188 521.511719 C 505.015625 521.078125 505.144531 520.679688 505.375 520.3125 C 505.605469 519.945312 505.910156 519.652344 506.289062 519.441406 C 507.359375 518.753906 508.523438 518.320312 509.785156 518.144531 C 511.90625 517.582031 514.0625 517.277344 516.257812 517.238281 C 517.050781 517.203125 517.800781 517.355469 518.511719 517.703125 C 519.226562 518.046875 519.8125 518.539062 520.273438 519.179688 C 521.296875 520.660156 521.769531 522.300781 521.699219 524.097656 C 521.8125 528.015625 522.246094 531.898438 522.996094 535.746094 C 523.75 539.550781 524.183594 543.390625 524.292969 547.265625 C 524.308594 548.203125 524.007812 549.019531 523.386719 549.722656 C 522.820312 550.417969 522.085938 550.761719 521.1875 550.757812 C 519.027344 550.757812 517.558594 549.851562 516.785156 548.042969 L 516.785156 547.914062 L 513.933594 549.335938 C 511.34375 550.800781 509.144531 551.535156 507.332031 551.535156 C 502.578125 551.53125 498.648438 550.109375 495.539062 547.261719 Z M 495.539062 547.261719 " fill-opacity="1" fill-rule="nonzero"/><path fill="#5e2e0d" d="M 552.582031 547.390625 C 551.933594 546.871094 551.609375 546.007812 551.609375 544.800781 L 551.609375 527.847656 C 550.488281 527.070312 548.371094 526.378906 545.265625 525.777344 C 542.355469 525.199219 539.417969 524.8125 536.457031 524.609375 C 535.414062 526.703125 534.726562 528.902344 534.386719 531.210938 L 533.867188 533.800781 C 533.78125 534.40625 533.523438 535.742188 533.089844 537.816406 C 532.726562 539.632812 532.25 541.425781 531.664062 543.1875 C 531.269531 544.425781 530.75 545.613281 530.113281 546.746094 C 526.832031 546.746094 524.929688 545.882812 524.414062 544.15625 C 525.363281 542.777344 526.441406 538.722656 527.652344 531.992188 L 531.925781 508.308594 C 533.824219 497.09375 535.570312 487.515625 537.167969 479.578125 C 538.457031 472.824219 540.164062 466.183594 542.285156 459.644531 C 544.269531 453.691406 546.167969 450.714844 547.980469 450.714844 C 549.796875 450.714844 551.175781 451.058594 552.125 451.75 C 552.125 455.203125 552.945312 463.527344 554.585938 476.730469 C 556.3125 489.671875 557.175781 498.515625 557.175781 503.261719 C 557.175781 507.835938 557.648438 514.390625 558.601562 522.933594 C 559.460938 531.648438 559.894531 538.59375 559.898438 543.769531 C 559.898438 546.703125 558.472656 548.171875 555.625 548.171875 C 554.519531 548.257812 553.507812 547.996094 552.582031 547.390625 Z M 551.480469 519.953125 C 551.222656 516.15625 550.789062 511.453125 550.1875 505.84375 C 548.199219 486.347656 547.207031 474.398438 547.207031 469.996094 L 547.207031 468.960938 C 546.34375 469.824219 545.15625 473.726562 543.648438 480.671875 C 542.136719 487.617188 540.734375 495.058594 539.4375 502.996094 C 538.140625 510.933594 537.453125 516.199219 537.363281 518.785156 C 541.132812 519.84375 544.976562 520.359375 548.890625 520.339844 C 549.769531 520.3125 550.632812 520.183594 551.480469 519.953125 Z M 551.480469 519.953125 " fill-opacity="1" fill-rule="nonzero"/><path fill="#5e2e0d" d="M 589.808594 545.964844 L 589.808594 545.578125 C 589.460938 540.421875 588.683594 535.332031 587.476562 530.304688 C 586.183594 524.699219 584.28125 517.925781 581.777344 509.988281 C 579.878906 504.035156 578.28125 498.683594 576.988281 493.9375 L 576.988281 544.929688 C 577.070312 546.019531 576.832031 547.035156 576.277344 547.972656 C 575.800781 548.621094 574.871094 548.941406 573.492188 548.941406 C 572.523438 548.992188 571.703125 548.667969 571.03125 547.972656 C 570.386719 547.253906 570.082031 546.414062 570.125 545.449219 L 570.125 544.414062 L 570.382812 506.363281 C 570.554688 495.148438 570.640625 482.507812 570.640625 468.441406 L 570.640625 452.523438 C 570.640625 451.488281 570.859375 450.773438 571.289062 450.386719 C 571.722656 449.996094 572.628906 449.804688 574.007812 449.804688 C 576.082031 449.78125 578.070312 450.191406 579.964844 451.035156 C 581.765625 451.839844 583.320312 452.984375 584.628906 454.464844 C 585.976562 456 587.09375 457.691406 587.972656 459.539062 C 588.851562 461.386719 589.464844 463.316406 589.804688 465.335938 C 590.171875 467.300781 590.347656 469.285156 590.324219 471.289062 C 590.3125 472.71875 590.207031 474.144531 590 475.558594 C 589.785156 477.113281 589.632812 478.105469 589.546875 478.535156 C 589.238281 479.855469 588.851562 481.148438 588.382812 482.417969 C 587.777344 484.148438 587.386719 485.269531 587.214844 485.785156 L 585.664062 489.410156 L 584.367188 492.773438 C 584.566406 496.746094 585.105469 500.671875 585.984375 504.550781 C 586.976562 509.296875 588.078125 513.695312 589.285156 517.753906 C 590.148438 520.597656 591.703125 525.34375 593.949219 531.988281 L 597.703125 543.378906 L 597.703125 543.636719 C 597.726562 544.902344 597.59375 546.15625 597.3125 547.390625 C 597.054688 548.769531 596.148438 549.460938 594.597656 549.460938 C 592.957031 549.460938 591.359375 548.296875 589.808594 545.964844 Z M 581.132812 483.066406 L 583.074219 471.933594 C 583.171875 471.335938 583.214844 470.730469 583.203125 470.125 C 583.132812 467.167969 582.65625 464.277344 581.777344 461.453125 C 581.328125 460.027344 580.660156 458.710938 579.773438 457.503906 C 578.949219 456.425781 578.105469 455.84375 577.246094 455.757812 L 576.988281 468.699219 C 576.730469 474.480469 576.601562 478.96875 576.597656 482.160156 C 576.597656 485.183594 576.644531 487.167969 576.730469 488.117188 C 578.285156 486.511719 579.753906 484.828125 581.132812 483.066406 Z M 581.132812 483.066406 " fill-opacity="1" fill-rule="nonzero"/><path fill="#ffc98f" d="M 395.035156 625.429688 C 385.753906 600.378906 357.996094 580.0625 335.863281 566.496094 C 316.363281 554.546875 294.015625 546.511719 271.140625 546.390625 C 262.585938 546.347656 254.257812 547.054688 246.546875 550.597656 C 239.3125 553.921875 231.472656 558.75 223.191406 558.386719 C 200.332031 557.378906 144.609375 541.863281 132.875 532.472656 C 118.019531 520.578125 80.988281 549.949219 102.558594 565.101562 C 124.128906 580.25 160.277344 570.925781 185.925781 583.75 C 190.539062 586.015625 194.855469 588.75 198.867188 591.960938 C 203.851562 596.003906 204.59375 602.558594 204.5625 608.492188 C 204.515625 616.378906 204.796875 624.347656 207.082031 631.957031 C 210.488281 643.292969 218.167969 653.097656 227.714844 660.105469 C 247.957031 674.960938 271.953125 676.890625 296.136719 676.773438 C 319.550781 676.660156 342.960938 674.875 366.214844 672.21875 C 366.871094 672.140625 367.523438 672.050781 368.175781 671.9375 C 368.824219 671.828125 369.46875 671.695312 370.113281 671.550781 C 370.753906 671.402344 371.394531 671.234375 372.027344 671.050781 C 372.660156 670.867188 373.285156 670.664062 373.90625 670.445312 C 374.53125 670.226562 375.144531 669.988281 375.753906 669.734375 C 376.359375 669.480469 376.960938 669.210938 377.554688 668.921875 C 378.148438 668.632812 378.730469 668.328125 379.308594 668.007812 C 379.882812 667.683594 380.449219 667.347656 381.003906 666.996094 C 381.5625 666.640625 382.109375 666.273438 382.644531 665.886719 C 383.179688 665.503906 383.703125 665.105469 384.214844 664.691406 C 384.730469 664.277344 385.230469 663.847656 385.71875 663.40625 C 386.207031 662.964844 386.683594 662.507812 387.144531 662.039062 C 387.609375 661.570312 388.058594 661.085938 388.492188 660.59375 C 388.929688 660.097656 389.351562 659.589844 389.757812 659.070312 C 390.164062 658.554688 390.554688 658.023438 390.933594 657.484375 C 391.308594 656.941406 391.671875 656.390625 392.015625 655.832031 C 392.363281 655.269531 392.691406 654.699219 393.003906 654.117188 C 393.316406 653.539062 393.613281 652.949219 393.894531 652.355469 C 394.175781 651.757812 394.4375 651.152344 394.683594 650.542969 C 394.929688 649.929688 395.15625 649.3125 395.367188 648.6875 C 395.578125 648.0625 395.769531 647.433594 395.945312 646.800781 C 396.121094 646.164062 396.277344 645.523438 396.417969 644.878906 C 396.554688 644.234375 396.675781 643.585938 396.777344 642.9375 C 396.878906 642.285156 396.964844 641.632812 397.03125 640.976562 C 397.09375 640.320312 397.140625 639.664062 397.167969 639.003906 C 397.195312 638.347656 397.207031 637.6875 397.195312 637.03125 C 397.1875 636.371094 397.160156 635.710938 397.113281 635.054688 C 397.066406 634.398438 397 633.742188 396.917969 633.089844 C 396.832031 632.433594 396.730469 631.785156 396.609375 631.136719 C 396.488281 630.488281 396.351562 629.84375 396.191406 629.203125 C 396.035156 628.566406 395.859375 627.929688 395.667969 627.300781 C 395.472656 626.671875 395.261719 626.046875 395.035156 625.429688 Z M 395.035156 625.429688 " fill-opacity="1" fill-rule="nonzero"/><path fill="#5e2e0d" d="M 195.320312 584.753906 C 191.425781 581.402344 187.214844 578.511719 182.683594 576.082031 C 157.511719 562.347656 121.054688 570.363281 100.042969 554.449219 C 98.625 553.398438 97.390625 552.164062 96.335938 550.75 C 95.179688 555.84375 96.714844 560.996094 102.5625 565.105469 C 124.132812 580.253906 160.277344 570.929688 185.925781 583.753906 C 190.542969 586.015625 194.855469 588.753906 198.871094 591.964844 C 199.214844 592.246094 199.542969 592.542969 199.859375 592.859375 C 199.566406 591.296875 199.03125 589.820312 198.253906 588.433594 C 197.480469 587.046875 196.5 585.820312 195.320312 584.753906 Z M 195.320312 584.753906 " fill-opacity="0.2" fill-rule="nonzero"/><path fill="#5e2e0d" d="M 368.65625 671.839844 C 382.261719 669.410156 395.589844 657.59375 397.058594 640.855469 C 381.203125 661.488281 353.890625 655.121094 327.984375 657.882812 C 280.3125 658.675781 228.882812 657.574219 207.828125 634.210938 C 233.292969 694.285156 321.015625 674.925781 368.65625 671.839844 Z M 368.65625 671.839844 " fill-opacity="0.2" fill-rule="nonzero"/><path fill="#5e2e0d" d="M 396.246094 646.414062 C 394.089844 648.734375 391.679688 650.757812 389.019531 652.480469 C 386.359375 654.203125 383.527344 655.570312 380.527344 656.589844 C 377.523438 657.601562 374.445312 658.25 371.292969 658.542969 C 368.390625 658.8125 365.492188 659.105469 362.585938 659.320312 C 356.78125 659.792969 350.964844 660.199219 345.140625 660.53125 C 339.320312 660.835938 333.492188 661.113281 327.65625 661.273438 C 315.992188 661.570312 304.308594 661.628906 292.625 661.089844 C 289.703125 660.945312 286.78125 660.832031 283.859375 660.613281 L 279.480469 660.316406 L 275.105469 659.929688 C 272.175781 659.71875 269.265625 659.359375 266.375 658.851562 C 264.917969 658.601562 263.484375 658.265625 262.066406 657.847656 C 260.625 657.460938 259.214844 656.984375 257.835938 656.417969 C 257.515625 656.285156 257.273438 656.070312 257.101562 655.769531 C 256.929688 655.46875 256.871094 655.148438 256.917969 654.808594 C 256.96875 654.464844 257.117188 654.175781 257.363281 653.933594 C 257.609375 653.691406 257.90625 653.550781 258.25 653.511719 L 258.265625 653.511719 C 264.183594 652.851562 269.859375 653.421875 275.601562 653.851562 L 279.90625 654.15625 L 284.214844 654.371094 C 287.085938 654.539062 289.96875 654.59375 292.847656 654.691406 C 304.367188 654.992188 315.910156 654.902344 327.453125 654.503906 C 338.996094 654.140625 350.539062 653.503906 362.070312 652.667969 L 370.71875 652.023438 C 373.375 651.828125 375.972656 651.332031 378.511719 650.53125 C 383.652344 648.855469 388.128906 646.109375 391.949219 642.289062 L 391.976562 642.261719 C 392.253906 641.988281 392.574219 641.773438 392.933594 641.625 C 393.292969 641.476562 393.667969 641.402344 394.058594 641.398438 C 394.449219 641.398438 394.828125 641.46875 395.1875 641.613281 C 395.550781 641.761719 395.871094 641.96875 396.152344 642.242188 C 396.429688 642.515625 396.648438 642.828125 396.804688 643.1875 C 396.960938 643.542969 397.042969 643.917969 397.050781 644.308594 C 397.0625 644.699219 396.996094 645.074219 396.855469 645.441406 C 396.71875 645.804688 396.515625 646.128906 396.246094 646.414062 Z M 396.246094 646.414062 " fill-opacity="1" fill-rule="nonzero"/><path fill="#5e2e0d" d="M 246.3125 654.292969 C 244.320312 654.449219 242.335938 654.398438 240.355469 654.140625 C 239.375 654.011719 238.402344 653.855469 237.4375 653.671875 C 236.472656 653.464844 235.511719 653.246094 234.5625 652.992188 C 230.707031 651.980469 226.945312 650.695312 223.277344 649.144531 C 219.496094 647.578125 215.953125 645.585938 212.652344 643.167969 C 211.808594 642.574219 211.015625 641.886719 210.210938 641.226562 C 209.449219 640.511719 208.652344 639.804688 207.941406 639.0625 C 206.492188 637.5625 205.1875 635.949219 204.027344 634.222656 C 203.8125 633.90625 203.664062 633.5625 203.582031 633.1875 C 203.5 632.8125 203.492188 632.4375 203.554688 632.0625 C 203.617188 631.683594 203.746094 631.332031 203.945312 631.003906 C 204.140625 630.679688 204.394531 630.398438 204.699219 630.167969 C 205.003906 629.9375 205.34375 629.773438 205.710938 629.671875 C 206.078125 629.574219 206.453125 629.542969 206.835938 629.585938 C 207.214844 629.628906 207.574219 629.742188 207.910156 629.925781 C 208.246094 630.105469 208.539062 630.34375 208.78125 630.636719 L 208.8125 630.667969 C 209.949219 632.023438 211.164062 633.304688 212.457031 634.511719 C 213.101562 635.128906 213.773438 635.664062 214.433594 636.234375 C 215.136719 636.761719 215.796875 637.335938 216.542969 637.828125 C 217.972656 638.863281 219.519531 639.785156 221.070312 640.695312 C 222.667969 641.554688 224.273438 642.40625 225.945312 643.167969 C 229.320312 644.710938 232.769531 646.070312 236.289062 647.242188 C 237.179688 647.53125 238.070312 647.828125 238.953125 648.152344 C 239.839844 648.460938 240.730469 648.785156 241.609375 649.144531 C 242.5 649.476562 243.375 649.867188 244.257812 650.257812 C 245.15625 650.648438 246.035156 651.085938 246.882812 651.574219 L 246.929688 651.601562 C 247.199219 651.761719 247.394531 651.988281 247.519531 652.277344 C 247.640625 652.566406 247.667969 652.863281 247.597656 653.171875 C 247.527344 653.480469 247.375 653.734375 247.136719 653.941406 C 246.898438 654.148438 246.625 654.265625 246.308594 654.292969 Z M 246.3125 654.292969 " fill-opacity="1" fill-rule="nonzero"/><path fill="#5e2e0d" d="M 294.339844 680.496094 C 267.171875 680.496094 244.996094 677.40625 225.507812 663.101562 C 214.789062 655.230469 206.976562 644.550781 203.515625 633.019531 C 201.082031 624.925781 200.792969 616.4375 200.839844 608.46875 C 200.878906 601.40625 199.589844 597.332031 196.523438 594.847656 C 192.71875 591.8125 188.632812 589.222656 184.261719 587.074219 C 172.789062 581.339844 158.597656 580.253906 144.875 579.199219 C 129.019531 577.980469 112.628906 576.722656 100.421875 568.144531 C 92.863281 562.835938 91.859375 556.421875 92.347656 551.972656 C 93.535156 541.21875 104.042969 532.1875 113.3125 528.351562 C 121.847656 524.816406 129.828125 525.261719 135.207031 529.566406 C 145.949219 538.167969 200.324219 553.648438 223.359375 554.667969 C 229.167969 554.914062 235.128906 552.007812 240.886719 549.1875 C 242.234375 548.527344 243.628906 547.84375 244.992188 547.21875 C 253.875 543.136719 263.210938 542.625 271.164062 542.667969 C 292.898438 542.78125 315.945312 549.925781 337.8125 563.324219 C 371.054688 583.703125 390.914062 603.589844 398.53125 624.136719 C 398.78125 624.820312 399.015625 625.511719 399.230469 626.207031 C 399.441406 626.90625 399.636719 627.605469 399.8125 628.316406 C 399.984375 629.023438 400.136719 629.734375 400.273438 630.453125 C 400.40625 631.167969 400.519531 631.890625 400.609375 632.613281 C 400.703125 633.335938 400.777344 634.0625 400.828125 634.789062 C 400.878906 635.515625 400.910156 636.246094 400.921875 636.972656 C 400.929688 637.703125 400.921875 638.429688 400.890625 639.160156 C 400.859375 639.886719 400.808594 640.617188 400.734375 641.339844 C 400.664062 642.066406 400.570312 642.789062 400.457031 643.511719 C 400.34375 644.230469 400.210938 644.945312 400.058594 645.660156 C 399.902344 646.371094 399.730469 647.082031 399.535156 647.785156 C 399.34375 648.488281 399.128906 649.183594 398.894531 649.875 C 398.664062 650.566406 398.410156 651.25 398.136719 651.925781 C 397.867188 652.601562 397.574219 653.269531 397.265625 653.929688 C 396.957031 654.589844 396.628906 655.242188 396.28125 655.882812 C 395.933594 656.523438 395.570312 657.15625 395.1875 657.777344 C 394.804688 658.398438 394.40625 659.007812 393.988281 659.605469 C 393.570312 660.203125 393.136719 660.789062 392.6875 661.363281 C 392.238281 661.9375 391.769531 662.5 391.289062 663.046875 C 390.808594 663.59375 390.308594 664.128906 389.796875 664.648438 C 389.285156 665.164062 388.757812 665.671875 388.21875 666.160156 C 387.675781 666.648438 387.125 667.121094 386.554688 667.582031 C 385.988281 668.039062 385.410156 668.480469 384.816406 668.90625 C 384.222656 669.332031 383.617188 669.738281 383.003906 670.132812 C 382.386719 670.523438 381.761719 670.894531 381.125 671.25 C 380.488281 671.605469 379.839844 671.945312 379.183594 672.261719 C 378.527344 672.582031 377.863281 672.882812 377.191406 673.164062 C 376.519531 673.445312 375.839844 673.707031 375.148438 673.949219 C 374.460938 674.195312 373.769531 674.417969 373.066406 674.621094 C 372.367188 674.824219 371.660156 675.007812 370.949219 675.171875 C 370.238281 675.335938 369.523438 675.480469 368.804688 675.601562 C 368.085938 675.726562 367.363281 675.828125 366.640625 675.910156 C 340.589844 678.890625 317.535156 680.386719 296.152344 680.492188 C 295.546875 680.492188 294.941406 680.496094 294.339844 680.496094 Z M 124.242188 533.421875 C 121.429688 533.496094 118.734375 534.097656 116.160156 535.230469 C 107.515625 538.8125 100.464844 546.359375 99.753906 552.789062 C 99.355469 556.402344 100.972656 559.433594 104.703125 562.054688 C 115.238281 569.453125 129.910156 570.582031 145.441406 571.773438 C 159.882812 572.882812 174.8125 574.027344 187.59375 580.417969 C 192.445312 582.808594 196.988281 585.691406 201.214844 589.066406 C 207.550781 594.207031 208.320312 602.160156 208.285156 608.511719 C 208.234375 617.050781 208.617188 624.125 210.648438 630.882812 C 213.648438 640.871094 220.492188 650.183594 229.917969 657.101562 C 248.191406 670.515625 269.59375 673.171875 296.117188 673.046875 C 317.222656 672.945312 340.015625 671.464844 365.789062 668.515625 C 366.960938 668.382812 368.121094 668.183594 369.269531 667.917969 C 370.417969 667.65625 371.550781 667.328125 372.660156 666.933594 C 373.773438 666.542969 374.859375 666.085938 375.917969 665.574219 C 376.980469 665.058594 378.007812 664.484375 379 663.851562 C 379.996094 663.21875 380.953125 662.535156 381.871094 661.792969 C 382.789062 661.054688 383.660156 660.265625 384.488281 659.425781 C 385.316406 658.585938 386.09375 657.703125 386.820312 656.777344 C 387.546875 655.847656 388.222656 654.882812 388.839844 653.878906 C 389.457031 652.878906 390.015625 651.84375 390.519531 650.777344 C 391.019531 649.710938 391.457031 648.617188 391.835938 647.5 C 392.210938 646.386719 392.523438 645.25 392.773438 644.097656 C 393.019531 642.949219 393.203125 641.785156 393.320312 640.613281 C 393.4375 639.441406 393.488281 638.265625 393.46875 637.085938 C 393.453125 635.910156 393.371094 634.734375 393.222656 633.566406 C 393.070312 632.398438 392.855469 631.242188 392.574219 630.097656 C 392.292969 628.953125 391.949219 627.828125 391.542969 626.722656 C 384.53125 607.800781 365.679688 589.140625 333.914062 569.671875 C 313.210938 556.984375 291.5 550.222656 271.121094 550.117188 C 263.980469 550.070312 255.664062 550.507812 248.101562 553.984375 C 246.824219 554.570312 245.53125 555.203125 244.164062 555.875 C 237.875 558.957031 230.742188 562.453125 223.027344 562.109375 C 200.382812 561.105469 143.175781 545.488281 130.550781 535.375 C 129.640625 534.699219 128.644531 534.191406 127.5625 533.855469 C 126.480469 533.519531 125.375 533.375 124.242188 533.421875 Z M 124.242188 533.421875 " fill-opacity="1" fill-rule="nonzero"/><path fill="#fff8dc" d="M 265.667969 564.152344 C 249.519531 578.800781 236.097656 595.398438 232.742188 615.726562 C 229.453125 635.65625 350.101562 648.449219 371.183594 640.089844 C 382.5625 635.578125 375.855469 620.335938 373.796875 613.070312 C 369.875 599.261719 365.035156 585.78125 359.273438 572.632812 C 355.675781 564.421875 351.640625 556.210938 345.183594 549.402344 C 338.730469 542.59375 329.511719 537.265625 319.121094 536.519531 C 303.542969 535.40625 289.378906 544.429688 277.933594 553.695312 C 273.753906 557.078125 269.628906 560.558594 265.667969 564.152344 Z M 265.667969 564.152344 " fill-opacity="1" fill-rule="nonzero"/><path fill="#5e2e0d" d="M 257.082031 611.347656 C 260.4375 591.019531 273.859375 574.421875 290.007812 559.769531 C 293.96875 556.175781 298.097656 552.699219 302.277344 549.3125 C 308.035156 544.652344 314.484375 540.050781 321.453125 536.773438 C 320.683594 536.667969 319.90625 536.574219 319.125 536.519531 C 303.542969 535.40625 289.378906 544.429688 277.9375 553.695312 C 273.753906 557.078125 269.628906 560.558594 265.664062 564.152344 C 249.519531 578.800781 236.09375 595.398438 232.738281 615.726562 C 229.449219 635.65625 350.101562 648.449219 371.179688 640.089844 C 372.304688 639.65625 373.324219 639.054688 374.246094 638.277344 C 333.054688 638.945312 254.417969 627.488281 257.082031 611.347656 Z M 257.082031 611.347656 " fill-opacity="0.2" fill-rule="nonzero"/><path fill="#5e2e0d" d="M 346.429688 646.40625 C 332.152344 646.285156 317.921875 645.375 303.738281 643.683594 C 290.871094 642.191406 247.804688 636.441406 233.910156 625.25 C 229.15625 621.421875 228.652344 617.628906 229.066406 615.121094 C 232.085938 596.832031 242.917969 579.761719 263.164062 561.394531 C 266.824219 558.074219 270.890625 554.609375 275.59375 550.804688 C 285.886719 542.464844 301.621094 531.535156 319.390625 532.808594 C 329.75 533.546875 340.140625 538.664062 347.890625 546.84375 C 355.015625 554.359375 359.261719 563.324219 362.683594 571.140625 C 368.511719 584.445312 373.410156 598.085938 377.378906 612.058594 C 377.621094 612.910156 377.949219 613.929688 378.292969 615.007812 C 380.898438 623.160156 385.746094 638.324219 372.554688 643.554688 C 367.445312 645.574219 357.871094 646.40625 346.429688 646.40625 Z M 268.167969 566.90625 C 249.234375 584.082031 239.144531 599.789062 236.410156 616.332031 C 236.230469 617.425781 237.871094 618.878906 238.582031 619.453125 C 246.785156 626.058594 272.078125 632.511719 304.597656 636.289062 C 334.203125 639.726562 361.628906 639.871094 369.804688 636.628906 C 375.457031 634.390625 374.652344 628.097656 371.191406 617.269531 C 370.828125 616.128906 370.484375 615.054688 370.210938 614.085938 C 366.332031 600.4375 361.546875 587.117188 355.855469 574.125 C 352.6875 566.882812 348.777344 558.605469 342.480469 551.960938 C 335.992188 545.117188 327.382812 540.84375 318.855469 540.230469 C 303.71875 539.140625 289.589844 549.042969 280.277344 556.582031 C 275.683594 560.300781 271.722656 563.679688 268.164062 566.90625 Z M 268.167969 566.90625 " fill-opacity="1" fill-rule="nonzero"/></svg>