<svg xmlns="http://www.w3.org/2000/svg" xmlns:xlink="http://www.w3.org/1999/xlink" width="1080" zoomAndPan="magnify" viewBox="0 0 810 809.999993" height="1080" preserveAspectRatio="xMidYMid meet" version="1.0"><defs><clipPath id="4f47a61a4b"><path d="M 269.257812 234.59375 L 540.757812 234.59375 L 540.757812 531.59375 L 269.257812 531.59375 Z M 269.257812 234.59375 " clip-rule="nonzero"/></clipPath></defs><g clip-path="url(#4f47a61a4b)"><path fill="#ffffff" d="M 346.730469 531.59375 L 346.730469 505.8125 L 295.25 505.8125 L 295.25 480.03125 L 282.367188 480.03125 L 282.367188 454.3125 L 269.484375 454.3125 L 269.484375 414.871094 L 282.367188 414.871094 L 282.367188 377.035156 L 269.484375 377.035156 L 269.484375 311.871094 L 282.367188 311.871094 L 282.367188 286.09375 L 295.25 286.09375 L 295.25 260.371094 L 346.730469 260.371094 L 346.730469 234.59375 L 463.402344 234.59375 L 463.402344 260.371094 L 514.820312 260.371094 L 514.820312 286.152344 L 527.703125 286.152344 L 527.703125 311.871094 L 540.527344 311.871094 L 540.527344 351.253906 L 527.703125 351.253906 L 527.703125 389.152344 L 540.527344 389.152344 L 540.527344 454.3125 L 527.703125 454.3125 L 527.703125 480.03125 L 514.820312 480.03125 L 514.820312 505.8125 L 463.402344 505.8125 L 463.402344 531.59375 Z M 346.730469 531.59375 " fill-opacity="1" fill-rule="nonzero"/></g><path fill="#000000" d="M 520.875 344.421875 L 533.699219 344.421875 L 533.699219 318.703125 L 520.875 318.703125 L 520.875 292.980469 L 508.050781 292.980469 L 508.050781 267.203125 L 456.632812 267.203125 L 456.632812 241.421875 L 353.734375 241.421875 L 353.734375 267.203125 L 302.078125 267.203125 L 302.078125 292.921875 L 289.195312 292.921875 L 289.195312 318.703125 L 276.3125 318.703125 L 276.3125 370.261719 L 289.195312 370.261719 L 289.195312 421.703125 L 276.3125 421.703125 L 276.3125 447.480469 L 289.195312 447.480469 L 289.195312 473.261719 L 302.019531 473.261719 L 302.019531 499.039062 L 353.4375 499.039062 L 353.4375 524.820312 L 456.511719 524.820312 L 456.511719 499.039062 L 507.992188 499.039062 L 507.992188 473.261719 L 520.816406 473.261719 L 520.816406 447.480469 L 533.699219 447.480469 L 533.699219 395.980469 L 520.875 395.980469 Z M 520.875 344.421875 " fill-opacity="1" fill-rule="nonzero"/><path fill="#c5ef07" d="M 482.28125 344.421875 L 507.992188 344.421875 L 507.992188 318.703125 L 495.105469 318.703125 L 495.105469 292.980469 L 443.746094 292.980469 L 443.746094 267.203125 L 417.917969 267.203125 L 417.917969 292.980469 L 392.269531 292.980469 L 392.269531 267.203125 L 366.5625 267.203125 L 366.5625 292.980469 L 314.90625 292.980469 L 314.90625 318.703125 L 302.078125 318.703125 L 302.078125 370.261719 L 314.90625 370.261719 L 314.90625 395.980469 L 366.324219 395.980469 L 366.324219 447.480469 L 340.613281 447.480469 L 340.613281 421.703125 L 302.078125 421.703125 L 302.078125 447.480469 L 314.90625 447.480469 L 314.90625 473.261719 L 366.324219 473.261719 L 366.324219 499.039062 L 391.972656 499.039062 L 391.972656 473.261719 L 417.917969 473.261719 L 417.917969 499.039062 L 443.628906 499.039062 L 443.628906 473.261719 L 495.105469 473.261719 L 495.105469 447.480469 L 507.992188 447.480469 L 507.992188 395.980469 L 495.105469 395.980469 L 495.105469 370.203125 L 443.6875 370.203125 L 443.6875 318.703125 L 469.398438 318.703125 L 469.398438 344.421875 Z M 405.035156 318.644531 L 417.917969 318.644531 L 417.917969 370.203125 L 392.269531 370.203125 L 392.269531 318.644531 Z M 353.558594 370.203125 L 340.671875 370.203125 L 340.671875 318.644531 L 366.382812 318.644531 L 366.382812 370.203125 Z M 405.035156 447.480469 L 392.210938 447.480469 L 392.210938 395.921875 L 405.035156 395.980469 L 417.917969 395.980469 L 417.917969 447.480469 Z M 456.511719 395.980469 L 469.398438 395.980469 L 469.398438 447.480469 L 443.6875 447.480469 L 443.6875 395.980469 Z M 456.511719 395.980469 " fill-opacity="1" fill-rule="nonzero"/></svg>