<svg xmlns="http://www.w3.org/2000/svg" xmlns:xlink="http://www.w3.org/1999/xlink" width="1080" zoomAndPan="magnify" viewBox="0 0 810 809.999993" height="1080" preserveAspectRatio="xMidYMid meet" version="1.0"><defs><clipPath id="115fe359bd"><path d="M 86.175781 53.554688 L 728.925781 53.554688 L 728.925781 756.304688 L 86.175781 756.304688 Z M 86.175781 53.554688 " clip-rule="nonzero"/></clipPath></defs><g clip-path="url(#115fe359bd)"><path fill="#ffffff" d="M 269.585938 756.304688 L 269.585938 695.304688 L 147.71875 695.304688 L 147.71875 634.308594 L 117.214844 634.308594 L 117.214844 573.449219 L 86.714844 573.449219 L 86.714844 480.125 L 117.214844 480.125 L 117.214844 390.59375 L 86.714844 390.59375 L 86.714844 236.410156 L 117.214844 236.410156 L 117.214844 175.410156 L 147.71875 175.410156 L 147.71875 114.554688 L 269.585938 114.554688 L 269.585938 53.554688 L 545.792969 53.554688 L 545.792969 114.554688 L 667.519531 114.554688 L 667.519531 175.550781 L 698.023438 175.550781 L 698.023438 236.410156 L 728.382812 236.410156 L 728.382812 329.59375 L 698.023438 329.59375 L 698.023438 419.265625 L 728.382812 419.265625 L 728.382812 573.449219 L 698.023438 573.449219 L 698.023438 634.308594 L 667.519531 634.308594 L 667.519531 695.304688 L 545.792969 695.304688 L 545.792969 756.304688 Z M 269.585938 756.304688 " fill-opacity="1" fill-rule="nonzero"/></g><path fill="#000000" d="M 681.855469 313.429688 L 712.21875 313.429688 L 712.21875 252.574219 L 681.855469 252.574219 L 681.855469 191.714844 L 651.496094 191.714844 L 651.496094 130.714844 L 529.769531 130.714844 L 529.769531 69.71875 L 286.171875 69.71875 L 286.171875 130.714844 L 163.882812 130.714844 L 163.882812 191.574219 L 133.382812 191.574219 L 133.382812 252.574219 L 102.878906 252.574219 L 102.878906 374.570312 L 133.382812 374.570312 L 133.382812 496.285156 L 102.878906 496.285156 L 102.878906 557.285156 L 133.382812 557.285156 L 133.382812 618.285156 L 163.742188 618.285156 L 163.742188 679.28125 L 285.46875 679.28125 L 285.46875 740.28125 L 529.488281 740.28125 L 529.488281 679.28125 L 651.355469 679.28125 L 651.355469 618.285156 L 681.714844 618.285156 L 681.714844 557.285156 L 712.21875 557.285156 L 712.21875 435.429688 L 681.855469 435.429688 Z M 681.855469 313.429688 " fill-opacity="1" fill-rule="nonzero"/><path fill="#c5ef07" d="M 590.492188 313.429688 L 651.355469 313.429688 L 651.355469 252.574219 L 620.851562 252.574219 L 620.851562 191.714844 L 499.265625 191.714844 L 499.265625 130.714844 L 438.121094 130.714844 L 438.121094 191.714844 L 377.398438 191.714844 L 377.398438 130.714844 L 316.535156 130.714844 L 316.535156 191.714844 L 194.246094 191.714844 L 194.246094 252.574219 L 163.882812 252.574219 L 163.882812 374.570312 L 194.246094 374.570312 L 194.246094 435.429688 L 315.972656 435.429688 L 315.972656 557.285156 L 255.109375 557.285156 L 255.109375 496.285156 L 163.882812 496.285156 L 163.882812 557.285156 L 194.246094 557.285156 L 194.246094 618.285156 L 315.972656 618.285156 L 315.972656 679.28125 L 376.695312 679.28125 L 376.695312 618.285156 L 438.121094 618.285156 L 438.121094 679.28125 L 498.984375 679.28125 L 498.984375 618.285156 L 620.851562 618.285156 L 620.851562 557.285156 L 651.355469 557.285156 L 651.355469 435.429688 L 620.851562 435.429688 L 620.851562 374.429688 L 499.125 374.429688 L 499.125 252.574219 L 559.988281 252.574219 L 559.988281 313.429688 Z M 407.621094 252.433594 L 438.121094 252.433594 L 438.121094 374.429688 L 377.398438 374.429688 L 377.398438 252.433594 Z M 285.75 374.429688 L 255.25 374.429688 L 255.25 252.433594 L 316.113281 252.433594 L 316.113281 374.429688 Z M 407.621094 557.285156 L 377.257812 557.285156 L 377.257812 435.289062 L 407.621094 435.429688 L 438.121094 435.429688 L 438.121094 557.285156 Z M 529.488281 435.429688 L 559.988281 435.429688 L 559.988281 557.285156 L 499.125 557.285156 L 499.125 435.429688 Z M 529.488281 435.429688 " fill-opacity="1" fill-rule="nonzero"/></svg>