<svg xmlns="http://www.w3.org/2000/svg" xmlns:xlink="http://www.w3.org/1999/xlink" width="1080" zoomAndPan="magnify" viewBox="0 0 810 809.999993" height="1080" preserveAspectRatio="xMidYMid meet" version="1.0"><defs><clipPath id="8eedfae369"><path d="M 75 322 L 736 322 L 736 610.234375 L 75 610.234375 Z M 75 322 " clip-rule="nonzero"/></clipPath><clipPath id="adfb28215e"><path d="M 160 130.234375 L 663 130.234375 L 663 339 L 160 339 Z M 160 130.234375 " clip-rule="nonzero"/></clipPath><clipPath id="b7a3816d7d"><path d="M 658 187 L 736.726562 187 L 736.726562 336 L 658 336 Z M 658 187 " clip-rule="nonzero"/></clipPath></defs><path stroke-linecap="butt" transform="matrix(0.75, 0, 0, 0.75, 275.39999, 403.5)" fill="none" stroke-linejoin="miter" d="M -0.00206953 2.000001 L 345.602115 2.000001 " stroke="#ffffff" stroke-width="4" stroke-opacity="1" stroke-miterlimit="4"/><path fill="#b2760d" d="M 295.433594 606.976562 C 290.246094 606.976562 284.570312 605.691406 277.578125 602.917969 C 238.195312 587.332031 198.089844 571.617188 159.324219 556.425781 C 142.808594 549.945312 126.289062 543.484375 109.789062 537.003906 C 108.246094 536.390625 106.683594 535.792969 105.136719 535.199219 C 99.6875 533.09375 94.050781 530.898438 88.714844 528.457031 C 83.320312 526 80.210938 522.464844 79.207031 517.679688 L 79.078125 517.007812 L 78.6875 516.449219 C 75.636719 512.109375 75.523438 507.066406 78.316406 500.0625 C 98.03125 450.648438 115.070312 410.992188 131.980469 375.277344 C 132.5 374.085938 132.742188 372.96875 132.964844 372.003906 C 133.265625 370.625 133.46875 369.84375 133.972656 369.359375 L 134.511719 368.875 L 134.789062 368.203125 C 138.324219 359.621094 143.160156 351.914062 149.132812 345.265625 L 150.601562 344.261719 C 151.976562 343.328125 153.335938 342.398438 154.695312 341.449219 C 155.476562 340.890625 155.902344 340.742188 156.03125 340.683594 L 156.460938 340.554688 L 163.53125 336.011719 L 163.714844 334.484375 C 163.976562 334.148438 165.351562 333.722656 166.171875 333.460938 C 167.304688 333.089844 168.589844 332.679688 169.761719 331.988281 L 200.527344 313.574219 C 221.9375 300.765625 243.351562 287.957031 264.761719 275.128906 C 283.066406 264.160156 301.367188 253.210938 319.691406 242.246094 C 375.070312 209.105469 432.324219 174.84375 488.539062 140.957031 C 496.855469 135.949219 504.910156 133.511719 513.148438 133.511719 C 518.730469 133.511719 524.328125 134.609375 530.261719 136.863281 C 550.128906 144.421875 570.351562 151.980469 589.917969 159.277344 C 608.128906 166.074219 626.957031 173.113281 645.425781 180.113281 L 646.5625 180.542969 C 651.84375 182.515625 656.832031 184.394531 659.230469 189.332031 L 659.507812 189.90625 L 659.992188 190.335938 C 664.328125 194.191406 667.023438 199.308594 669.886719 204.726562 C 670.632812 206.125 671.359375 207.519531 672.121094 208.878906 C 690.816406 242.449219 709.363281 276.839844 727.3125 310.09375 L 728.578125 312.441406 C 732.222656 319.21875 735.125 326.570312 731.609375 334.539062 L 731.460938 334.875 L 731.386719 335.230469 C 729.933594 342.492188 724.855469 346.941406 717.695312 351.371094 C 693.34375 366.433594 669.015625 381.496094 644.683594 396.578125 C 623.921875 409.445312 603.183594 422.292969 582.421875 435.140625 C 495.925781 488.667969 409.425781 542.160156 322.910156 595.636719 C 318.574219 598.316406 313.421875 601.40625 308.195312 603.976562 C 304.121094 605.988281 299.953125 606.976562 295.433594 606.976562 Z M 295.433594 606.976562 " fill-opacity="1" fill-rule="nonzero"/><path fill="#fcfae3" d="M 181.441406 360.605469 C 185.648438 353.269531 185.628906 353.253906 176.902344 350.851562 C 168.21875 350.386719 166.746094 341.726562 161.519531 337.332031 C 160.535156 332.046875 166.113281 332.0625 168.085938 329.160156 L 146.9375 342.75 C 150.398438 345.414062 153.335938 338.320312 156.90625 342.175781 C 158.65625 346.753906 156.925781 350.496094 154.304688 354.238281 C 150.84375 359.191406 149.28125 364.5 153.28125 370.027344 C 155.25 372.597656 157.167969 375.464844 159.921875 376.992188 C 166.429688 380.605469 169.464844 386.039062 170.152344 393.226562 C 170.335938 395.070312 171.082031 396.878906 171.898438 398.570312 C 172.757812 400.042969 173.539062 401.585938 175.507812 401.828125 C 180.660156 397.957031 176.867188 393.136719 176.886719 388.722656 C 176.71875 387.492188 176.496094 386.265625 176.160156 385.054688 C 174.152344 379.820312 175.882812 375.074219 178.019531 370.382812 C 178.96875 367.066406 179.695312 363.679688 181.441406 360.605469 Z M 181.441406 360.605469 " fill-opacity="1" fill-rule="nonzero"/><g clip-path="url(#8eedfae369)"><path fill="#7a3b1f" d="M 734.621094 335.882812 C 732.855469 344.726562 726.585938 349.753906 719.425781 354.164062 C 674.316406 382.054688 629.261719 410.039062 584.152344 437.949219 C 497.65625 491.480469 411.15625 544.972656 324.640625 598.449219 C 319.746094 601.464844 314.800781 604.40625 309.644531 606.9375 C 298.449219 612.429688 287.511719 610.382812 276.367188 605.96875 C 220.488281 583.867188 164.515625 562.011719 108.578125 540.058594 C 101.457031 537.265625 94.273438 534.621094 87.335938 531.4375 C 81.71875 528.867188 77.347656 524.808594 75.988281 518.328125 C 75.003906 515.554688 75.449219 513.785156 78.722656 515.480469 C 80.824219 516.5625 82.277344 518.71875 84.378906 519.96875 C 95.558594 528.980469 109.660156 531.289062 122.492188 536.425781 C 169.332031 555.195312 216.527344 573.070312 263.308594 592.003906 C 269.78125 594.964844 276.5 597.3125 283.066406 600.03125 C 292.664062 604.015625 301.332031 602.636719 310.316406 597.332031 C 345.84375 576.328125 380.871094 554.46875 415.957031 532.722656 C 504.015625 478.148438 592.429688 424.117188 679.953125 368.652344 C 691.261719 361.480469 703.148438 355.246094 714.105469 347.480469 C 719.035156 343.980469 723.757812 340.292969 727.183594 335.230469 C 727.574219 334.074219 728.074219 332.976562 728.613281 331.898438 C 729.136719 330.742188 729.730469 329.644531 730.308594 328.507812 C 731.105469 326.386719 731.03125 323.722656 734.457031 322.363281 C 735.851562 326.980469 735.757812 331.394531 734.621094 335.882812 Z M 734.621094 335.882812 " fill-opacity="1" fill-rule="nonzero"/></g><g clip-path="url(#adfb28215e)"><path fill="#bf8132" d="M 168.066406 329.140625 C 199.730469 310.1875 231.40625 291.25 263.066406 272.296875 C 337.679688 227.609375 412.347656 183.035156 486.828125 138.128906 C 501.300781 129.414062 515.660156 127.777344 531.417969 133.769531 C 569.753906 148.351562 608.242188 162.5 646.582031 177.042969 C 652.53125 179.292969 659.007812 181.378906 662.1875 187.898438 C 661.203125 189.238281 659.992188 190.222656 658.300781 190.539062 C 657.480469 190.632812 656.664062 190.558594 655.863281 190.371094 C 627.457031 176.109375 596.933594 167.097656 567.632812 155.050781 C 556.269531 150.378906 544.605469 146.375 533.183594 141.8125 C 517.128906 135.390625 502.472656 136.546875 487.257812 146.097656 C 394.15625 204.523438 298.375 258.519531 204.546875 315.808594 C 193.347656 322.644531 182.375 329.867188 170.785156 336.066406 C 167.734375 337.707031 164.71875 340.238281 161 337.464844 C 158.375 330.464844 164.777344 331.113281 168.066406 329.140625 Z M 168.066406 329.140625 " fill-opacity="1" fill-rule="nonzero"/></g><path fill="#bc7c2c" d="M 82.761719 521.328125 C 80.660156 520.5625 79.46875 518.796875 78.074219 517.175781 C 75.988281 514.773438 76.695312 517.9375 75.988281 518.328125 C 71.542969 512 72.769531 505.074219 75.246094 498.835938 C 92.042969 456.699219 109.585938 414.882812 128.984375 373.863281 C 130.308594 372.207031 131.90625 372.152344 133.671875 373.027344 C 134.304688 373.660156 134.714844 374.402344 134.902344 375.261719 C 131.980469 388.40625 124.96875 399.894531 119.851562 412.164062 C 108.96875 438.359375 97.511719 464.296875 86.945312 490.625 C 84.117188 497.664062 81.125 504.867188 83.078125 512.816406 C 82.984375 515.648438 84.917969 518.570312 82.761719 521.328125 Z M 82.761719 521.328125 " fill-opacity="1" fill-rule="nonzero"/><g clip-path="url(#b7a3816d7d)"><path fill="#965922" d="M 658.820312 189.738281 C 659.546875 188.398438 660.753906 187.953125 662.1875 187.898438 C 668.175781 193.222656 671.265625 200.59375 675.003906 207.296875 C 694.125 241.667969 712.804688 276.28125 731.480469 310.894531 C 735.703125 318.695312 738.585938 326.925781 734.621094 335.882812 C 734.621094 332.136719 734.621094 328.394531 734.621094 323.722656 C 731.925781 326.070312 733.933594 329.53125 731.367188 330.855469 C 720.894531 300.5625 702.535156 274.289062 688.191406 245.949219 C 682.648438 235.003906 676.4375 224.445312 670.222656 213.90625 C 667.878906 205.175781 660.644531 198.714844 658.820312 189.738281 Z M 658.820312 189.738281 " fill-opacity="1" fill-rule="nonzero"/></g><path fill="#fbe98e" d="M 158.433594 340.589844 C 161.222656 346.011719 160.609375 350.757812 156.199219 355.1875 C 152.164062 359.25 152.199219 364.050781 154.769531 368.96875 C 148.238281 372.671875 141.488281 375.464844 133.730469 373.621094 C 132.148438 373.695312 130.585938 373.769531 129.003906 373.84375 C 130.007812 371.574219 129.710938 368.78125 131.738281 366.902344 C 136.742188 367.476562 138.136719 363.734375 139.773438 360.214844 C 143.792969 351.59375 149.410156 344.464844 158.433594 340.589844 Z M 158.433594 340.589844 " fill-opacity="1" fill-rule="nonzero"/><path fill="#da9f2a" d="M 158.433594 340.589844 C 150.84375 348.28125 142.492188 355.300781 139.234375 366.378906 C 138.808594 367.832031 134.714844 373.25 131.738281 366.917969 C 135.421875 358 140.445312 349.902344 146.9375 342.75 C 148.890625 341.410156 150.863281 340.109375 152.796875 338.75 C 155.511719 336.8125 157.6875 336.496094 158.433594 340.589844 Z M 158.433594 340.589844 " fill-opacity="1" fill-rule="nonzero"/><path fill="#eaa240" d="M 729.75 332.640625 C 729.601562 333.589844 729.453125 334.558594 729.300781 335.507812 C 674.96875 368.707031 621.429688 403.207031 567.484375 437.019531 C 515.585938 469.546875 463.261719 501.347656 410.878906 533.074219 C 384.445312 549.089844 358.550781 565.9375 331.96875 581.707031 C 323.261719 586.867188 314.351562 591.652344 305.480469 596.511719 C 302 598.410156 298.28125 600.105469 296.011719 594.722656 C 294.933594 565.585938 295.640625 536.464844 295.621094 507.34375 C 302.539062 496.507812 298.632812 483.957031 301.070312 472.433594 C 301.40625 471.558594 301.964844 470.8125 302.671875 470.21875 C 308.34375 471.464844 306.355469 476.230469 306.410156 479.507812 C 306.707031 496.210938 306.78125 512.910156 306.464844 529.613281 C 306.222656 542.238281 307.191406 554.765625 308.363281 567.277344 C 309.554688 579.996094 314.667969 582.675781 325.664062 576.308594 C 359.035156 556.964844 391.046875 535.382812 423.878906 515.164062 C 451.132812 498.386719 478.363281 481.574219 505.28125 464.257812 C 553.347656 433.332031 586.644531 390.265625 609.023438 338.226562 C 612.707031 329.679688 616.019531 320.984375 619.308594 312.273438 C 628.40625 289.761719 635.175781 266.339844 646.28125 244.628906 C 650.339844 236.699219 654.933594 229.398438 663.230469 225.339844 C 666.6875 223.644531 668.011719 220.257812 670.054688 217.40625 C 672.234375 216.441406 672.996094 218.078125 673.703125 219.511719 C 688.9375 250.625 705.175781 281.195312 722.8125 311.023438 C 726.773438 317.652344 729.542969 324.765625 729.75 332.640625 Z M 729.75 332.640625 " fill-opacity="1" fill-rule="nonzero"/><path fill="#be6d2f" d="M 297.925781 597.144531 C 309.386719 593.996094 318.984375 586.996094 328.878906 581 C 395.046875 540.804688 460.691406 499.691406 526.953125 459.625 C 583.875 425.214844 639.007812 387.996094 696.003906 353.738281 C 703.707031 349.101562 711.242188 344.148438 718.71875 339.15625 C 721.992188 336.960938 725.285156 335.285156 729.320312 335.507812 C 722.214844 347.742188 709.472656 353.105469 698.367188 360.140625 C 660.8125 383.898438 622.863281 407.0625 585.046875 430.449219 C 527.304688 466.175781 469.511719 501.832031 411.808594 537.617188 C 378.917969 558.023438 345.976562 578.355469 312.789062 598.28125 C 301.574219 605 291.25 606.34375 279.660156 601 C 274.265625 598.503906 268.796875 596.136719 263.367188 593.71875 C 266.023438 591.242188 269.449219 590.421875 272.796875 589.398438 C 276.871094 589.4375 279.996094 591.949219 283.511719 593.4375 C 285.148438 594.238281 286.785156 595.078125 288.496094 595.710938 C 291.507812 597.070312 294.839844 596.304688 297.925781 597.144531 Z M 297.925781 597.144531 " fill-opacity="1" fill-rule="nonzero"/><path fill="#df8b3a" d="M 273.207031 590.460938 C 270.304688 592.65625 267.253906 594.425781 263.382812 593.71875 C 221.417969 577.371094 179.453125 560.984375 137.46875 544.695312 C 123.21875 539.164062 108.933594 533.746094 94.574219 528.496094 C 90.089844 526.855469 86.21875 524.511719 82.777344 521.308594 C 82.238281 518.589844 81.683594 515.871094 81.140625 513.152344 C 84.324219 512.390625 85.476562 514.53125 86.292969 516.113281 C 85.457031 513.339844 85.011719 509.671875 85.828125 506.097656 C 89.121094 491.871094 94.832031 478.578125 101.363281 465.582031 C 101.863281 464.59375 102.867188 464.019531 103.875 463.535156 C 108.394531 464.128906 108.320312 468.132812 108.730469 471.035156 C 110.8125 485.597656 116.039062 499.039062 122.308594 512.183594 C 123.609375 514.902344 125.46875 518.125 124.09375 520.789062 C 121.097656 526.539062 124.558594 527.75 128.726562 529.316406 C 159.417969 540.914062 190.019531 552.71875 220.488281 564.914062 C 236.46875 571.300781 252.296875 578.097656 268.015625 585.132812 C 270.304688 586.175781 273.503906 586.699219 273.207031 590.460938 Z M 273.207031 590.460938 " fill-opacity="1" fill-rule="nonzero"/><path fill="#fae384" d="M 729.75 332.640625 C 717.675781 301.230469 697.363281 274.085938 683.5625 243.566406 C 679.542969 234.6875 673.554688 226.792969 670.652344 217.371094 C 670.039062 216.867188 669.628906 216.253906 669.441406 215.472656 C 669.554688 213.890625 669.628906 212.289062 671.933594 212.640625 C 688.882812 243.363281 705.808594 274.085938 722.753906 304.804688 C 727.238281 312.960938 731.441406 321.191406 731.367188 330.855469 C 730.828125 331.449219 730.289062 332.046875 729.75 332.640625 Z M 729.75 332.640625 " fill-opacity="1" fill-rule="nonzero"/><path fill="#fceb8c" d="M 176.273438 352.210938 C 166.394531 352.171875 164.421875 344.296875 161.519531 337.332031 C 167.992188 337.296875 172.515625 332.808594 177.480469 329.753906 C 265.988281 275.535156 355.890625 223.664062 444.75 170.039062 C 459.707031 161.011719 474.773438 152.09375 489.375 142.523438 C 501.839844 134.347656 514.621094 132.933594 528.347656 138.109375 C 552.863281 147.363281 577.363281 156.617188 601.878906 165.90625 C 616.167969 171.324219 630.433594 176.800781 644.738281 182.199219 C 649.390625 183.949219 653.648438 186.3125 657.296875 189.722656 C 660.066406 197.207031 658.242188 201.933594 650.429688 207.371094 C 637.613281 216.273438 624.148438 224.128906 610.773438 232.097656 C 579.316406 250.867188 548.363281 270.453125 517.113281 289.558594 C 480.523438 311.957031 443.953125 334.390625 407.15625 356.457031 C 398.953125 361.371094 391.179688 366.976562 383.011719 371.925781 C 378.34375 374.757812 375.925781 378.332031 375.460938 383.546875 C 373.449219 385.390625 370.996094 385.464844 368.539062 385.035156 C 364.6875 384.347656 363.367188 382.167969 365.378906 378.59375 C 366.867188 375.929688 369.078125 373.808594 371.496094 372.058594 C 383.625 363.25 395.269531 353.847656 408.625 346.71875 C 418.597656 341.390625 426.78125 333.164062 435.988281 326.535156 C 430.894531 329.90625 426.371094 335.136719 419.265625 331.132812 C 419.582031 324.933594 425.273438 323.835938 429.089844 321.488281 C 461.230469 301.863281 493.394531 282.296875 525.6875 262.929688 C 534.335938 257.738281 542.894531 252.394531 551.449219 247.011719 C 572.433594 233.679688 594.234375 221.691406 615.179688 208.304688 C 620.242188 205.0625 625.429688 201.972656 630.398438 198.601562 C 638.582031 193.054688 638.285156 188.808594 629.1875 185.066406 C 603.40625 174.472656 577.308594 164.660156 551.375 154.402344 C 542.988281 151.085938 534.449219 148.199219 525.890625 145.316406 C 514.453125 141.460938 503.847656 142.894531 493.785156 149.375 C 453.308594 175.421875 411.0625 198.527344 370.34375 224.148438 C 367.796875 225.75 365.152344 227.164062 362.476562 228.542969 C 344.042969 238.1875 326.761719 249.804688 308.882812 260.378906 C 288.886719 272.222656 269.058594 284.34375 249.136719 296.296875 C 225.621094 310.597656 202.3125 325.210938 178.820312 339.511719 C 178.113281 339.941406 177.371094 340.3125 176.753906 340.832031 C 175.210938 342.175781 172.214844 342.957031 173.257812 345.582031 C 174.207031 347.964844 177.015625 347.3125 179.117188 347.089844 C 189.777344 346.011719 200.34375 346.886719 210.851562 348.5625 C 215.128906 349.25 215.113281 349.378906 214.367188 353.476562 C 201.570312 355.207031 188.957031 352.710938 176.273438 352.210938 Z M 176.273438 352.210938 " fill-opacity="1" fill-rule="nonzero"/><path fill="#f7d362" d="M 375.085938 383.324219 C 372.519531 377.867188 374.457031 375.222656 379.550781 371.777344 C 418.839844 345.226562 460.46875 322.53125 500.464844 297.152344 C 546.242188 268.109375 593.007812 240.605469 639.34375 212.398438 C 643.066406 210.144531 646.691406 207.726562 650.265625 205.25 C 655.660156 201.507812 658.1875 196.367188 657.3125 189.738281 C 657.835938 189.703125 658.355469 189.703125 658.859375 189.738281 C 664.328125 196.742188 668.660156 204.394531 671.972656 212.640625 C 671.449219 213.777344 670.929688 214.914062 670.410156 216.046875 C 660.066406 210.761719 651.863281 215.75 643.34375 221.132812 C 567.019531 269.28125 489.675781 315.808594 412.757812 362.992188 C 406.46875 366.84375 400.609375 371.425781 393.929688 374.644531 C 392.425781 376.0625 387.234375 375.726562 391.511719 379.953125 C 391.976562 380.398438 390.824219 381.890625 390.023438 382.671875 C 387.03125 384.644531 383.996094 386.488281 380.203125 386.171875 C 378.195312 385.707031 376.277344 385.164062 375.085938 383.324219 Z M 375.085938 383.324219 " fill-opacity="1" fill-rule="nonzero"/><path fill="#f48c20" d="M 133.730469 373.640625 C 140.707031 371.890625 147.511719 369.394531 154.769531 368.96875 C 159.046875 372.167969 161.6875 377.046875 167.378906 378.984375 C 171.195312 380.289062 170.355469 385.59375 171.304688 389.207031 C 172.066406 392.109375 172.515625 395.089844 173.109375 398.03125 C 175.136719 409.109375 168.347656 414.917969 157.148438 411.714844 C 154.097656 409.78125 152.109375 406.484375 148.722656 404.9375 C 141.375 404.417969 138.398438 399.929688 138.15625 393.097656 C 138.007812 388.757812 137.765625 384.457031 136.109375 380.363281 C 135.273438 378.796875 135.347656 376.824219 133.859375 375.558594 C 133.804688 374.925781 133.765625 374.273438 133.730469 373.640625 Z M 133.730469 373.640625 " fill-opacity="1" fill-rule="nonzero"/><path fill="#fbe98e" d="M 133.859375 375.578125 C 136.054688 375.277344 136.6875 376.695312 137.023438 378.425781 C 138.472656 381.722656 137.542969 384.8125 136.257812 387.882812 C 126.828125 410.617188 117.972656 433.59375 108.730469 456.402344 C 107.613281 459.175781 106.792969 462.15625 104.078125 463.960938 C 97.269531 481.148438 87.058594 497.253906 87.316406 516.726562 C 84.175781 517.0625 83.320312 513.953125 81.105469 513.152344 C 78.613281 506.414062 81.03125 500.136719 83.410156 494.085938 C 99.167969 454.132812 116.1875 414.714844 133.859375 375.578125 Z M 133.859375 375.578125 " fill-opacity="1" fill-rule="nonzero"/><path fill="#f2b44a" d="M 104.097656 463.980469 C 113.082031 437.839844 124.222656 412.535156 134.363281 386.859375 C 135.460938 384.105469 137.1875 381.589844 137.023438 378.445312 C 139.757812 382.09375 140.425781 386.300781 140.148438 390.714844 C 139.683594 397.9375 141.617188 403.152344 150.15625 402.984375 C 154.304688 423.707031 162.523438 443.109375 169.425781 462.9375 C 175.433594 480.179688 181.742188 497.308594 186.894531 512.371094 C 177.890625 482.039062 167.660156 449.625 157 417.339844 C 156.183594 414.84375 154.46875 412.3125 156.664062 409.648438 C 166.429688 413.148438 172.066406 409.183594 173.109375 398.070312 C 173.667969 399.148438 174.226562 400.230469 174.785156 401.308594 C 179.601562 407.621094 182.914062 414.863281 185.292969 422.253906 C 192.546875 444.820312 200.492188 467.128906 207.800781 489.65625 C 215.726562 515.035156 223.351562 540.542969 235.070312 564.597656 C 232.503906 539.761719 226.496094 515.722656 220.507812 491.667969 C 212.824219 463.160156 205.753906 434.488281 198.054688 405.980469 C 197.273438 403.097656 196.363281 400.191406 197.085938 397.121094 C 204.101562 393.65625 205.980469 399.6875 208.453125 403.710938 C 210.277344 406.671875 210.648438 410.449219 210.910156 413.949219 C 211.652344 424.0625 216.5625 431.675781 223.613281 438.660156 C 231.835938 446.796875 241.675781 453.757812 245.601562 465.488281 C 257.339844 501.589844 268.40625 537.878906 277.390625 574.78125 C 278.65625 579.996094 280.925781 584.484375 284.90625 588.113281 C 286.355469 590.945312 285.707031 593.253906 283.230469 595.132812 C 279.882812 593.585938 276.515625 592.042969 273.167969 590.476562 C 261.671875 583.683594 249.117188 579.234375 236.820312 574.28125 C 197.496094 558.433594 158.023438 542.945312 117.992188 527.0625 C 124.371094 522.183594 122.457031 516.785156 119.332031 510.917969 C 112.09375 497.347656 108.152344 482.691406 105.679688 467.574219 C 105.511719 466.289062 104.65625 465.152344 104.097656 463.980469 Z M 104.097656 463.980469 " fill-opacity="1" fill-rule="nonzero"/><path fill="#fdf4a5" d="M 375.085938 383.324219 C 376.910156 383.453125 378.917969 383.0625 380.035156 385.128906 C 380.445312 387.511719 378.695312 388.648438 377.097656 389.503906 C 370.773438 392.910156 365.542969 396.839844 367.683594 405.3125 C 367.925781 406.261719 367.496094 407.527344 366.324219 407.992188 C 364.800781 408.589844 363.742188 407.582031 362.808594 406.632812 C 360.484375 404.289062 360.09375 400.710938 357.566406 398.476562 C 348.023438 394.402344 339.113281 394.085938 330.203125 400.804688 C 324.117188 405.386719 317.476562 409.242188 311.914062 414.527344 C 304.046875 422.011719 299.65625 430.894531 300.011719 442.140625 C 300.511719 458.226562 297.519531 474.222656 298.335938 490.34375 C 298.46875 493.042969 298.1875 495.835938 296.121094 498.015625 C 289.164062 499.5625 286.246094 497.570312 285.835938 490.085938 C 285.296875 480.273438 285.6875 470.421875 285.648438 460.589844 C 285.816406 451.339844 285.464844 442.046875 285.835938 432.792969 C 286.152344 424.710938 282.636719 419.292969 275.921875 415.421875 C 267.140625 410.375 257.894531 406.222656 248.335938 403.113281 C 231.035156 397.492188 214.871094 388.386719 196.398438 386.246094 C 192.34375 385.78125 188.660156 383.304688 186.503906 379.5625 C 184.066406 375.355469 180.476562 372.617188 176.402344 370.328125 C 176.699219 364.3125 178.375 358.894531 183.5625 355.152344 C 181.425781 352.675781 177.871094 354.945312 176.273438 352.210938 C 189.421875 348.878906 202.59375 352.546875 215.746094 352.152344 C 217.53125 350.070312 220.042969 349.808594 222.496094 349.789062 C 253.617188 349.4375 284.683594 346.289062 315.898438 349.195312 C 335.761719 351.035156 355.796875 349.976562 375.644531 347.257812 C 387.886719 345.582031 398.300781 339.472656 408.851562 333.648438 C 412.050781 331.878906 414.914062 328.527344 419.25 330.761719 C 425.441406 331.578125 430.390625 329.382812 434.484375 324.746094 C 436.214844 322.792969 439.246094 321.285156 440.84375 323.480469 C 443.019531 326.496094 439.058594 326.960938 437.386719 328.339844 C 417.109375 345.097656 393.464844 357.015625 372.855469 373.285156 C 372.425781 373.621094 371.980469 373.976562 371.664062 374.402344 C 369.785156 376.917969 365.0625 378.613281 366.25 381.777344 C 367.515625 385.183594 372.019531 382.894531 375.085938 383.324219 Z M 375.085938 383.324219 " fill-opacity="1" fill-rule="nonzero"/><path fill="#ed8124" d="M 243.742188 465.617188 C 240.1875 455.957031 232.46875 449.496094 225.136719 443.21875 C 214.3125 433.929688 208.640625 422.628906 207.726562 408.683594 C 207.300781 402.035156 203.726562 398.347656 197.609375 396.652344 C 189.367188 395.519531 181.035156 394.660156 174.859375 388.050781 C 174.785156 387.121094 174.691406 386.191406 174.617188 385.242188 C 175.566406 380.15625 176.363281 379.65625 182.652344 381.945312 C 195.488281 386.617188 208.398438 391.050781 221.214844 395.761719 C 235.835938 401.140625 250.457031 406.449219 264.851562 412.425781 C 269.410156 414.324219 273.726562 416.613281 277.800781 419.425781 C 284.125 423.820312 287.289062 429.722656 287.15625 437.484375 C 287.027344 444.597656 287.15625 451.710938 287.121094 458.824219 C 287.121094 459.773438 286.914062 460.667969 286.542969 461.542969 C 285.222656 465.898438 281.667969 467.3125 277.761719 467.609375 C 269.375 468.246094 260.945312 468.058594 252.578125 469.121094 C 249.152344 469.566406 246.214844 467.964844 243.742188 465.617188 Z M 243.742188 465.617188 " fill-opacity="1" fill-rule="nonzero"/><path fill="#fde97b" d="M 174.859375 388.03125 C 182.167969 391.625 190.707031 391.960938 197.609375 396.636719 C 206.722656 428.140625 214.90625 459.902344 222.292969 491.851562 C 216.804688 499.058594 212.695312 498.648438 205.886719 490.195312 C 198.242188 467.519531 190.578125 444.859375 183.003906 422.144531 C 180.625 415.03125 175.25 409.109375 174.765625 401.269531 C 178.726562 396.894531 173.425781 392.445312 174.859375 388.03125 Z M 174.859375 388.03125 " fill-opacity="1" fill-rule="nonzero"/><path fill="#fde556" d="M 286.785156 458.972656 C 286.636719 452.957031 286.28125 446.945312 286.414062 440.929688 C 286.636719 431.507812 282.5625 424.824219 274.601562 419.984375 C 263.773438 413.390625 251.703125 409.667969 240.058594 405.105469 C 220.75 397.546875 201.179688 390.695312 181.628906 383.789062 C 179.527344 383.042969 175.863281 379.691406 174.632812 385.222656 C 171.75 379.839844 172.234375 374.871094 176.402344 370.328125 C 182.375 368.074219 185.648438 372.449219 187.171875 376.414062 C 189.347656 382.054688 193.886719 384.457031 198.351562 384.644531 C 214.183594 385.257812 227.316406 393.84375 241.84375 398.253906 C 253.582031 401.8125 264.816406 406.875 275.734375 412.589844 C 284.238281 417.042969 288.960938 423.277344 288.160156 433.5 C 287.492188 441.933594 287.957031 450.464844 287.902344 458.953125 C 287.527344 458.953125 287.15625 458.953125 286.785156 458.972656 Z M 286.785156 458.972656 " fill-opacity="1" fill-rule="nonzero"/><path fill="#995228" d="M 621.132812 312.71875 C 598.179688 380.15625 558.949219 434.617188 497.171875 472.097656 C 445.605469 503.398438 394.878906 536.054688 343.742188 568.0625 C 337.269531 572.121094 330.703125 576.046875 324.007812 579.734375 C 314.222656 585.097656 309.105469 583.125 306.910156 572.175781 C 305.273438 563.945312 304.792969 555.382812 304.660156 546.964844 C 304.269531 521.53125 304.308594 496.078125 304.175781 470.644531 C 300.625 461.523438 301.574219 459.585938 309.40625 453.925781 C 317.589844 448.023438 325.289062 441.488281 330.460938 432.421875 C 334.554688 425.253906 340.300781 419.984375 349.0625 419.128906 C 352.28125 418.921875 355.5 418.867188 358.699219 419.050781 C 367.554688 419.554688 369.152344 422.738281 364.390625 430.222656 C 363.664062 431.359375 362.808594 432.382812 361.9375 433.390625 C 348.746094 450.109375 338.925781 468.429688 335.148438 489.65625 C 334.144531 495.355469 334.125 501.050781 335.410156 506.730469 C 337.828125 517.34375 341.976562 520.265625 352.894531 519.019531 C 356.707031 518.589844 360.449219 517.714844 364.019531 516.375 C 385.46875 508.332031 406.414062 499.152344 426.316406 487.757812 C 457.214844 470.160156 482.253906 446.105469 503.457031 417.769531 C 522.46875 392.390625 541.777344 367.21875 556.472656 338.933594 C 557.328125 337.277344 558.035156 335.339844 560.4375 335.324219 C 567.355469 343.460938 567.335938 343.441406 576.824219 335.75 C 588.171875 326.570312 600.113281 318.285156 613.597656 312.457031 C 616.257812 311.304688 618.714844 310.390625 621.132812 312.71875 Z M 621.132812 312.71875 " fill-opacity="1" fill-rule="nonzero"/><path fill="#914c26" d="M 621.132812 312.71875 C 616.351562 313.148438 596.394531 323.367188 593.042969 326.238281 C 585.882812 332.34375 577.882812 337.371094 570.742188 343.570312 C 566.332031 347.40625 561.664062 348.078125 561.925781 339.550781 C 561.960938 338.300781 561.011719 337.035156 560.511719 335.789062 C 557.980469 333.125 559.542969 330.089844 559.746094 327.203125 C 560.714844 314.359375 552.789062 307.261719 540.140625 308.976562 C 513.855469 312.53125 490.773438 324.28125 468.113281 336.921875 C 446.183594 349.15625 424.921875 362.488281 406.671875 380.082031 C 404.367188 382.296875 401.742188 385.371094 398.226562 382.96875 C 395.046875 380.808594 391.066406 378.445312 392.816406 373.269531 C 477.730469 320.894531 562.667969 268.515625 647.585938 216.160156 C 658.726562 209.289062 661.777344 209.308594 670.371094 216.066406 C 670.355469 216.53125 670.445312 216.960938 670.652344 217.390625 C 671.246094 221.632812 670.113281 224.835938 665.796875 226.585938 C 657.445312 229.976562 652.699219 236.753906 648.703125 244.5 C 637.355469 266.359375 630.878906 290.207031 621.132812 312.71875 Z M 621.132812 312.71875 " fill-opacity="1" fill-rule="nonzero"/><path fill="#a75d2a" d="M 619.570312 393.152344 C 620.5 385.425781 623.644531 380.230469 626.117188 374.886719 C 635.289062 355.097656 637.671875 333.535156 642.636719 312.644531 C 647.175781 293.523438 654.335938 275.796875 669.125 261.871094 C 674.425781 256.878906 677.515625 256.210938 681.382812 263.097656 C 693.121094 284.046875 705.101562 304.878906 717.285156 325.585938 C 720.28125 330.6875 717.175781 332.269531 713.84375 334.355469 C 689.085938 349.808594 664.328125 365.300781 639.566406 380.753906 C 633.335938 384.644531 627.085938 388.5 619.570312 393.152344 Z M 619.570312 393.152344 " fill-opacity="1" fill-rule="nonzero"/><path fill="#c96f1d" d="M 348.765625 421.121094 C 341.53125 422.199219 336.675781 426.351562 332.953125 432.550781 C 326.5 443.332031 317.886719 451.820312 306.613281 457.855469 C 301.796875 460.425781 305.554688 466.402344 304.175781 470.628906 C 303.730469 470.535156 303.285156 470.460938 302.820312 470.421875 C 300.179688 468.152344 300.511719 465.003906 300.457031 462.042969 C 300.328125 455.75 300.457031 449.457031 300.402344 443.144531 C 300.308594 431.84375 305.292969 422.90625 313.960938 416.335938 C 324.007812 408.71875 335.054688 402.574219 346.683594 397.679688 C 350.867188 395.910156 355.425781 394.457031 360.09375 396.652344 C 361.582031 400.078125 363.070312 403.503906 364.558594 406.929688 C 359.796875 392.351562 372.875 390.789062 380 385.128906 C 383.199219 383.882812 386.378906 382.632812 389.578125 381.40625 C 394.210938 386.433594 394.15625 391.570312 389.988281 396.839844 C 389.316406 397.695312 390.097656 396.578125 389.484375 397.472656 C 379.664062 411.808594 369.320312 425.269531 348.765625 421.121094 Z M 348.765625 421.121094 " fill-opacity="1" fill-rule="nonzero"/><path fill="#fae259" d="M 360.113281 396.652344 C 355.648438 396.28125 351.667969 397.640625 347.613281 399.519531 C 337.234375 404.34375 327.28125 409.910156 317.867188 416.351562 C 308.457031 422.796875 302.390625 431.339844 302.78125 443.519531 C 303.0625 452.472656 302.839844 461.46875 302.839844 470.421875 C 302.765625 475.878906 302.914062 481.371094 302.558594 486.808594 C 302.167969 492.671875 305.035156 499.375 298.300781 503.863281 C 297.460938 504.421875 297.890625 506.972656 297.890625 508.609375 C 297.890625 538.121094 297.910156 567.632812 297.925781 597.144531 C 294.597656 599.359375 291.304688 599.488281 288.03125 597.015625 C 292.570312 593.53125 293.613281 588.800781 293.574219 583.292969 C 293.425781 558.660156 293.5 534.027344 293.519531 509.410156 C 293.519531 505.015625 293.480469 500.621094 296.140625 496.789062 C 295.191406 476.566406 297.910156 456.441406 297.851562 436.238281 C 297.835938 428.457031 301.796875 422.160156 306.746094 416.519531 C 316.289062 405.628906 328.917969 399.054688 341.25 392.074219 C 342.179688 391.550781 344.078125 390.863281 344.207031 391.066406 C 348.058594 397.210938 355.535156 392.835938 360.113281 396.652344 Z M 360.113281 396.652344 " fill-opacity="1" fill-rule="nonzero"/><path fill="#fce781" d="M 296.140625 496.769531 C 296.160156 527.488281 295.972656 558.230469 296.328125 588.953125 C 296.402344 595.488281 294.394531 598.019531 288.03125 597.015625 C 286.429688 596.378906 284.851562 595.746094 283.25 595.097656 C 283.679688 592.953125 284.105469 590.8125 284.535156 588.671875 C 281.578125 585.246094 282.097656 581.039062 281.96875 577 C 280.777344 541.863281 283.902344 506.824219 283.621094 471.707031 C 283.585938 467.796875 284.941406 464.242188 286.207031 460.667969 C 286.394531 460.109375 286.582031 459.53125 286.765625 458.972656 C 287.136719 458.992188 287.511719 458.972656 287.882812 458.933594 C 287.902344 469.269531 287.789062 479.601562 288.03125 489.917969 C 288.160156 494.871094 289.035156 499.730469 296.140625 496.769531 Z M 296.140625 496.769531 " fill-opacity="1" fill-rule="nonzero"/><path fill="#fbd053" d="M 419.265625 330.761719 C 414.28125 331.785156 410.746094 335.453125 406.671875 338.039062 C 389.933594 348.671875 371.253906 351.148438 352.078125 352.117188 C 331.355469 353.160156 310.726562 351.09375 290.039062 350.421875 C 265.226562 349.621094 240.539062 353.289062 215.726562 352.152344 C 203.914062 348.726562 191.839844 348.320312 179.675781 349.195312 C 178.074219 349.304688 176.382812 350.011719 174.949219 349.640625 C 172.679688 349.0625 169.554688 349.15625 168.773438 346.382812 C 167.957031 343.441406 170.691406 342.136719 172.71875 340.890625 C 197.960938 325.4375 223.242188 310.054688 248.519531 294.660156 C 264.5 294.082031 279.714844 290.300781 294.078125 283.320312 C 302.707031 279.128906 311.394531 275.332031 321.050781 274.417969 C 324.265625 274.121094 327.691406 273.433594 329.886719 276.894531 C 333.085938 287.15625 336.0625 288.738281 346.328125 285.851562 C 349.4375 284.976562 352.46875 283.839844 355.628906 283.207031 C 357.230469 283.039062 358.753906 283.246094 360.113281 284.15625 C 361.953125 286.019531 361.488281 288.738281 362.660156 290.898438 C 363.832031 293.074219 367.480469 294.789062 365.136719 297.785156 C 362.941406 300.617188 359.871094 298.382812 357.175781 297.953125 C 368.148438 301.9375 375.144531 291.25 384.871094 290.488281 C 386.136719 290.804688 386.9375 291.585938 387.253906 292.851562 C 386.433594 298.660156 380.6875 299.109375 377.300781 302.125 C 375.535156 303.1875 375.011719 304.230469 377.414062 305.140625 C 381.5625 306.722656 385.914062 307.785156 389.933594 309.777344 C 391.308594 310.464844 392.609375 311.25 393.820312 312.199219 C 395.847656 314.058594 397.984375 315.882812 400.703125 316.480469 C 404.050781 317.226562 407.679688 318.15625 406.191406 312.140625 C 404.90625 306.929688 408.886719 306.054688 412.570312 306.089844 C 416.679688 306.144531 420.71875 306.070312 424.734375 305.140625 C 434.726562 304.394531 443.820312 300.578125 452.769531 296.578125 C 469.472656 289.109375 485.636719 280.5625 501.003906 270.585938 C 504.460938 268.332031 510.339844 266.039062 508.667969 261.253906 C 506.882812 256.171875 500.835938 257.328125 496.332031 258.164062 C 483.460938 260.566406 470.773438 258.089844 458.03125 257.160156 C 455.835938 256.992188 453.660156 256.378906 453.066406 253.695312 C 453.699219 249.898438 456.785156 249.226562 459.761719 248.410156 C 475.925781 245.074219 491.871094 241.128906 505.691406 231.429688 C 511.828125 227.742188 519.308594 227.425781 525.390625 223.589844 C 547.414062 214.316406 571.09375 213.105469 594.253906 209.421875 C 596.671875 209.027344 599.59375 208.9375 600.429688 211.988281 C 601.359375 215.453125 598.792969 217.722656 596.335938 219.363281 C 587.484375 225.265625 578.164062 230.441406 569.402344 236.492188 C 563.652344 240.476562 556.304688 242.265625 552.269531 248.652344 C 527.734375 263.675781 503.050781 278.480469 478.699219 293.800781 C 458.945312 306.203125 438.109375 316.910156 419.265625 330.761719 Z M 419.265625 330.761719 " fill-opacity="1" fill-rule="nonzero"/><path fill="#eeaa49" d="M 552.269531 248.613281 C 553.554688 240.550781 561.792969 240.105469 566.648438 236.15625 C 574.796875 229.511719 584.414062 224.652344 593.378906 218.992188 C 595.890625 217.40625 599.796875 215.378906 598.886719 212.679688 C 597.507812 208.65625 593.84375 212.007812 591.164062 212.34375 C 570.445312 214.929688 549.609375 216.960938 529.761719 224.074219 C 528.476562 224.539062 527.230469 225.097656 525.964844 225.601562 C 521.742188 225.453125 518.433594 222.769531 514.636719 221.449219 C 517.800781 223.777344 521.78125 226.363281 514.84375 228.671875 C 509.726562 230.367188 504.40625 231.632812 498.992188 232.136719 C 495.980469 232.433594 492.835938 232.265625 491.253906 228.96875 C 489.675781 225.636719 492.652344 224.148438 494.289062 222.136719 C 495.980469 220.070312 498.285156 218.75 500.464844 217.277344 C 497.820312 218.636719 495.589844 220.515625 493.636719 222.734375 C 491.925781 224.667969 489.0625 226.214844 490.828125 229.566406 C 492.410156 232.5625 495.328125 231.855469 497.972656 232.304688 C 500.835938 232.769531 503.699219 230.160156 506.472656 232.433594 C 503.664062 238.78125 497.246094 239.191406 491.851562 241.089844 C 481.527344 244.722656 471.59375 249.804688 460.339844 250.214844 C 459.855469 249.117188 460.226562 248.128906 460.601562 247.085938 C 461.605469 244.351562 465.902344 242.097656 462.273438 238.632812 C 460.042969 236.511719 448.472656 237.535156 446.628906 239.808594 C 444.359375 242.597656 446.351562 244.183594 448.378906 245.800781 C 449.792969 246.917969 452.472656 247.421875 451.894531 249.730469 C 451.28125 252.261719 448.527344 252.09375 446.445312 252.394531 C 443.207031 252.839844 439.894531 253.304688 437.085938 250.867188 C 435.28125 244.871094 432.082031 239.808594 427.210938 235.820312 C 426.875 231.59375 431.320312 225.84375 423.582031 224.148438 C 422.652344 223.253906 422.726562 225.359375 423.097656 224.316406 C 423.191406 224.035156 423.378906 224.222656 423.863281 224.539062 C 426.355469 226.195312 427.75 228.375 426.6875 231.390625 C 425.589844 234.464844 422.578125 232.824219 420.773438 233.605469 C 412.273438 237.347656 405.800781 230.71875 398.265625 230.011719 C 388.277344 229.195312 378.304688 227.851562 368.410156 231.074219 C 365.042969 232.171875 361.804688 232.003906 361.710938 227.089844 C 406.429688 199.90625 451.074219 172.648438 495.886719 145.632812 C 505.503906 139.820312 515.828125 139.746094 526.542969 143.285156 C 555.824219 152.929688 584.003906 165.421875 612.816406 176.242188 C 619.441406 178.734375 625.988281 181.472656 632.5 184.230469 C 641.351562 187.972656 642.078125 193.128906 633.839844 198.863281 C 623.996094 205.714844 613.617188 211.765625 603.351562 217.984375 C 586.386719 228.300781 569.308594 238.429688 552.269531 248.613281 Z M 552.269531 248.613281 " fill-opacity="1" fill-rule="nonzero"/><path fill="#f3bb50" d="M 427.601562 235.542969 C 434.835938 237.8125 438.148438 242.691406 437.347656 250.269531 C 432.660156 249.191406 428.085938 244.722656 423.191406 249.769531 C 433.71875 246.824219 433.90625 246.917969 432.605469 254.777344 C 429.460938 258.351562 425.050781 258.816406 420.8125 259.710938 C 400.851562 263.882812 380.796875 267.550781 360.800781 271.441406 C 350.367188 269.691406 340.394531 269.949219 332.171875 277.996094 C 331.390625 278.757812 330.183594 278.683594 329.105469 278.347656 C 325.71875 273.339844 320.992188 276.652344 317.292969 277.15625 C 310.613281 278.070312 304.085938 280.339844 298.078125 283.804688 C 284.367188 291.714844 269.019531 294.25 253.765625 297.117188 C 251.015625 297.636719 249.636719 296.800781 248.539062 294.640625 C 285 272.59375 321.457031 250.550781 357.9375 228.523438 C 359.070312 227.835938 360.464844 227.574219 361.730469 227.109375 C 363.460938 231.09375 365.992188 229.714844 369.097656 228.710938 C 379.308594 225.394531 389.617188 225.710938 399.808594 229.082031 C 403.214844 229.527344 405.484375 232.265625 408.535156 233.421875 C 410.578125 234.183594 412.980469 235.207031 412.683594 237.8125 C 412.347656 240.738281 409.464844 240.125 407.4375 240.550781 C 406.226562 240.8125 405.09375 241.390625 403.695312 240.941406 C 412.476562 242.414062 418.988281 234.761719 427.601562 235.542969 Z M 427.601562 235.542969 " fill-opacity="1" fill-rule="nonzero"/><path fill="#c26f32" d="M 348.765625 421.121094 C 353.25 417.769531 359.164062 418.511719 363.574219 418.773438 C 369.617188 419.144531 371.628906 416.296875 374.398438 412.742188 C 377.878906 408.253906 381.078125 403.414062 385.152344 399.503906 C 390.675781 394.195312 392.425781 388.480469 389.597656 381.367188 C 388.109375 380.511719 386.601562 379.65625 384.59375 378.480469 C 386.582031 376.453125 389.335938 374.367188 392.816406 373.230469 C 393 376.304688 395.976562 377.511719 397.261719 379.898438 C 399.027344 383.171875 401.09375 382.671875 403.640625 380.175781 C 433.011719 351.671875 468.597656 332.882812 505.261719 315.976562 C 517.113281 310.503906 530.207031 308.34375 543.0625 306.371094 C 554.949219 304.546875 563.746094 314.972656 562.054688 327.78125 C 561.699219 330.464844 561.03125 333.105469 560.511719 335.769531 C 542.335938 370.941406 518.617188 402.296875 493.839844 432.921875 C 476.207031 454.726562 455.355469 472.804688 431.285156 487.160156 C 430.148438 487.832031 428.808594 488.148438 427.5625 488.632812 C 423.917969 490.886719 419.675781 490.511719 415.714844 491.367188 C 411.101562 492.355469 407.996094 490.511719 405.183594 486.9375 C 398.691406 478.746094 394.15625 469.398438 389.578125 460.164062 C 384.890625 450.703125 379.515625 442.902344 368.09375 440.96875 C 364.074219 440.296875 359.144531 438.902344 360.148438 432.664062 C 361.695312 429.199219 366.957031 426.480469 364.855469 422.664062 C 363.035156 419.351562 357.957031 421.585938 354.347656 421.210938 C 352.503906 421.042969 350.625 421.15625 348.765625 421.121094 Z M 348.765625 421.121094 " fill-opacity="1" fill-rule="nonzero"/><path fill="#fdde6c" d="M 156.664062 409.632812 C 168.941406 446.570312 181.183594 483.53125 190.09375 521.511719 C 183.917969 513.136719 181.554688 503.210938 178.226562 493.789062 C 168.441406 466.066406 157.484375 438.734375 149.449219 410.394531 C 148.703125 407.75 147.347656 405.199219 150.15625 402.964844 C 152.964844 404.566406 155.046875 406.855469 156.664062 409.632812 Z M 156.664062 409.632812 " fill-opacity="1" fill-rule="nonzero"/><path fill="#d66f2f" d="M 286.226562 460.667969 C 287.210938 493.511719 284.179688 526.296875 284.515625 559.125 C 284.628906 568.972656 284.535156 578.824219 284.550781 588.671875 C 277.390625 587.777344 276.722656 581.597656 275.53125 576.605469 C 266.730469 539.628906 255.441406 503.398438 243.925781 467.21875 C 243.757812 466.71875 243.796875 466.140625 243.742188 465.601562 C 255.21875 468.261719 266.675781 464.371094 278.171875 465.433594 C 281.726562 465.785156 283.976562 463.011719 286.226562 460.667969 Z M 286.226562 460.667969 " fill-opacity="1" fill-rule="nonzero"/><path fill="#fcd863" d="M 205.90625 490.214844 C 211.039062 494.085938 216.191406 497.773438 222.3125 491.871094 C 228.113281 509.933594 231.6875 528.515625 235.425781 547.058594 C 236.394531 551.84375 237.25 556.628906 238.085938 561.453125 C 238.570312 564.300781 240.28125 568.359375 237.25 569.550781 C 233.957031 570.871094 232.429688 566.757812 231.40625 564.09375 C 226.570312 551.695312 221.699219 539.3125 217.363281 526.726562 C 213.175781 514.679688 209.679688 502.390625 205.90625 490.214844 Z M 205.90625 490.214844 " fill-opacity="1" fill-rule="nonzero"/><path fill="#fdfce3" d="M 284.664062 404.996094 C 285.667969 400.621094 286.730469 395.777344 291.714844 394.066406 C 296.773438 392.316406 301.832031 392.351562 305.851562 397.15625 C 309.292969 401.253906 309.609375 405.070312 306.929688 409.816406 C 303.65625 415.625 297.964844 419.292969 294.449219 424.878906 C 293.351562 426.613281 290.1875 426.5 290.113281 424.042969 C 289.890625 417.226562 286.023438 411.640625 284.664062 404.996094 Z M 284.664062 404.996094 " fill-opacity="1" fill-rule="nonzero"/><path fill="#b6652f" d="M 360.167969 432.683594 C 361.789062 438.15625 366.808594 439.292969 371.105469 439.664062 C 382.210938 440.652344 386.566406 449.214844 390.75 457.054688 C 395.402344 465.769531 399.53125 474.722656 404.960938 483.046875 C 408.21875 488.035156 411.136719 491.445312 417.851562 488.816406 C 420.679688 487.71875 424.308594 488.632812 427.5625 488.632812 C 426.875 489.46875 426.371094 490.625 425.480469 491.089844 C 404.945312 501.8125 384.238281 512.464844 362.085938 519.242188 C 338.832031 526.355469 330.574219 519.652344 332.730469 492.542969 C 334.554688 469.882812 345.472656 450.089844 360.167969 432.683594 Z M 360.167969 432.683594 " fill-opacity="1" fill-rule="nonzero"/><path fill="#fee156" d="M 359.871094 270.082031 C 372.316406 265.316406 385.785156 265.316406 398.527344 261.851562 C 409.6875 258.796875 421.59375 258.855469 432.230469 253.695312 C 439.414062 253.769531 446.574219 250.902344 453.773438 253.453125 C 467.242188 256.621094 480.855469 258.054688 494.605469 256.023438 C 498.714844 255.410156 502.601562 254.851562 506.640625 256.171875 C 513.484375 258.40625 515.175781 263.210938 509.484375 267.140625 C 484.09375 284.695312 457.324219 299.628906 427.171875 307.523438 C 426.371094 307.730469 425.257812 306.816406 424.308594 306.425781 C 420.140625 298.492188 417.277344 298.382812 411.378906 304.171875 C 406.355469 309.125 399.382812 311.082031 392.515625 312.683594 C 391.289062 312.644531 390.265625 312.253906 389.726562 311.0625 C 386.695312 307.503906 382.0625 307.988281 378.230469 306.480469 C 372.96875 304.414062 374.957031 302.496094 378.304688 300.5625 C 385.09375 298.492188 389.875 292.851562 396.945312 290.039062 C 392.871094 290.433594 390.527344 294.75 386.507812 293.207031 C 385.839844 292.574219 385.167969 291.957031 384.5 291.324219 C 384.519531 283.003906 377.300781 278.535156 369.300781 281.921875 C 366.4375 283.132812 364.113281 285.945312 360.503906 284.957031 C 358.625 284.882812 356.746094 284.808594 354.886719 284.734375 C 352.261719 282.835938 353.34375 280.804688 355.257812 279.59375 C 358.886719 277.304688 359.554688 273.84375 359.871094 270.082031 Z M 359.871094 270.082031 " fill-opacity="1" fill-rule="nonzero"/><path fill="#ca8331" d="M 453.773438 253.4375 C 446.59375 253.789062 439.449219 257.585938 432.230469 253.679688 C 432.382812 250.644531 432.753906 247.496094 428.085938 250.492188 C 426.316406 251.648438 424.234375 252.617188 422.1875 252.933594 C 420.753906 253.136719 418.726562 252.226562 418.375 250.476562 C 417.984375 248.539062 419.640625 247.792969 421.277344 247.199219 C 427.285156 245 432.847656 244.796875 437.367188 250.289062 C 441.699219 251.816406 445.941406 249.804688 450.519531 249.46875 C 448.824219 248.632812 447.019531 247.980469 445.476562 246.917969 C 440.863281 243.773438 441.105469 239.324219 446.238281 236.882812 C 451.914062 234.183594 458.105469 234.835938 463.855469 236.15625 C 467.949219 237.089844 467.875 240.90625 465.640625 244.070312 C 464.078125 246.285156 462.105469 248.183594 460.300781 250.234375 C 457.867188 250.792969 455.539062 251.574219 453.773438 253.4375 Z M 453.773438 253.4375 " fill-opacity="1" fill-rule="nonzero"/><path fill="#bf8a2d" d="M 360.503906 284.9375 C 367.3125 279.949219 373.988281 275.761719 382.808594 281.289062 C 387.773438 284.417969 388.796875 287.117188 384.5 291.289062 C 379.273438 295.980469 372.425781 297.542969 366.234375 300.039062 C 360.988281 302.144531 355.871094 299.332031 351.390625 293.691406 C 356.503906 294.582031 359.5 299.59375 364.78125 296.410156 C 361.378906 293.335938 357.601562 290.152344 360.503906 284.9375 Z M 360.503906 284.9375 " fill-opacity="1" fill-rule="nonzero"/><path fill="#c38e2e" d="M 392.515625 312.683594 C 396.199219 309.292969 400.886719 307.839844 405.371094 305.960938 C 407.84375 304.917969 411.957031 305.027344 410.097656 300.261719 C 409.949219 299.851562 410.132812 299.089844 410.449219 298.753906 C 415.640625 293.207031 420.046875 299.109375 424.492188 300.207031 C 429.480469 301.417969 424.71875 304.285156 424.269531 306.445312 C 420.867188 310.355469 416.699219 307.542969 412.867188 307.839844 C 409.835938 308.0625 404.476562 306.628906 409.109375 313.40625 C 412.328125 318.117188 407.136719 319.535156 403.753906 319.308594 C 399.234375 319.011719 394.621094 317.691406 392.515625 312.683594 Z M 392.515625 312.683594 " fill-opacity="1" fill-rule="nonzero"/><path fill="#b68024" d="M 359.871094 270.082031 C 363.164062 274.214844 362.328125 277.417969 357.824219 280.003906 C 356.113281 280.992188 353.546875 281.71875 354.886719 284.714844 C 351.128906 287.566406 346.421875 288.011719 342.125 289.109375 C 334.757812 290.972656 329.511719 286.242188 329.105469 278.367188 C 337.734375 269.558594 347.519531 265.074219 359.871094 270.082031 Z M 359.871094 270.082031 " fill-opacity="1" fill-rule="nonzero"/><path fill="#c2772e" d="M 506.433594 232.433594 C 502.15625 233.03125 497.933594 234.613281 493.542969 233.792969 C 489.136719 232.972656 486.976562 229.734375 489.210938 226.160156 C 492.371094 221.074219 497.28125 217.277344 502.675781 214.464844 C 504.109375 213.722656 505.933594 214.148438 506.898438 216.738281 C 502.101562 217.648438 497.746094 219.472656 494.640625 223.402344 C 493.507812 224.855469 491.421875 225.972656 492.464844 228.246094 C 493.375 230.21875 495.347656 230.589844 497.355469 230.554688 C 504.183594 230.421875 510.695312 228.839844 517.242188 226.511719 C 516.21875 223.234375 513.1875 223.792969 511.253906 222.640625 C 509.875 221.820312 507.792969 221.632812 509 219.382812 C 509.914062 217.6875 511.570312 217.464844 513.222656 218.449219 C 517.410156 220.945312 522.488281 221.820312 525.949219 225.601562 C 520.03125 229.566406 512.984375 230.292969 506.433594 232.433594 Z M 506.433594 232.433594 " fill-opacity="1" fill-rule="nonzero"/><path fill="#bc882b" d="M 386.507812 293.1875 C 391.496094 291.847656 395.027344 283.839844 403.269531 290.617188 C 392.722656 291.308594 387.738281 300.765625 378.378906 301.269531 C 377.785156 301.882812 377.207031 301.863281 376.648438 301.25 C 378.324219 296.59375 384.480469 297.453125 386.507812 293.1875 Z M 386.507812 293.1875 " fill-opacity="1" fill-rule="nonzero"/><path fill="#ae7d21" d="M 376.632812 301.230469 C 377.207031 301.230469 377.785156 301.25 378.363281 301.25 C 378.527344 302.554688 373.507812 303.054688 377.636719 304.789062 C 381.039062 306.222656 384.648438 307.097656 388.554688 306.910156 C 393.28125 306.6875 390.230469 309.367188 389.726562 311.023438 C 384.835938 309.480469 379.925781 307.972656 375.070312 306.351562 C 373.414062 305.792969 370.585938 305.792969 371.105469 303.277344 C 371.664062 300.523438 374.546875 301.378906 376.632812 301.230469 Z M 376.632812 301.230469 " fill-opacity="1" fill-rule="nonzero"/><path fill="#c67d2d" d="M 427.601562 235.542969 C 418.375 240.402344 409.128906 245.019531 398.617188 239.433594 C 402.992188 240.90625 407.175781 239.640625 411.902344 237.964844 C 407.679688 234.871094 403.714844 231.988281 399.773438 229.101562 C 400.980469 228.503906 402.023438 228.003906 403.511719 228.785156 C 409.148438 231.746094 414.710938 235.804688 421.164062 230.21875 C 422.523438 229.042969 423.136719 235.710938 425.292969 231.035156 C 426.613281 228.207031 424.585938 226.550781 422.113281 225.46875 C 421.367188 225.152344 420.644531 224.761719 419.917969 224.425781 C 419.210938 224.09375 418.503906 223.792969 415.492188 222.453125 C 422.074219 222.25 426.371094 221.1875 429.609375 225.375 C 432.734375 229.417969 429.535156 232.394531 427.601562 235.542969 Z M 427.601562 235.542969 " fill-opacity="1" fill-rule="nonzero"/><path fill="#fbda5b" d="M 384.222656 285.554688 C 380.351562 291.625 375.460938 294.230469 368.78125 293.167969 C 367.386719 292.945312 365.859375 292.589844 365.785156 291.027344 C 365.730469 290.171875 366.566406 288.90625 367.367188 288.402344 C 372.371094 285.199219 377.28125 281.160156 384.222656 285.554688 Z M 384.222656 285.554688 " fill-opacity="1" fill-rule="nonzero"/><path fill="#fee156" d="M 406.152344 315.195312 C 403.082031 316.109375 400.292969 316.515625 398.5625 313.648438 C 398.359375 313.296875 398.972656 311.9375 399.4375 311.769531 C 402.765625 310.671875 404.070312 313.78125 406.152344 315.195312 Z M 406.152344 315.195312 " fill-opacity="1" fill-rule="nonzero"/><path fill="#f5cb56" d="M 338.015625 280.230469 C 338.480469 281.121094 338.535156 281.4375 338.722656 281.585938 C 340.765625 283.300781 344.414062 279.894531 345.714844 283.730469 C 346.179688 285.070312 344.898438 285.722656 343.929688 285.980469 C 340.394531 286.894531 336.878906 286.875 333.792969 284.566406 C 331.671875 282.984375 331.78125 280.863281 332.9375 278.738281 C 335.503906 273.972656 349.15625 269.039062 353.992188 271.160156 C 355.6875 271.90625 357.972656 272.484375 357.84375 274.808594 C 357.695312 277.566406 355.371094 278.871094 353.175781 279.96875 C 351.554688 280.789062 348.988281 282.628906 348.097656 280.621094 C 344.339844 272.148438 341.511719 279.429688 338.015625 280.230469 Z M 338.015625 280.230469 " fill-opacity="1" fill-rule="nonzero"/></svg>